<svg width="100" height="100" viewBox="0 0 100 100" fill="none" xmlns="http://www.w3.org/2000/svg">
<path fill-rule="evenodd" clip-rule="evenodd" d="M71 39C71 42.2455 72.0527 45.4035 74 48L74.75 49C76.2105 50.9473 77 53.3158 77 55.75V55.75C77 61.9632 71.9632 67 65.75 67H34.25C28.0368 67 23 61.9632 23 55.75V55.75C23 53.3158 23.7895 50.9473 25.25 49L26 48C27.9473 45.4035 29 42.2455 29 39V22.9998H71V39Z" fill="#333333"/>
<mask id="mask0" mask-type="alpha" maskUnits="userSpaceOnUse" x="23" y="22" width="54" height="45">
<path fill-rule="evenodd" clip-rule="evenodd" d="M71 39C71 42.2455 72.0527 45.4035 74 48L74.75 49C76.2105 50.9473 77 53.3158 77 55.75V55.75C77 61.9632 71.9632 67 65.75 67H34.25C28.0368 67 23 61.9632 23 55.75V55.75C23 53.3158 23.7895 50.9473 25.25 49L26 48C27.9473 45.4035 29 42.2455 29 39V22.9998H71V39Z" fill="white"/>
</mask>
<g mask="url(#mask0)">
<path fill-rule="evenodd" clip-rule="evenodd" d="M71 34C71 37.2455 72.0527 40.4035 74 43L74.75 44C76.2105 45.9473 77 48.3158 77 50.75V50.75C77 56.9632 71.9632 62 65.75 62H34.25C28.0368 62 23 56.9632 23 50.75V50.75C23 48.3158 23.7895 45.9473 25.25 44L26 43C27.9473 40.4035 29 37.2455 29 34V17.9998H71V34Z" fill="#333333"/>
</g>
<path fill-rule="evenodd" clip-rule="evenodd" d="M37 52H63V76H37V52Z" fill="#F1D1A3"/>
<mask id="mask1" mask-type="alpha" maskUnits="userSpaceOnUse" x="37" y="52" width="26" height="24">
<path fill-rule="evenodd" clip-rule="evenodd" d="M37 52H63V76H37V52Z" fill="white"/>
</mask>
<g mask="url(#mask1)">
<path opacity="0.1" fill-rule="evenodd" clip-rule="evenodd" d="M0 59L69 45L39 100H0V59Z" fill="black"/>
</g>
<path fill-rule="evenodd" clip-rule="evenodd" d="M37 70C44.1797 72.6667 55.8203 72.6667 63 70C64.1046 70 65 70.8954 65 72V73C65 74.8119 66.1031 76.4413 67.7854 77.1142L87.4042 84.9617C92.1744 86.8697 95.7381 90.9524 96.9842 95.9367L98 100H2L3.01582 95.9367C4.26189 90.9524 7.82565 86.8697 12.5958 84.9617L32.2146 77.1142C33.8969 76.4413 35 74.8119 35 73V72C35 70.8954 35.8954 70 37 70Z" fill="#D61B1B"/>
<mask id="mask2" mask-type="alpha" maskUnits="userSpaceOnUse" x="2" y="70" width="96" height="30">
<path fill-rule="evenodd" clip-rule="evenodd" d="M37 70C44.1797 72.6667 55.8203 72.6667 63 70C64.1046 70 65 70.8954 65 72V73C65 74.8119 66.1031 76.4413 67.7854 77.1142L87.4042 84.9617C92.1744 86.8697 95.7381 90.9524 96.9842 95.9367L98 100H2L3.01582 95.9367C4.26189 90.9524 7.82565 86.8697 12.5958 84.9617L32.2146 77.1142C33.8969 76.4413 35 74.8119 35 73V72C35 70.8954 35.8954 70 37 70Z" fill="white"/>
</mask>
<g mask="url(#mask2)">
<path opacity="0.1" fill-rule="evenodd" clip-rule="evenodd" d="M0 70H50V100H0V70Z" fill="black"/>
</g>
<path fill-rule="evenodd" clip-rule="evenodd" d="M42 13L58 13C63.5228 13 68 17.4772 68 23V42.7807C68 48.001 65.7337 52.9641 61.7887 56.3831L55.2671 62.0352C53.8049 63.3024 51.9349 64 50 64C48.0651 64 46.1951 63.3024 44.7329 62.0352L38.2113 56.3831C34.2663 52.9641 32 48.001 32 42.7807V23C32 17.4772 36.4772 13 42 13Z" fill="#FEDDAC"/>
<mask id="mask3" mask-type="alpha" maskUnits="userSpaceOnUse" x="32" y="13" width="36" height="51">
<path fill-rule="evenodd" clip-rule="evenodd" d="M42 13L58 13C63.5228 13 68 17.4772 68 23V42.7807C68 48.001 65.7337 52.9641 61.7887 56.3831L55.2671 62.0352C53.8049 63.3024 51.9349 64 50 64C48.0651 64 46.1951 63.3024 44.7329 62.0352L38.2113 56.3831C34.2663 52.9641 32 48.001 32 42.7807V23C32 17.4772 36.4772 13 42 13Z" fill="white"/>
</mask>
<g mask="url(#mask3)">
<path opacity="0.1" fill-rule="evenodd" clip-rule="evenodd" d="M39.4853 12.5147C41.7357 10.2643 44.788 9 47.9706 9L51 9C62.0457 9 71 17.9543 71 29V39H68V35C68 32.7909 66.2091 31 64 31H56.082C51.4247 31 46.8313 29.9156 42.6656 27.8328L37 25V25C34.2386 25 32 27.2386 32 30V36V39H29L29 23.0828C29 20.1497 31.1205 17.6466 34.0136 17.1644L35 17L39.4853 12.5147Z" fill="black"/>
<rect opacity="0.05" x="27" y="6" width="23" height="62" fill="black"/>
</g>
<path fill-rule="evenodd" clip-rule="evenodd" d="M39.4853 9.51472C41.7357 7.26428 44.788 6 47.9706 6H51C62.0457 6 71 14.9543 71 26V36H68V32C68 29.7909 66.2091 28 64 28H56.082C51.4247 28 46.8313 26.9156 42.6656 24.8328L37 22V22C34.2386 22 32 24.2386 32 27V33V36H29L29 20.0828C29 17.1497 31.1205 14.6466 34.0136 14.1644L35 14L39.4853 9.51472Z" fill="#333333"/>
<mask id="mask4" mask-type="alpha" maskUnits="userSpaceOnUse" x="29" y="6" width="42" height="30">
<path fill-rule="evenodd" clip-rule="evenodd" d="M39.4853 9.51472C41.7357 7.26428 44.788 6 47.9706 6H51C62.0457 6 71 14.9543 71 26V36H68V32C68 29.7909 66.2091 28 64 28H56.082C51.4247 28 46.8313 26.9156 42.6656 24.8328L37 22V22C34.2386 22 32 24.2386 32 27V33V36H29L29 20.0828C29 17.1497 31.1205 14.6466 34.0136 14.1644L35 14L39.4853 9.51472Z" fill="white"/>
</mask>
<g mask="url(#mask4)">
<path fill-rule="evenodd" clip-rule="evenodd" d="M39.4853 12.5147C41.7357 10.2643 44.788 9 47.9706 9L51 9C62.0457 9 71 17.9543 71 29V39H68V35C68 32.7909 66.2091 31 64 31H56.082C51.4247 31 46.8313 29.9156 42.6656 27.8328L37 25V25C34.2386 25 32 27.2386 32 30V36V39H29L29 23.0828C29 20.1497 31.1205 17.6466 34.0136 17.1644L35 17L39.4853 12.5147Z" fill="#333333"/>
<path opacity="0.2" fill-rule="evenodd" clip-rule="evenodd" d="M37 22L32 33V36H29V21.6113C29 19.0338 32.0358 17.6563 33.9755 19.3536L37 22Z" fill="black"/>
</g>
<path fill-rule="evenodd" clip-rule="evenodd" d="M68 33H69.6036C70.7081 33 71.6036 33.8954 71.6036 35C71.6036 35.12 71.5928 35.2397 71.5713 35.3578L70.2986 42.3578C70.1257 43.3088 69.2974 44 68.3308 44H68V33Z" fill="#DFC093"/>
<path fill-rule="evenodd" clip-rule="evenodd" d="M32 33V44H31.6692C30.7026 44 29.8743 43.3088 29.7014 42.3578L28.4287 35.3578C28.4072 35.2397 28.3964 35.12 28.3964 35C28.3964 33.8954 29.2919 33 30.3964 33H32Z" fill="#DFC093"/>
<rect x="54" y="37" width="13" height="4" fill="white"/>
<rect x="33" y="37" width="13" height="4" fill="white"/>
<path d="M69 35H66C66 33.8954 65.1046 33 64 33H57C55.8954 33 55 33.8954 55 35V39C55 40.1046 55.8954 41 57 41H64C65.1046 41 66 40.1046 66 39V37H68V39C68 41.2091 66.2091 43 64 43H57C54.7909 43 53 41.2091 53 39V35.7453C51.2536 34.9434 48.7464 34.9434 47 35.7453V39C47 41.2091 45.2091 43 43 43H36C33.7909 43 32 41.2091 32 39V37H34V39C34 40.1046 34.8954 41 36 41H43C44.1046 41 45 40.1046 45 39V35C45 33.8954 44.1046 33 43 33H36C34.8954 33 34 33.8954 34 35H31C30.4477 35 30 34.5523 30 34C30 33.4477 30.4477 33 31 33H32.5351C33.2267 31.8044 34.5194 31 36 31H43C44.7464 31 46.2314 32.1192 46.7769 33.6795C48.7705 32.9653 51.2295 32.9653 53.2231 33.6795C53.7686 32.1192 55.2536 31 57 31H64C65.4806 31 66.7733 31.8044 67.4649 33H69C69.5523 33 70 33.4477 70 34C70 34.5523 69.5523 35 69 35Z" fill="#4F515B"/>
</svg>
