<svg width="100" height="100" viewBox="0 0 100 100" fill="none" xmlns="http://www.w3.org/2000/svg">
<path fill-rule="evenodd" clip-rule="evenodd" d="M20 70C20 81.0457 33.4315 90 50 90C66.5685 90 80 81.0457 80 70" fill="#3D5A65"/>
<path fill-rule="evenodd" clip-rule="evenodd" d="M50 60C33.4315 60 20 64.4772 20 70C20 75.5228 33.4315 80 50 80" fill="#6B909E"/>
<path fill-rule="evenodd" clip-rule="evenodd" d="M50 60C66.5685 60 80 64.4772 80 70C80 75.5228 66.5685 80 50 80V60Z" fill="#78A1B0"/>
<path fill-rule="evenodd" clip-rule="evenodd" d="M41 59C57.5685 59 71 63.0294 71 68C71 72.9706 57.5685 77 41 77V59Z" fill="#6B909E"/>
<path fill-rule="evenodd" clip-rule="evenodd" d="M59 59C42.4315 59 29 63.0294 29 68C29 72.9706 42.4315 77 59 77" fill="#4B7281"/>
<path fill-rule="evenodd" clip-rule="evenodd" d="M36 51H64V60.407C64 66.1888 67.5542 71.3758 72.9461 73.463L86.4932 78.7071C91.766 80.7481 95.5701 85.4206 96.4996 90.9978L98 100H2L3.50037 90.9978C4.4299 85.4206 8.23395 80.7481 13.5068 78.7071L27.0539 73.463C32.4458 71.3758 36 66.1888 36 60.407V51Z" fill="#FED4AC"/>
<mask id="mask0" mask-type="alpha" maskUnits="userSpaceOnUse" x="2" y="51" width="96" height="49">
<path fill-rule="evenodd" clip-rule="evenodd" d="M36 51H64V60.407C64 66.1888 67.5542 71.3758 72.9461 73.463L86.4932 78.7071C91.766 80.7481 95.5701 85.4206 96.4996 90.9978L98 100H2L3.50037 90.9978C4.4299 85.4206 8.23395 80.7481 13.5068 78.7071L27.0539 73.463C32.4458 71.3758 36 66.1888 36 60.407V51Z" fill="white"/>
</mask>
<g mask="url(#mask0)">
<path fill-rule="evenodd" clip-rule="evenodd" d="M30 70L50 86L70 70H100V110H0V70H30Z" fill="#5F8390"/>
<path fill-rule="evenodd" clip-rule="evenodd" d="M30 70L50 86L70 70L80 73L50 86L20 73L30 70Z" fill="#78A1B0"/>
<path opacity="0.1" fill-rule="evenodd" clip-rule="evenodd" d="M0 51H64L32 100H0V51Z" fill="black"/>
</g>
<path fill-rule="evenodd" clip-rule="evenodd" d="M69 31H71.3815C72.4861 31 73.3815 31.8954 73.3815 33C73.3815 33.1778 73.3578 33.3547 73.311 33.5262L71.4019 40.5262C71.1646 41.3964 70.3743 42 69.4724 42H69V31Z" fill="#F1C9A3"/>
<path fill-rule="evenodd" clip-rule="evenodd" d="M31 31V42H30.5276C29.6257 42 28.8354 41.3964 28.5981 40.5262L26.689 33.5262C26.6422 33.3547 26.6185 33.1778 26.6185 33C26.6185 31.8954 27.5139 31 28.6185 31H31Z" fill="#F1C9A3"/>
<path fill-rule="evenodd" clip-rule="evenodd" d="M50 8C60.4934 8 69 16.5066 69 27V42.2464C69 47.1431 66.7577 51.7703 62.9143 54.8045L56.1964 60.1081C52.5634 62.9763 47.4366 62.9763 43.8036 60.1081L37.0857 54.8045C33.2423 51.7703 31 47.1431 31 42.2464L31 27C31 16.5066 39.5066 8 50 8Z" fill="#FEE0C5"/>
<mask id="mask1" mask-type="alpha" maskUnits="userSpaceOnUse" x="31" y="8" width="38" height="55">
<path fill-rule="evenodd" clip-rule="evenodd" d="M50 8C60.4934 8 69 16.5066 69 27V42.2464C69 47.1431 66.7577 51.7703 62.9143 54.8045L56.1964 60.1081C52.5634 62.9763 47.4366 62.9763 43.8036 60.1081L37.0857 54.8045C33.2423 51.7703 31 47.1431 31 42.2464L31 27C31 16.5066 39.5066 8 50 8Z" fill="white"/>
</mask>
<g mask="url(#mask1)">
<path fill-rule="evenodd" clip-rule="evenodd" d="M50 11C60.4934 11 69 19.5066 69 30V45.2464C69 50.1431 66.7577 54.7703 62.9143 57.8045L56.1964 63.1081C52.5634 65.9763 47.4366 65.9763 43.8036 63.1081L37.0857 57.8045C33.2423 54.7703 31 50.1431 31 45.2464L31 30C31 19.5066 39.5066 11 50 11Z" fill="#FED4AC"/>
<path opacity="0.05" fill-rule="evenodd" clip-rule="evenodd" d="M50 34C48.3431 34 47 35.3431 47 37V43C47 44.6569 48.3431 46 50 46V66H27V4H50V34Z" fill="black"/>
</g>
<path fill-rule="evenodd" clip-rule="evenodd" d="M43.9797 61L39.0218 56.8544C38.3712 56.3104 37.9813 55.5165 37.9484 54.6691L37.7926 50.6466C37.7385 49.2515 38.654 48.0035 40.001 47.6361L44.8372 46.3171C45.0945 46.247 45.3599 46.2114 45.6266 46.2114L54.3734 46.2114C54.6401 46.2114 54.9056 46.247 55.1628 46.3171L59.9991 47.6361C61.346 48.0035 62.2615 49.2515 62.2075 50.6466L62.0518 54.6631C62.0188 55.514 61.6258 56.3108 60.9708 56.8548L55.9557 61.0199C52.4822 63.9048 47.4436 63.8964 43.9797 61Z" fill="#A3724B"/>
<mask id="mask2" mask-type="alpha" maskUnits="userSpaceOnUse" x="37" y="46" width="26" height="18">
<path fill-rule="evenodd" clip-rule="evenodd" d="M43.9797 61L39.0218 56.8544C38.3712 56.3104 37.9813 55.5165 37.9484 54.6691L37.7926 50.6466C37.7385 49.2515 38.654 48.0035 40.001 47.6361L44.8372 46.3171C45.0945 46.247 45.3599 46.2114 45.6266 46.2114L54.3734 46.2114C54.6401 46.2114 54.9056 46.247 55.1628 46.3171L59.9991 47.6361C61.346 48.0035 62.2615 49.2515 62.2075 50.6466L62.0518 54.6631C62.0188 55.514 61.6258 56.3108 60.9708 56.8548L55.9557 61.0199C52.4822 63.9048 47.4436 63.8964 43.9797 61Z" fill="white"/>
</mask>
<g mask="url(#mask2)">
<path opacity="0.05" fill-rule="evenodd" clip-rule="evenodd" d="M27 6H50V68H27V6Z" fill="black"/>
</g>
<path fill-rule="evenodd" clip-rule="evenodd" d="M43.4574 50.0114L45.9537 49.4566C48.8112 48.8216 51.7733 48.8216 54.6309 49.4565L57.1279 50.0114C58.2061 50.251 58.886 51.3193 58.6464 52.3976C58.6315 52.4647 58.6131 52.531 58.5914 52.5962L57.6089 55.5438C57.42 56.1103 56.8899 56.4924 56.2927 56.4924C55.6524 56.4924 55.0384 56.2381 54.5857 55.7854L52.8785 54.0782C52.5035 53.7032 51.9948 53.4924 51.4643 53.4924H49.1212C48.5907 53.4924 48.082 53.7032 47.707 54.0782L45.9999 55.7853C45.5471 56.2381 44.933 56.4924 44.2927 56.4924C43.6955 56.4924 43.1653 56.1103 42.9764 55.5437L41.9939 52.5962C41.6446 51.5483 42.2109 50.4157 43.2588 50.0664C43.324 50.0446 43.3903 50.0263 43.4574 50.0114Z" fill="#FED4AC"/>
<mask id="mask3" mask-type="alpha" maskUnits="userSpaceOnUse" x="41" y="48" width="18" height="9">
<path fill-rule="evenodd" clip-rule="evenodd" d="M43.4574 50.0114L45.9537 49.4566C48.8112 48.8216 51.7733 48.8216 54.6309 49.4565L57.1279 50.0114C58.2061 50.251 58.886 51.3193 58.6464 52.3976C58.6315 52.4647 58.6131 52.531 58.5914 52.5962L57.6089 55.5438C57.42 56.1103 56.8899 56.4924 56.2927 56.4924C55.6524 56.4924 55.0384 56.2381 54.5857 55.7854L52.8785 54.0782C52.5035 53.7032 51.9948 53.4924 51.4643 53.4924H49.1212C48.5907 53.4924 48.082 53.7032 47.707 54.0782L45.9999 55.7853C45.5471 56.2381 44.933 56.4924 44.2927 56.4924C43.6955 56.4924 43.1653 56.1103 42.9764 55.5437L41.9939 52.5962C41.6446 51.5483 42.2109 50.4157 43.2588 50.0664C43.324 50.0446 43.3903 50.0263 43.4574 50.0114Z" fill="white"/>
</mask>
<g mask="url(#mask3)">
<path opacity="0.05" fill-rule="evenodd" clip-rule="evenodd" d="M50 49C48.8954 49 48 50.1193 48 51.5C48 52.8807 48.8954 54 50 54V64H32V41H50V49Z" fill="black"/>
</g>
<path fill-rule="evenodd" clip-rule="evenodd" d="M55 35H67V39H55V35Z" fill="white"/>
<path fill-rule="evenodd" clip-rule="evenodd" d="M33 35H45V39H33V35Z" fill="white"/>
<path d="M33 34H30V32H31.5351C32.2267 30.8044 33.5194 30 35 30H43C44.7464 30 46.2314 31.1192 46.7769 32.6795C48.7705 31.9653 51.2295 31.9653 53.2231 32.6795C53.7686 31.1192 55.2536 30 57 30H65C66.4806 30 67.7733 30.8044 68.4649 32H70V34H67C67 32.8954 66.1046 32 65 32H57C55.8954 32 55 32.8954 55 34V36C55 37.1046 55.8954 38 57 38H65C66.1046 38 67 37.1046 67 36H69C69 38.2091 67.2091 40 65 40H57C54.7909 40 53 38.2091 53 36V34.7453C51.2536 33.9434 48.7464 33.9434 47 34.7453V36C47 38.2091 45.2091 40 43 40H35C32.7909 40 31 38.2091 31 36H33C33 37.1046 33.8954 38 35 38H43C44.1046 38 45 37.1046 45 36V34C45 32.8954 44.1046 32 43 32H35C33.8954 32 33 32.8954 33 34Z" fill="#4F515B"/>
<path fill-rule="evenodd" clip-rule="evenodd" d="M64.8471 89H65.1529C65.6417 89 66.0589 89.3534 66.1393 89.8356L66.8059 93.8356C66.8967 94.3804 66.5287 94.8956 65.9839 94.9864C65.9296 94.9954 65.8746 95 65.8195 95H64.1805C63.6282 95 63.1805 94.5523 63.1805 94C63.1805 93.9449 63.185 93.8899 63.1941 93.8356L63.8607 89.8356C63.9411 89.3534 64.3583 89 64.8471 89Z" fill="#3D5A65"/>
<path fill-rule="evenodd" clip-rule="evenodd" d="M34.8471 89H35.1529C35.6417 89 36.0589 89.3534 36.1393 89.8356L36.8059 93.8356C36.8967 94.3804 36.5287 94.8956 35.9839 94.9864C35.9296 94.9954 35.8746 95 35.8195 95H34.1805C33.6282 95 33.1805 94.5523 33.1805 94C33.1805 93.9449 33.185 93.8899 33.1941 93.8356L33.8607 89.8356C33.9411 89.3534 34.3583 89 34.8471 89Z" fill="#3D5A65"/>
<path fill-rule="evenodd" clip-rule="evenodd" d="M65 77C65.5523 77 66 77.4477 66 78V90C66 90.5523 65.5523 91 65 91C64.4477 91 64 90.5523 64 90V78C64 77.4477 64.4477 77 65 77Z" fill="#D8D8D8"/>
<path fill-rule="evenodd" clip-rule="evenodd" d="M35 77C35.5523 77 36 77.4477 36 78V90C36 90.5523 35.5523 91 35 91C34.4477 91 34 90.5523 34 90V78C34 77.4477 34.4477 77 35 77Z" fill="#D8D8D8"/>
</svg>
