<svg width="100" height="100" viewBox="0 0 100 100" fill="none" xmlns="http://www.w3.org/2000/svg">
<path fill-rule="evenodd" clip-rule="evenodd" d="M34 50H66V70H34V50Z" fill="#422818"/>
<path fill-rule="evenodd" clip-rule="evenodd" d="M38 51H62V73.0499C62 75.924 64.0381 78.3945 66.8599 78.9406L84.9894 82.4496C89.824 83.3853 93.5962 87.1796 94.5036 92.0195L96 100H4L5.49635 92.0195C6.40383 87.1796 10.176 83.3853 15.0106 82.4496L33.1401 78.9406C35.9619 78.3945 38 75.924 38 73.0499V51Z" fill="#FEDDAC"/>
<mask id="mask0" mask-type="alpha" maskUnits="userSpaceOnUse" x="4" y="51" width="92" height="49">
<path fill-rule="evenodd" clip-rule="evenodd" d="M38 51H62V73.0499C62 75.924 64.0381 78.3945 66.8599 78.9406L84.9894 82.4496C89.824 83.3853 93.5962 87.1796 94.5036 92.0195L96 100H4L5.49635 92.0195C6.40383 87.1796 10.176 83.3853 15.0106 82.4496L33.1401 78.9406C35.9619 78.3945 38 75.924 38 73.0499V51Z" fill="white"/>
</mask>
<g mask="url(#mask0)">
<path opacity="0.15" fill-rule="evenodd" clip-rule="evenodd" d="M0 49H69L50 78.0801V100H0V49Z" fill="black"/>
</g>
<path fill-rule="evenodd" clip-rule="evenodd" d="M49 20H51C60.3888 20 68 27.6112 68 37V46.8149C68 51.3851 66.0456 55.7372 62.6298 58.7735L53.9862 66.4567C51.7129 68.4775 48.2871 68.4775 46.0138 66.4567L37.3702 58.7735C33.9544 55.7372 32 51.3851 32 46.8149L32 37C32 27.6112 39.6112 20 49 20Z" fill="#FEDDAC"/>
<mask id="mask1" mask-type="alpha" maskUnits="userSpaceOnUse" x="32" y="20" width="36" height="48">
<path fill-rule="evenodd" clip-rule="evenodd" d="M49 20H51C60.3888 20 68 27.6112 68 37V46.8149C68 51.3851 66.0456 55.7372 62.6298 58.7735L53.9862 66.4567C51.7129 68.4775 48.2871 68.4775 46.0138 66.4567L37.3702 58.7735C33.9544 55.7372 32 51.3851 32 46.8149L32 37C32 27.6112 39.6112 20 49 20Z" fill="white"/>
</mask>
<g mask="url(#mask1)">
<path opacity="0.05" fill-rule="evenodd" clip-rule="evenodd" d="M28 14H50L57 37L50 40V70H28V14Z" fill="black"/>
</g>
<path fill-rule="evenodd" clip-rule="evenodd" d="M57.2954 36.8185C49.3926 37.2235 40.3007 36.9507 34 36V70C30.1053 64.8071 28 58.4911 28 52L28 34C28 21.8497 37.8497 12 50 12C62.1503 12 72 21.8497 72 34V52C72 58.4911 69.8947 64.8071 66 70V36C64.3788 36.2446 62.5728 36.4444 60.6498 36.5992L59 30L57.2954 36.8185V36.8185Z" fill="#AC5A26"/>
<mask id="mask2" mask-type="alpha" maskUnits="userSpaceOnUse" x="28" y="12" width="44" height="58">
<path fill-rule="evenodd" clip-rule="evenodd" d="M57.2954 36.8185C49.3926 37.2235 40.3007 36.9507 34 36V70C30.1053 64.8071 28 58.4911 28 52L28 34C28 21.8497 37.8497 12 50 12C62.1503 12 72 21.8497 72 34V52C72 58.4911 69.8947 64.8071 66 70V36C64.3788 36.2446 62.5728 36.4444 60.6498 36.5992L59 30L57.2954 36.8185V36.8185Z" fill="white"/>
</mask>
<g mask="url(#mask2)">
<path fill-rule="evenodd" clip-rule="evenodd" d="M57.2954 39.8185C49.3926 40.2235 40.3007 39.9507 34 39V73C30.1053 67.8071 28 61.4911 28 55L28 37C28 24.8497 37.8497 15 50 15C62.1503 15 72 24.8497 72 37V55C72 61.4911 69.8947 67.8071 66 73V39C64.3788 39.2446 62.5728 39.4444 60.6498 39.5992L59 33L57.2954 39.8185V39.8185Z" fill="#B65314"/>
<path opacity="0.2" fill-rule="evenodd" clip-rule="evenodd" d="M50 12C48.3431 12 47 17.5964 47 24.5C47 31.4036 48.3431 37 50 37V71H26V8H50V12Z" fill="black"/>
</g>
<path fill-rule="evenodd" clip-rule="evenodd" d="M78.4516 100H21.5484L26.9361 79.1228L32.9501 77.9588C34.147 77.7272 35.1747 77.0801 35.8953 76.1847C44.599 78.6051 55.401 78.6051 64.1047 76.1847C64.8254 77.0801 65.853 77.7272 67.0499 77.9588L73.064 79.1228L78.4516 100V100Z" fill="#6FCF97"/>
<mask id="mask3" mask-type="alpha" maskUnits="userSpaceOnUse" x="21" y="76" width="58" height="24">
<path fill-rule="evenodd" clip-rule="evenodd" d="M78.4516 100H21.5484L26.9361 79.1228L32.9501 77.9588C34.147 77.7272 35.1747 77.0801 35.8953 76.1847C44.599 78.6051 55.401 78.6051 64.1047 76.1847C64.8254 77.0801 65.853 77.7272 67.0499 77.9588L73.064 79.1228L78.4516 100V100Z" fill="white"/>
</mask>
<g mask="url(#mask3)">
<path opacity="0.1" fill-rule="evenodd" clip-rule="evenodd" d="M30 75H70L50 110L30 75Z" fill="white"/>
</g>
</svg>
