<svg width="240" height="234" viewBox="0 0 240 234" fill="none" xmlns="http://www.w3.org/2000/svg">
<path d="M42.5 0H197.5C221 0 240 19 240 42.5V191.5C240 215 221 234 197.5 234H42.5C19 234 0 215 0 191.5V42.5C0 19 19 0 42.5 0Z" fill="#00005B"/>
<path d="M96.401 140H59.201L51.601 163.6C51.401 164.5 50.601 165.1 49.701 165H30.901C29.801 165 29.501 164.4 29.801 163.2L62.001 70.9002C62.301 69.9002 62.601 69.0002 63.001 67.8002C63.401 65.7002 63.601 63.5002 63.601 61.3002C63.501 60.8002 63.901 60.3002 64.401 60.2002C64.501 60.2002 64.601 60.2002 64.701 60.2002H90.301C91.001 60.2002 91.501 60.5002 91.601 61.0002L128.101 163.5C128.401 164.6 128.101 165.1 127.101 165.1H106.201C105.501 165.2 104.801 164.7 104.601 164L96.401 140ZM65.001 120.1H90.401C89.801 118 89.001 115.5 88.101 112.9C87.201 110.2 86.301 107.3 85.401 104.3C84.401 101.2 83.501 98.2002 82.501 95.1002C81.501 92.0002 80.601 89.1002 79.801 86.2002C79.001 83.4002 78.301 80.8002 77.601 78.4002H77.401C76.501 82.7002 75.401 87.0002 74.001 91.3002C72.501 96.1002 71.001 101.1 69.401 106.1C68.101 111.2 66.501 115.9 65.001 120.1Z" fill="#9999FF"/>
<path d="M187.402 130.8H155.702C156.102 133.9 157.102 137 158.802 139.7C160.602 142.4 163.102 144.5 166.102 145.7C170.102 147.4 174.502 148.3 178.902 148.2C182.402 148.1 185.902 147.8 189.302 147.1C192.402 146.7 195.402 145.9 198.202 144.8C198.702 144.4 199.002 144.6 199.002 145.6V160.9C199.002 161.3 198.902 161.7 198.802 162.1C198.602 162.4 198.402 162.6 198.102 162.8C194.902 164.2 191.602 165.2 188.102 165.8C183.402 166.7 178.702 167.1 173.902 167C166.302 167 159.902 165.8 154.702 163.5C149.802 161.4 145.502 158.1 142.102 154C138.902 150.1 136.602 145.7 135.202 140.9C133.802 136.2 133.102 131.3 133.102 126.3C133.102 120.9 133.902 115.6 135.602 110.4C137.202 105.4 139.702 100.8 143.102 96.7001C146.402 92.7001 150.502 89.5001 155.202 87.2001C159.902 84.9001 165.502 84.1001 171.902 84.1001C177.202 84.0001 182.502 85.0001 187.402 87.2001C191.502 89.0001 195.102 91.7001 197.902 95.2001C200.502 98.6001 202.602 102.4 203.902 106.6C205.202 110.6 205.802 114.7 205.802 118.8C205.802 121.2 205.702 123.3 205.602 125.2C205.402 127.1 205.302 128.5 205.202 129.4C205.102 130.1 204.502 130.7 203.802 130.7C203.202 130.7 202.102 130.8 200.502 130.9C198.902 131.1 197.002 131.2 194.702 131.2C192.402 131.2 190.002 130.8 187.402 130.8ZM155.702 116.2H176.802C179.402 116.2 181.302 116.2 182.502 116.1C183.302 116 184.102 115.8 184.802 115.3V114.3C184.802 113 184.602 111.8 184.202 110.6C182.402 105 177.102 101.2 171.202 101.4C165.702 101.1 160.502 104 157.902 109C156.702 111.3 156.002 113.7 155.702 116.2Z" fill="#9999FF"/>
</svg>
