<svg width="240" height="234" viewBox="0 0 240 234" fill="none" xmlns="http://www.w3.org/2000/svg">
<path d="M42.5 0H197.5C221 0 240 19 240 42.5V191.5C240 215 221 234 197.5 234H42.5C19 234 0 215 0 191.5V42.5C0 19 19 0 42.5 0Z" fill="#072600"/>
<path d="M22.7999 163.8V61.4001C22.6999 60.8001 23.1999 60.2001 23.7999 60.1001C23.7999 60.1001 23.7999 60.1001 23.8999 60.1001C25.3999 60.0001 27.6999 59.9001 30.5999 59.9001C33.5999 59.8001 36.9999 59.8001 40.9999 59.7001C44.9999 59.6001 49.1999 59.6001 53.6999 59.6001C65.8999 59.6001 76.0999 61.8001 84.0999 66.2001C91.7999 70.3001 98.0999 76.6001 102.2 84.3001C106.2 92.0001 108.2 100.8 108.2 110.8C108.3 117.8 107.3 124.7 105.1 131.3C103.2 136.9 100.3 142.1 96.4999 146.7C92.9999 150.9 88.7999 154.5 84.1999 157.4C79.6999 160.2 74.6999 162.3 69.4999 163.7C64.4999 165 59.2999 165.7 54.0999 165.7H42.7999C38.7999 165.7 34.9999 165.7 31.5999 165.6C28.0999 165.5 25.4999 165.5 23.7999 165.4C23.0999 165.4 22.7999 164.8 22.7999 163.8ZM43.8999 79.4001V146.1C44.9999 146.1 45.9999 146.1 46.9999 146.2C47.8999 146.3 48.8999 146.3 49.7999 146.4C50.7999 146.5 51.8999 146.5 53.0999 146.5C57.6999 146.6 62.2999 145.8 66.6999 144.2C70.6999 142.8 74.1999 140.5 77.1999 137.4C80.1999 134.2 82.4999 130.4 83.8999 126.3C85.4999 121.5 86.2999 116.4 86.2999 111.3C86.3999 106.5 85.5999 101.7 83.9999 97.2001C81.1999 89.4001 74.8999 83.4001 66.8999 81.0001C62.5999 79.7001 58.1999 79.0001 53.6999 79.1001C51.6999 79.1001 49.9999 79.1001 48.5999 79.2001C47.1999 79.2001 45.5999 79.3001 43.8999 79.4001Z" fill="#35FA00"/>
<path d="M197.8 165.4H179.1C178.7 165.5 178.2 165.3 177.9 165C177.6 164.6 177.4 164.2 177.3 163.8C175.4 155.8 173.8 148.6 172.5 142.5C171.2 136.3 170.1 131.1 169.3 126.8C168.5 122.5 167.8 118.9 167.2 115.9C166.7 112.9 166.2 110.4 165.9 108.3H165.8C164.8 112.7 163.9 117 163 121.1C162.2 125.2 161.2 129.4 160.2 133.6C159.2 137.8 158.1 142.4 156.8 147.4C155.6 152.4 154.2 157.9 152.7 163.8C152.5 164.9 152 165.4 151.1 165.4H132.4C131.9 165.5 131.4 165.3 131 165.1C130.7 164.8 130.5 164.4 130.3 164L110.8 86.7002C110.5 85.8002 110.9 85.4002 112 85.4002H130.9C131.8 85.4002 132.3 85.7002 132.4 86.4002C134.4 95.2002 136.1 102.8 137.4 109.2C138.7 115.6 139.8 121 140.5 125.5C141.2 130 141.9 133.7 142.4 136.5C142.9 139.3 143.3 141.7 143.6 143.5H143.9C144.1 141.9 144.3 140.4 144.6 138.8C145 136.9 145.5 134.4 146.1 131.3C146.7 128.2 147.4 124.6 148.3 120.4C149.2 116.2 150.2 111.4 151.4 105.8C152.5 100.3 154.1 94.0002 156 86.9002C156 86.5002 156.2 86.0002 156.4 85.6002C156.5 85.4002 156.9 85.3002 157.5 85.3002H177.1C177.7 85.3002 178 85.7002 178.1 86.4002C179.8 93.7002 181.2 100.1 182.4 105.6C183.5 111.1 184.5 116 185.4 120.3C186.2 124.5 186.9 128.2 187.3 131.2C187.7 134.3 188.2 136.8 188.6 138.9C188.9 140.6 189.2 142.3 189.3 144H189.6C190.1 142 190.5 139.6 190.9 136.9C191.3 134.2 191.8 131.2 192.5 127.8C193.1 124.4 193.8 120.7 194.6 116.6C195.3 112.5 196.3 108 197.4 102.9C198.5 97.9002 199.7 92.4002 201.1 86.5002C201.3 85.6002 201.7 85.2002 202.4 85.2002H219.9C220.8 85.2002 221.1 85.7002 220.9 86.6002L199.3 163.7C199.2 164.1 199 164.5 198.7 164.8C198.7 165.3 198.3 165.5 197.8 165.4Z" fill="#35FA00"/>
</svg>
