<svg width="36" height="36" viewBox="0 0 36 36"  xmlns="http://www.w3.org/2000/svg">



<style>
 path{
      fill: black;
      stroke: black;

    }
    @media (prefers-color-scheme: dark) {
     path {
        fill: white;

      }
    }
    </style>


<path fill-rule="evenodd" clip-rule="evenodd" d="M16.2153 0.325938C14.6254 1.85967 11.3892 4.12349 10.7863 4.12349C10.5876 4.12349 9.87512 4.46559 9.20232 4.88385C7.30753 6.06182 4.94682 6.72746 2.66448 6.72746C0.378204 6.72746 -0.29722 7.27722 0.734277 8.29895C1.95135 9.50393 6.86391 8.58734 11.6663 6.25907C12.6122 5.80077 13.5342 5.42548 13.7155 5.42548C13.8732 5.18982 13.8732 5.18982 14.045 5.13839C14.2011 4.86432 14.6998 4.42881 15.4998 3.91192C17.8766 2.37721 19.4274 -0.558432 18.0917 -0.994596C17.8832 -1.06295 17.0385 -0.468596 16.2153 0.325938ZM26.2381 2.1575C25.8436 2.68708 25.5207 3.28014 25.5207 3.47511C25.5207 3.67008 24.4508 4.86628 23.1436 6.13375C20.698 8.50499 17.7402 10.5722 14.8647 11.9204C13.9631 12.3432 12.9303 12.8377 12.5696 13.0196C12.2089 13.2016 11.3974 13.4603 10.7663 13.5951C10.1351 13.7298 8.25837 14.138 6.59538 14.5029C4.93272 14.8674 2.84252 15.1347 1.95069 15.0966C0.103444 15.0178 -0.201807 15.1907 0.102461 16.1424C0.278202 16.6922 0.5887 16.8178 1.77168 16.8178H3.22515V18.0856C3.22515 18.7828 3.52483 20.3166 3.89106 21.4939C4.44484 23.2734 4.82584 23.8641 6.14816 24.9949C7.92656 26.516 10.3479 27.5608 12.0778 27.5543C13.7155 27.5478 17.4763 26.2357 18.0284 25.4779C18.2537 25.1687 19.2911 26.9179 19.2911 27.607C19.2911 28.1259 20.8944 30.4776 21.7501 31.2138C22.5878 31.9345 25.1587 33.2247 26.0125 33.353C29.0391 33.8074 32.5894 32.3732 34.5166 29.9174C35.8471 28.2219 36.1671 26.9508 35.9265 24.3163C35.6091 20.8426 34.0697 18.4642 30.971 16.6613C29.5522 15.8361 29.2073 15.7723 26.8971 15.9094C25.2102 16.0093 23.9246 16.2882 23.0203 16.7498C22.276 17.13 21.5754 17.3497 21.4629 17.2377C21.3504 17.1261 21.2583 16.4953 21.2583 15.8355C21.2583 15.176 20.8944 13.9567 20.4494 13.126L19.6406 11.6154L20.6953 11.0972C22.3429 10.2871 27.3194 4.96555 27.8106 3.4878C28.5581 1.24025 27.5538 0.390712 26.2381 2.1575ZM18.6274 13.6218C19.7691 15.1552 20.0589 18.6871 19.2278 20.9425C18.4714 22.9951 16.5995 24.7733 14.6457 25.2953C11.244 26.2048 6.90129 24.4246 5.60225 21.588C4.96912 20.2052 5.0701 20.1073 6.93113 20.298C8.5587 20.4647 8.73739 20.4093 9.7184 19.4355C10.9473 18.2155 11.3161 17.0717 10.825 16.0021C10.5017 15.2978 10.5591 15.2167 11.5211 15.0162C13.0444 14.6988 17.3648 13.0496 17.8359 12.6056C17.8471 12.5948 18.2032 13.0522 18.6274 13.6218ZM30.791 18.3906C33.7035 20.2241 34.9514 22.6318 34.5855 25.71C34.2448 28.5744 32.1956 30.6911 28.9863 31.4934C26.0338 32.2313 22.6639 30.6045 21.2842 27.775C20.238 25.6293 20.3452 25.2807 22.0527 25.2807C24.2413 25.2807 25.5223 24.0959 25.5158 22.0781C25.5099 20.3752 25.4151 20.1818 24.0836 19.1669L23.1383 18.4463L24.0374 18.0602C24.6059 17.9476 24.8844 17.6851 25.3489 17.5586C25.5654 17.4997 26.4069 17.4688 27.443 17.4688C28.948 17.4688 29.6211 17.654 30.791 18.3906ZM8.81313 29.658C8.28853 30.2855 8.6269 32.8709 9.30691 33.4314C9.56856 33.6469 9.78266 33.9981 9.78266 34.2116C9.78266 34.4255 10.3853 34.9365 11.1217 35.3473C12.2296 35.9654 12.8208 36.0715 14.5457 35.9625C16.8674 35.816 17.9795 35.1334 17.9795 33.8559C17.9795 32.9679 17.174 32.8319 16.3421 33.5792C16.0441 33.8468 15.1474 34.1498 14.349 34.2527C13.0935 34.4141 12.7762 34.3252 11.9998 33.5935C11.5056 33.1284 11.0135 32.3492 10.9053 31.8622C10.3296 29.2667 9.69741 28.6004 8.81313 29.658Z" fill="#2C2C2C"/>




</svg>
