<svg width="256" height="256" viewBox="0 0 256 256" fill="none" xmlns="http://www.w3.org/2000/svg">
<g clip-path="url(#clip0)">
<path d="M85.6667 256C109.219 256 128.333 236.885 128.333 213.333V170.667H85.6667C62.1147 170.667 43 189.781 43 213.333C43 236.885 62.1147 256 85.6667 256Z" fill="#0ACF83"/>
<path d="M43 128C43 104.448 62.1147 85.333 85.6667 85.333H128.333V170.666H85.6667C62.1147 170.666 43 151.552 43 128Z" fill="#A259FF"/>
<path d="M43 42.6667C43 19.1147 62.1147 0 85.6667 0H128.333V85.3333H85.6667C62.1147 85.3333 43 66.2187 43 42.6667Z" fill="#F24E1E"/>
<path d="M128.332 0H170.999C194.551 0 213.665 19.1147 213.665 42.6667C213.665 66.2187 194.551 85.3333 170.999 85.3333H128.332V0Z" fill="#FF7262"/>
<path d="M213.665 128C213.665 151.552 194.551 170.666 170.999 170.666C147.447 170.666 128.332 151.552 128.332 128C128.332 104.448 147.447 85.333 170.999 85.333C194.551 85.333 213.665 104.448 213.665 128Z" fill="#1ABCFE"/>
</g>
<defs>
<clipPath id="clip0">
<rect width="256" height="256" fill="white"/>
</clipPath>
</defs>
</svg>
