<svg width="182" height="256" viewBox="0 0 182 256" fill="none" xmlns="http://www.w3.org/2000/svg">
<g clip-path="url(#clip0)">
<path d="M181.367 50.3105L164.844 235.41L90.5729 256L16.5068 235.438L0 50.3105H181.367Z" fill="#E44D26"/>
<path d="M90.6836 240.26L150.699 223.622L164.819 65.4463H90.6836V240.26Z" fill="#F16529"/>
<path d="M58.5612 110.859H90.6807V88.1655H33.748L34.2918 94.2576L39.8724 156.826H90.683V134.11H60.6372L58.5612 110.859ZM63.6787 168.167H40.8862L44.0659 203.817L90.577 216.72L90.6807 216.692V193.077L90.5816 193.102L65.2962 186.275L63.6833 168.167H63.6787Z" fill="#EBEBEB"/>
<path d="M16.873 0H28.4121V11.4008H38.9673V0H50.5064V34.5227H38.9673V22.9629H28.4121V34.5227H16.873V0ZM65.6791 11.4492H55.5225V0H87.3816V11.4492H77.2204V34.5227H65.6814V11.4492H65.6791ZM92.4392 0H104.476L111.877 12.1289L119.264 0H131.301V34.5227H119.808V17.41L111.87 29.6841H111.672L103.727 17.41V34.5204H92.4369L92.4392 0ZM137.042 0H148.584V23.1104H164.81V34.5204H137.042V0Z" fill="black"/>
<path d="M90.6058 156.812H118.564L115.928 186.259L90.6035 193.093V216.715L137.147 203.811L137.488 199.975L142.824 140.199L143.377 134.102H90.6058V156.812ZM90.6058 110.801V110.856H145.444L145.905 105.752L146.939 94.2318L147.481 88.1396H90.6058V110.789V110.801Z" fill="white"/>
</g>
<defs>
<clipPath id="clip0">
<rect width="181.367" height="256" fill="white"/>
</clipPath>
</defs>
</svg>
