<svg width="240" height="234" viewBox="0 0 240 234" fill="none" xmlns="http://www.w3.org/2000/svg">
<g clip-path="url(#clip0)">
<path d="M42.5 0H197.5C221 0 240 19 240 42.5V191.5C240 215 221 234 197.5 234H42.5C19 234 0 215 0 191.5V42.5C0 19 19 0 42.5 0Z" fill="#49021F"/>
<path d="M87.2004 61.2V163.8C87.2004 164.9 86.7004 165.4 85.8004 165.4H66.2004C65.3004 165.4 64.9004 164.9 64.9004 163.8V61.2C64.9004 60.3 65.4004 59.9 66.3004 59.9H85.8004C86.4004 59.8 87.0004 60.2 87.1004 60.9C87.2004 61 87.2004 61.1 87.2004 61.2V61.2Z" fill="#FF3366"/>
<path d="M144.801 167C137.401 167.1 130.001 165.6 123.301 162.5C117.001 159.6 111.801 154.8 108.201 148.9C104.501 142.8 102.701 135.2 102.701 126.1C102.601 118.7 104.501 111.4 108.201 105C112.001 98.5002 117.501 93.1002 124.101 89.5002C131.101 85.6002 139.501 83.7002 149.401 83.7002C149.901 83.7002 150.601 83.7002 151.501 83.8002C152.401 83.9002 153.401 83.9002 154.601 84.0002V52.4002C154.601 51.7002 154.901 51.3002 155.601 51.3002H175.901C176.401 51.2002 176.801 51.6002 176.901 52.0002V147.4C176.901 149.2 177.001 151.2 177.101 153.4C177.301 155.5 177.401 157.5 177.501 159.2C177.501 159.9 177.201 160.5 176.501 160.8C171.301 163 165.801 164.6 160.201 165.6C155.201 166.5 150.001 167 144.801 167V167ZM154.601 147V103C153.701 102.8 152.801 102.6 151.901 102.5C150.801 102.4 149.701 102.3 148.601 102.3C144.701 102.3 140.801 103.1 137.301 104.9C133.901 106.6 131.001 109.1 128.801 112.3C126.601 115.5 125.501 119.8 125.501 125C125.401 128.5 126.001 132 127.201 135.3C128.201 138 129.701 140.4 131.701 142.4C133.601 144.2 135.901 145.6 138.501 146.4C141.201 147.3 144.001 147.7 146.801 147.7C148.301 147.7 149.701 147.6 151.001 147.5C152.301 147.6 153.501 147.4 154.601 147V147Z" fill="#FF3366"/>
</g>
<defs>
<clipPath id="clip0">
<rect width="240" height="234" fill="white"/>
</clipPath>
</defs>
</svg>
