<svg width="256" height="256" viewBox="0 0 256 256" fill="none" xmlns="http://www.w3.org/2000/svg">
<g clip-path="url(#clip0)">
<path fill-rule="evenodd" clip-rule="evenodd" d="M232.79 1.60071e-10H23.1956C17.0412 1.60071e-10 11.1388 2.44487 6.78695 6.79671C2.4351 11.1486 -0.00976562 17.051 -0.00976562 23.2054V232.795C-0.00976562 238.949 2.4351 244.851 6.78695 249.203C11.1388 253.555 17.0412 256 23.1956 256H232.785C238.939 256 244.842 253.555 249.194 249.203C253.545 244.851 255.99 238.949 255.99 232.795V23.2C255.99 17.0456 253.545 11.1432 249.194 6.79134C244.842 2.4395 238.939 -0.00537109 232.785 -0.00537109L232.79 1.60071e-10ZM85.5529 80.5439C94.0596 80.5439 101.19 73.8774 101.19 65.1307C101.19 56.3947 94.0596 49.728 85.5529 49.728C77.0409 49.728 69.9155 56.3947 69.9155 65.1307C69.9155 73.8774 77.0409 80.5439 85.5529 80.5439ZM53.1263 163.067C52.2397 166.862 51.7747 170.743 51.7396 174.64C51.7396 188.213 59.0997 197.221 74.7424 197.221C87.713 197.221 98.2303 189.52 105.798 177.083L101.174 195.637H126.934L141.654 136.597C145.334 121.648 152.46 113.888 163.27 113.888C171.777 113.888 177.068 119.179 177.068 127.915C177.068 130.448 176.838 133.205 175.916 136.197L168.326 163.333C167.246 167.07 166.705 170.942 166.721 174.832C166.721 187.717 174.305 197.136 190.177 197.136C203.745 197.136 214.55 188.405 220.534 167.472L210.417 163.568C205.35 177.589 200.982 180.123 197.537 180.123C194.086 180.123 192.246 177.829 192.246 173.227C192.246 171.157 192.705 168.864 193.393 166.096L200.753 139.659C202.593 133.451 203.286 127.947 203.286 122.885C203.286 103.109 191.324 92.7894 176.833 92.7894C163.27 92.7894 149.473 105.024 142.572 117.909L147.628 94.7894H108.305L102.785 115.152H121.185L109.857 160.512C100.956 180.288 84.6142 180.608 82.5609 180.149C79.1955 179.392 77.041 178.112 77.041 173.733C77.041 171.211 77.4995 167.584 78.6515 163.211L95.8996 94.784H52.2036L46.6836 115.152H64.8543L53.1209 163.067H53.1263Z" fill="#FF2A63"/>
</g>
<defs>
<clipPath id="clip0">
<rect width="256" height="256" fill="white"/>
</clipPath>
</defs>
</svg>
