<svg width="256" height="256" viewBox="0 0 256 256" fill="none" xmlns="http://www.w3.org/2000/svg">
<path fill-rule="evenodd" clip-rule="evenodd" d="M136.817 189.221C106.206 190.413 73.2121 184.65 45.3868 170.735L51.15 161.593C78.1813 174.314 109.189 178.688 136.817 177.494C136.817 178.487 138.005 158.809 139.794 148.076H98.2552C102.03 104.746 115.348 66.1861 135.225 33.3916H11V222.613H141.583C138.602 211.281 136.817 188.823 136.817 189.221V189.221Z" fill="#D0E9FB"/>
<path fill-rule="evenodd" clip-rule="evenodd" d="M149.337 176.698C171.997 174.51 191.871 168.548 203.997 160.797L211.154 169.939C194.454 179.681 172.79 186.039 149.337 188.425C149.934 200.153 151.724 211.281 154.705 222.613H244.145V33.3916H148.939C128.666 64.3992 117.138 98.9828 112.766 135.555H155.501C151.92 149.467 149.735 163.183 149.337 176.698V176.698ZM67.4473 62.013H79.573V90.0395H67.4473V62.013Z" fill="#00ACEC"/>
<path fill-rule="evenodd" clip-rule="evenodd" d="M168.414 62.0127H180.542V90.0393H168.414V62.0127Z" fill="black"/>
<path fill-rule="evenodd" clip-rule="evenodd" d="M149.337 176.697C171.997 174.51 191.871 168.548 203.997 160.797L211.154 169.939C194.454 179.681 172.79 186.039 149.337 188.425C150.33 209.492 155.501 230.362 165.833 250.438L155.501 256C136.619 226.189 133.24 186.039 139.797 148.076H98.2559C103.424 89.0443 126.081 38.9557 159.077 0L168.018 7.75134C135.823 45.1193 118.133 88.6484 112.766 135.555H155.501C151.92 149.467 149.735 163.183 149.337 176.697V176.697Z" fill="black"/>
<path fill-rule="evenodd" clip-rule="evenodd" d="M136.817 177.493V189.221C106.205 190.413 73.2119 184.649 45.3867 170.735L51.1499 161.592C78.1789 174.313 109.186 178.685 136.817 177.493Z" fill="#00ACEC"/>
</svg>
