<svg width="49" height="49" viewBox="0 0 49 49" fill="none" xmlns="http://www.w3.org/2000/svg">
<path d="M44.4062 24.5H36.75V18.375C36.75 14.9967 39.4967 12.25 42.875 12.25H43.6406C44.9135 12.25 45.9375 11.226 45.9375 9.95312V5.35938C45.9375 4.08652 44.9135 3.0625 43.6406 3.0625H42.875C34.4148 3.0625 27.5625 9.91484 27.5625 18.375V41.3438C27.5625 43.8799 29.6201 45.9375 32.1562 45.9375H44.4062C46.9424 45.9375 49 43.8799 49 41.3438V29.0938C49 26.5576 46.9424 24.5 44.4062 24.5ZM16.8438 24.5H9.1875V18.375C9.1875 14.9967 11.9342 12.25 15.3125 12.25H16.0781C17.351 12.25 18.375 11.226 18.375 9.95312V5.35938C18.375 4.08652 17.351 3.0625 16.0781 3.0625H15.3125C6.85234 3.0625 0 9.91484 0 18.375V41.3438C0 43.8799 2.05762 45.9375 4.59375 45.9375H16.8438C19.3799 45.9375 21.4375 43.8799 21.4375 41.3438V29.0938C21.4375 26.5576 19.3799 24.5 16.8438 24.5Z" fill="#1565D8"/>
</svg>
