<svg width="80" height="80" viewBox="0 0 80 80" fill="none" xmlns="http://www.w3.org/2000/svg">
<path d="M72.5 40H60V30C60 24.4844 64.4844 20 70 20H71.25C73.3281 20 75 18.3281 75 16.25V8.75C75 6.67187 73.3281 5 71.25 5H70C56.1875 5 45 16.1875 45 30V67.5C45 71.6406 48.3594 75 52.5 75H72.5C76.6406 75 80 71.6406 80 67.5V47.5C80 43.3594 76.6406 40 72.5 40ZM27.5 40H15V30C15 24.4844 19.4844 20 25 20H26.25C28.3281 20 30 18.3281 30 16.25V8.75C30 6.67187 28.3281 5 26.25 5H25C11.1875 5 0 16.1875 0 30V67.5C0 71.6406 3.35938 75 7.5 75H27.5C31.6406 75 35 71.6406 35 67.5V47.5C35 43.3594 31.6406 40 27.5 40Z" fill="#1565D8"/>
</svg>
