<svg width="240" height="234" viewBox="0 0 240 234" fill="none" xmlns="http://www.w3.org/2000/svg">
<g clip-path="url(#clip0)">
<path d="M42.5 0H197.5C221 0 240 19 240 42.5V191.5C240 215 221 234 197.5 234H42.5C19 234 0 215 0 191.5V42.5C0 19 19 0 42.5 0Z" fill="#470137"/>
<path d="M126.2 61.5L96.2002 111L128.2 163.5C128.4 163.9 128.5 164.3 128.4 164.7C128.3 165.1 127.9 164.8 127.3 164.9H104.4C102.8 164.9 101.7 164.8 101 163.8C98.9002 159.6 96.7002 155.5 94.6002 151.3C92.5002 147.2 90.2002 143 87.8002 138.7C85.4002 134.4 83.0002 130.1 80.6002 125.7H80.4002C78.3002 130 76.0002 134.3 73.7002 138.6C71.4002 142.9 69.1002 147.2 66.9002 151.4C64.6002 155.6 62.3002 159.9 60.0002 164C59.6002 165 58.8002 165.1 57.7002 165.1H35.7002C35.3002 165.1 35.0002 165.3 35.0002 164.8C34.9002 164.4 35.0002 164 35.2002 163.7L66.3002 112.7L36.0002 61.4C35.7002 61 35.6002 60.6 35.8002 60.4C36.0002 60.1 36.4002 60 36.8002 60H59.5002C60.0002 60 60.5002 60.1 60.9002 60.2C61.3002 60.4 61.6002 60.7 61.9002 61.1C63.8002 65.4 66.0002 69.7 68.3002 74C70.7002 78.3 73.0002 82.5 75.5002 86.7C77.9002 90.9 80.1002 95.1 82.2002 99.4H82.4002C84.5002 95 86.7002 90.7 88.9002 86.5C91.1002 82.3 93.4002 78.1 95.7002 73.9C98.0002 69.7 100.2 65.4 102.4 61.3C102.5 60.9 102.7 60.5 103 60.3C103.4 60.1 103.8 60 104.3 60.1H125.4C125.9 60 126.4 60.3 126.5 60.8C126.6 60.9 126.4 61.3 126.2 61.5V61.5Z" fill="#FF61F6"/>
<path d="M172.401 167C165.001 167.1 157.601 165.6 150.901 162.5C144.601 159.6 139.401 154.8 135.801 148.9C132.101 142.8 130.301 135.2 130.301 126.1C130.201 118.7 132.101 111.4 135.801 105C139.601 98.5002 145.101 93.1002 151.701 89.5002C158.701 85.6002 167.101 83.7002 177.001 83.7002C177.501 83.7002 178.201 83.7002 179.101 83.8002C180.001 83.9002 181.001 83.9002 182.201 84.0002V52.4002C182.201 51.7002 182.501 51.3002 183.201 51.3002H203.501C204.001 51.2002 204.401 51.6002 204.501 52.0002V147.4C204.501 149.2 204.601 151.2 204.701 153.4C204.901 155.5 205.001 157.5 205.101 159.2C205.101 159.9 204.801 160.5 204.101 160.8C198.901 163 193.401 164.6 187.801 165.6C182.701 166.5 177.601 167 172.401 167V167ZM182.201 147V103C181.301 102.8 180.401 102.6 179.501 102.5C178.401 102.4 177.301 102.3 176.201 102.3C172.301 102.3 168.401 103.1 164.901 104.9C161.501 106.6 158.601 109.1 156.401 112.3C154.201 115.5 153.101 119.8 153.101 125C153.001 128.5 153.601 132 154.801 135.3C155.801 138 157.301 140.4 159.301 142.4C161.201 144.2 163.501 145.6 166.101 146.4C168.801 147.3 171.601 147.7 174.401 147.7C175.901 147.7 177.301 147.6 178.601 147.5C179.901 147.6 181.001 147.4 182.201 147V147Z" fill="#FF61F6"/>
</g>
<defs>
<clipPath id="clip0">
<rect width="240" height="234" fill="white"/>
</clipPath>
</defs>
</svg>
