<svg width="240" height="234" viewBox="0 0 240 234" fill="none" xmlns="http://www.w3.org/2000/svg">
<g clip-path="url(#clip0)">
<path d="M42.5 0H197.5C221 0 240 19 240 42.5V191.5C240 215 221 234 197.5 234H42.5C19 234 0 215 0 191.5V42.5C0 19 19 0 42.5 0Z" fill="#330000"/>
<path d="M116.299 140.4H79.0994L71.4994 163.9C71.2994 164.8 70.4994 165.4 69.5994 165.3H50.7994C49.6994 165.3 49.3994 164.7 49.6994 163.5L81.8994 70.7999C82.1994 69.7999 82.4994 68.6999 82.8994 67.4999C83.2994 65.3999 83.4994 63.1999 83.4994 60.9999C83.3994 60.4999 83.7994 59.9999 84.2994 59.8999H110.199C110.999 59.8999 111.399 60.1999 111.499 60.6999L147.999 163.7C148.299 164.8 147.999 165.3 146.999 165.3H126.099C125.399 165.4 124.699 164.9 124.499 164.2L116.299 140.4ZM84.8994 120.1H110.299C109.699 118 108.899 115.5 107.999 112.9C107.099 110.2 106.199 107.3 105.299 104.3C104.299 101.2 103.399 98.1999 102.399 95.0999C101.399 91.9999 100.499 89.0999 99.6994 86.1999C98.8994 83.3999 98.1994 80.7999 97.4994 78.3999H97.2994C96.3994 82.6999 95.2994 86.9999 93.8994 91.2999C92.3994 96.0999 90.8994 101.1 89.2994 106.1C87.8994 111.2 86.3994 115.9 84.8994 120.1V120.1Z" fill="#FF9A00"/>
<path d="M169.8 76.9999C166.5 77.0999 163.3 75.7999 160.9 73.4999C158.6 70.9999 157.4 67.6999 157.5 64.2999C157.4 60.8999 158.7 57.6999 161.1 55.3999C163.5 53.0999 166.7 51.8999 170 51.8999C173.9 51.8999 176.9 53.0999 179.1 55.3999C181.3 57.7999 182.5 60.9999 182.4 64.2999C182.5 67.6999 181.3 70.9999 178.9 73.4999C176.6 75.8999 173.2 77.1999 169.8 76.9999ZM158.6 163.8V86.7999C158.6 85.7999 159 85.3999 159.9 85.3999H179.7C180.6 85.3999 181 85.8999 181 86.7999V163.8C181 164.9 180.6 165.4 179.7 165.4H160.1C159.1 165.4 158.6 164.8 158.6 163.8V163.8Z" fill="#FF9A00"/>
</g>
<defs>
<clipPath id="clip0">
<rect width="240" height="234" fill="white"/>
</clipPath>
</defs>
</svg>
