<svg width="256" height="256" viewBox="0 0 256 256" fill="none" xmlns="http://www.w3.org/2000/svg">
<path fill-rule="evenodd" clip-rule="evenodd" d="M32.0213 213.984L32 95.4027C32 42.7093 74.9813 0 128 0C181.019 0 224 42.7147 224 95.4027C224 148.091 181.92 190.805 128.896 190.805C112.048 190.805 98.3893 177.232 98.3893 160.491C98.3893 143.744 112.048 130.176 128.896 130.176C148.224 130.176 162.992 114.603 162.992 95.4027C162.992 76.1973 147.323 60.6292 128 60.6292C108.677 60.6292 93.0133 76.1975 93.0133 95.3975L93.0293 225.685C93.0346 255.061 60.8 263.088 43.1893 249.76C45.8229 247.967 47.9784 245.557 49.4684 242.741C50.9584 239.924 51.7378 236.786 51.7386 233.6C51.7386 222.773 42.912 213.995 32.0213 213.984V213.984ZM128.896 180.101C139.797 180.101 148.635 171.323 148.635 160.491C148.635 149.653 139.797 140.875 128.901 140.875C117.995 140.875 109.157 149.653 109.157 160.491C109.157 171.317 117.995 180.101 128.896 180.101Z" fill="url(#paint0_linear)"/>
<defs>
<linearGradient id="paint0_linear" x1="60.4194" y1="39.5752" x2="193.563" y2="205.168" gradientUnits="userSpaceOnUse">
<stop stop-color="#C36AD5"/>
<stop offset="0.126866" stop-color="#AE5CCC"/>
<stop offset="0.565942" stop-color="#7234B1"/>
<stop offset="1" stop-color="#54219F"/>
</linearGradient>
</defs>
</svg>
