<svg width="29" height="29" viewBox="0 0 29 29" fill="none" xmlns="http://www.w3.org/2000/svg">
<path d="M26.2812 14.5H21.75V10.875C21.75 8.87559 23.3756 7.25 25.375 7.25H25.8281C26.5814 7.25 27.1875 6.64395 27.1875 5.89062V3.17188C27.1875 2.41855 26.5814 1.8125 25.8281 1.8125H25.375C20.368 1.8125 16.3125 5.86797 16.3125 10.875V24.4688C16.3125 25.9697 17.5303 27.1875 19.0312 27.1875H26.2812C27.7822 27.1875 29 25.9697 29 24.4688V17.2188C29 15.7178 27.7822 14.5 26.2812 14.5ZM9.96875 14.5H5.4375V10.875C5.4375 8.87559 7.06309 7.25 9.0625 7.25H9.51562C10.2689 7.25 10.875 6.64395 10.875 5.89062V3.17188C10.875 2.41855 10.2689 1.8125 9.51562 1.8125H9.0625C4.05547 1.8125 0 5.86797 0 10.875V24.4688C0 25.9697 1.21777 27.1875 2.71875 27.1875H9.96875C11.4697 27.1875 12.6875 25.9697 12.6875 24.4688V17.2188C12.6875 15.7178 11.4697 14.5 9.96875 14.5Z" fill="white"/>
</svg>
