<svg fill="none" height="420" viewBox="0 0 1390 420" width="1390" xmlns="http://www.w3.org/2000/svg"><path d="m0 0h1390v420h-1390z" fill="#ffe81e"/><path d="m59.6279 88.1484h178.883v71.7394h-178.883z" fill="#000"/><path d="m98.7867 126.831c0 1.036-.3741 1.852-1.1224 2.449-.7429.596-1.7789.895-3.1079.895-1.2244 0-2.3075-.231-3.2493-.691v-2.26c.7744.345 1.4284.588 1.9621.729.5389.142 1.0308.212 1.4755.212.5337 0 .9418-.102 1.2244-.306.2878-.204.4316-.507.4316-.91 0-.225-.0627-.424-.1883-.597-.1256-.178-.3113-.348-.5573-.51-.2406-.162-.7351-.421-1.4833-.777-.7011-.329-1.227-.646-1.5776-.949-.3505-.304-.6305-.657-.8397-1.06-.2093-.403-.314-.874-.314-1.413 0-1.015.3427-1.813 1.0282-2.394.6906-.58 1.6429-.871 2.8568-.871.5965 0 1.1642.071 1.7031.212.5442.141 1.1119.34 1.7031.597l-.7848 1.891c-.6122-.251-1.1197-.426-1.5226-.526-.3977-.099-.7901-.149-1.1773-.149-.4604 0-.8136.107-1.0595.322s-.3689.494-.3689.84c0 .214.0497.403.1491.565.0994.157.2564.311.4709.463.2198.146.7352.413 1.5462.8 1.0726.513 1.8077 1.029 2.2054 1.547.3976.512.5965 1.143.5965 1.891zm5.5253-4.05c-.508 0-.905.162-1.193.487-.288.319-.453.774-.494 1.366h3.359c-.011-.592-.165-1.047-.463-1.366-.299-.325-.701-.487-1.209-.487zm.337 7.394c-1.412 0-2.516-.39-3.312-1.17-.795-.779-1.193-1.884-1.193-3.312 0-1.47.367-2.606 1.099-3.406.738-.806 1.756-1.209 3.053-1.209 1.24 0 2.206.353 2.896 1.06.691.706 1.036 1.682 1.036 2.927v1.162h-5.658c.026.68.227 1.211.604 1.593s.905.573 1.585.573c.529 0 1.029-.055 1.499-.165.471-.11.963-.285 1.476-.526v1.853c-.419.209-.866.363-1.342.463-.476.104-1.057.157-1.743.157zm7.92-.157h-2.394v-12.213h2.394zm6.153-7.237c-.508 0-.905.162-1.193.487-.288.319-.453.774-.495 1.366h3.359c-.01-.592-.164-1.047-.463-1.366-.298-.325-.701-.487-1.208-.487zm.337 7.394c-1.412 0-2.516-.39-3.312-1.17-.795-.779-1.193-1.884-1.193-3.312 0-1.47.366-2.606 1.099-3.406.738-.806 1.755-1.209 3.053-1.209 1.24 0 2.205.353 2.896 1.06.691.706 1.036 1.682 1.036 2.927v1.162h-5.659c.027.68.228 1.211.605 1.593.376.382.905.573 1.585.573.529 0 1.028-.055 1.499-.165s.963-.285 1.476-.526v1.853c-.419.209-.866.363-1.342.463-.477.104-1.057.157-1.743.157zm9.089 0c-2.731 0-4.097-1.5-4.097-4.498 0-1.491.371-2.629 1.114-3.414.743-.79 1.808-1.185 3.195-1.185 1.015 0 1.925.199 2.731.597l-.706 1.852c-.377-.152-.728-.275-1.052-.369-.325-.099-.649-.149-.973-.149-1.246 0-1.868.884-1.868 2.653 0 1.716.622 2.574 1.868 2.574.46 0 .887-.06 1.279-.181.392-.125.785-.319 1.177-.58v2.048c-.387.246-.779.416-1.177.51-.392.094-.89.142-1.491.142zm8.405-1.908c.419 0 .921-.091 1.507-.274v1.781c-.596.267-1.329.401-2.197.401-.958 0-1.656-.241-2.096-.723-.434-.486-.651-1.213-.651-2.181v-4.231h-1.146v-1.012l1.319-.801.69-1.852h1.531v1.868h2.456v1.797h-2.456v4.231c0 .34.094.591.282.753.194.162.448.243.761.243zm13.037 1.751-.463-1.193h-.063c-.403.507-.819.86-1.248 1.059-.424.194-.978.291-1.664.291-.842 0-1.507-.241-1.993-.723-.482-.481-.722-1.166-.722-2.056 0-.931.324-1.617.973-2.056.654-.445 1.637-.691 2.951-.738l1.522-.047v-.385c0-.889-.455-1.334-1.365-1.334-.701 0-1.525.212-2.472.636l-.793-1.617c1.01-.528 2.129-.793 3.359-.793 1.177 0 2.08.257 2.708.77.628.512.941 1.292.941 2.338v5.848zm-.707-4.066-.926.031c-.696.021-1.214.147-1.554.377s-.51.581-.51 1.052c0 .675.387 1.012 1.162 1.012.554 0 .996-.159 1.326-.478.335-.32.502-.743.502-1.272zm8.414 4.223c-2.731 0-4.097-1.5-4.097-4.498 0-1.491.372-2.629 1.115-3.414.743-.79 1.807-1.185 3.194-1.185 1.015 0 1.925.199 2.731.597l-.706 1.852c-.377-.152-.728-.275-1.052-.369-.324-.099-.649-.149-.973-.149-1.245 0-1.868.884-1.868 2.653 0 1.716.623 2.574 1.868 2.574.46 0 .887-.06 1.279-.181.393-.125.785-.319 1.177-.58v2.048c-.387.246-.779.416-1.177.51-.392.094-.889.142-1.491.142zm8.272 0c-2.731 0-4.097-1.5-4.097-4.498 0-1.491.372-2.629 1.115-3.414.743-.79 1.808-1.185 3.194-1.185 1.015 0 1.926.199 2.731.597l-.706 1.852c-.377-.152-.727-.275-1.052-.369-.324-.099-.648-.149-.973-.149-1.245 0-1.868.884-1.868 2.653 0 1.716.623 2.574 1.868 2.574.461 0 .887-.06 1.279-.181.393-.125.785-.319 1.178-.58v2.048c-.387.246-.78.416-1.178.51-.392.094-.889.142-1.491.142zm6.616-4.56c0 .868.142 1.525.424 1.97.288.444.754.667 1.397.667.639 0 1.097-.22 1.374-.66.282-.444.424-1.104.424-1.977 0-.869-.142-1.52-.424-1.955-.283-.434-.746-.651-1.389-.651-.639 0-1.099.217-1.382.651-.282.429-.424 1.081-.424 1.955zm6.067 0c0 1.428-.376 2.545-1.13 3.351-.753.806-1.802 1.209-3.147 1.209-.842 0-1.585-.184-2.229-.55-.644-.371-1.138-.902-1.483-1.593-.346-.691-.518-1.497-.518-2.417 0-1.434.374-2.549 1.122-3.344s1.8-1.193 3.155-1.193c.842 0 1.585.183 2.229.55.644.366 1.138.892 1.483 1.577.346.686.518 1.489.518 2.41zm8.194 4.403-.322-1.123h-.125c-.257.408-.62.725-1.091.95-.471.22-1.007.33-1.609.33-1.031 0-1.808-.275-2.331-.825-.523-.554-.785-1.349-.785-2.385v-5.722h2.394v5.125c0 .633.112 1.109.337 1.428.225.314.584.471 1.076.471.669 0 1.153-.222 1.452-.667.298-.45.447-1.193.447-2.229v-4.128h2.394v8.775zm12.448 0h-2.394v-5.125c0-.634-.112-1.107-.337-1.421-.225-.319-.584-.479-1.076-.479-.669 0-1.153.225-1.452.675-.298.445-.447 1.185-.447 2.221v4.129h-2.394v-8.775h1.829l.322 1.122h.133c.267-.423.633-.743 1.099-.957.471-.22 1.004-.33 1.601-.33 1.02 0 1.795.277 2.323.832.529.55.793 1.345.793 2.386zm6.161-1.751c.418 0 .921-.091 1.507-.274v1.781c-.597.267-1.329.401-2.198.401-.957 0-1.656-.241-2.095-.723-.435-.486-.652-1.213-.652-2.181v-4.231h-1.146v-1.012l1.319-.801.691-1.852h1.53v1.868h2.457v1.797h-2.457v4.231c0 .34.094.591.283.753.193.162.447.243.761.243z" fill="#fff"/><path d="m719.258 269.828h115.528v71.7394h-115.528z" fill="#000"/><path d="m756.24 308.511c0 1.036-.374 1.852-1.123 2.449-.743.596-1.779.894-3.108.894-1.224 0-2.307-.23-3.249-.69v-2.261c.775.346 1.429.589 1.962.73.539.141 1.031.212 1.476.212.534 0 .942-.102 1.224-.306.288-.204.432-.508.432-.91 0-.225-.063-.424-.188-.597-.126-.178-.312-.348-.558-.51-.24-.162-.735-.421-1.483-.777-.701-.33-1.227-.646-1.578-.95-.35-.303-.63-.656-.839-1.059-.21-.403-.314-.874-.314-1.413 0-1.015.342-1.813 1.028-2.394.69-.581 1.643-.871 2.857-.871.596 0 1.164.071 1.703.212.544.141 1.112.34 1.703.596l-.785 1.892c-.612-.251-1.12-.427-1.523-.526-.397-.099-.79-.149-1.177-.149-.46 0-.813.107-1.059.322-.246.214-.369.494-.369.839 0 .215.049.403.149.566.099.157.256.311.471.463.22.146.735.413 1.546.8 1.073.513 1.808 1.028 2.205 1.546.398.513.597 1.144.597 1.892zm8.107 3.186-.322-1.122h-.125c-.256.408-.62.725-1.091.95-.471.219-1.007.329-1.609.329-1.031 0-1.808-.274-2.331-.824-.523-.554-.785-1.35-.785-2.386v-5.721h2.394v5.125c0 .633.112 1.109.337 1.428.225.314.584.471 1.076.471.669 0 1.153-.222 1.452-.667.298-.45.447-1.193.447-2.229v-4.128h2.394v8.774zm9.23-8.939c1.036 0 1.847.405 2.433 1.216.586.806.879 1.913.879 3.32 0 1.45-.303 2.572-.91 3.367-.602.796-1.424 1.193-2.465 1.193-1.03 0-1.839-.374-2.425-1.122h-.165l-.4.965h-1.829v-12.212h2.394v2.841c0 .361-.031.939-.094 1.735h.094c.56-.869 1.389-1.303 2.488-1.303zm-.769 1.915c-.591 0-1.023.183-1.295.549-.272.361-.413.96-.424 1.798v.259c0 .941.139 1.616.416 2.024.283.409.727.613 1.334.613.492 0 .882-.225 1.17-.675.293-.456.439-1.115.439-1.978s-.146-1.51-.439-1.939c-.293-.434-.694-.651-1.201-.651zm13.915 7.024h-2.394v-5.125c0-.633-.107-1.106-.321-1.42-.21-.32-.542-.479-.997-.479-.612 0-1.057.225-1.334.675-.278.45-.416 1.19-.416 2.221v4.128h-2.394v-8.774h1.829l.321 1.122h.134c.235-.403.575-.717 1.02-.942.445-.23.955-.345 1.531-.345 1.313 0 2.202.429 2.668 1.287h.212c.235-.408.581-.725 1.036-.95.46-.225.978-.337 1.554-.337.994 0 1.745.256 2.252.769.513.508.77 1.324.77 2.449v5.721h-2.402v-5.125c0-.633-.107-1.106-.322-1.42-.209-.32-.541-.479-.997-.479-.586 0-1.025.209-1.318.628-.288.418-.432 1.083-.432 1.993zm7.833-11.043c0-.779.434-1.169 1.303-1.169.868 0 1.303.39 1.303 1.169 0 .372-.11.662-.33.872-.214.204-.539.306-.973.306-.869 0-1.303-.393-1.303-1.178zm2.496 11.043h-2.394v-8.774h2.394zm6.216-1.75c.418 0 .921-.092 1.507-.275v1.782c-.597.267-1.329.4-2.198.4-.957 0-1.656-.24-2.095-.722-.435-.486-.652-1.214-.652-2.182v-4.23h-1.146v-1.012l1.319-.801.69-1.852h1.531v1.868h2.457v1.797h-2.457v4.23c0 .34.094.592.282.754.194.162.448.243.762.243z" fill="#fff"/><path d="m239 275h135v72h-135z" fill="#000"/><path d="m280.318 307.386c-.916 0-1.625.345-2.127 1.036-.502.685-.753 1.643-.753 2.872 0 2.559.96 3.838 2.88 3.838.806 0 1.782-.201 2.927-.604v2.04c-.941.393-1.993.589-3.155.589-1.669 0-2.945-.505-3.83-1.515-.884-1.015-1.326-2.469-1.326-4.364 0-1.192.217-2.236.651-3.131.435-.9 1.057-1.588 1.868-2.064.817-.482 1.771-.722 2.865-.722 1.114 0 2.234.269 3.359.808l-.785 1.978c-.429-.204-.86-.382-1.295-.534-.434-.151-.86-.227-1.279-.227zm7.095 5.211c0 .869.141 1.525.424 1.97.288.445.753.667 1.397.667.638 0 1.096-.22 1.373-.659.283-.445.424-1.104.424-1.978 0-.869-.141-1.52-.424-1.954-.282-.435-.745-.652-1.389-.652-.638 0-1.099.217-1.381.652-.283.429-.424 1.08-.424 1.954zm6.067 0c0 1.428-.377 2.546-1.13 3.351-.754.806-1.803 1.209-3.148 1.209-.842 0-1.585-.183-2.228-.549-.644-.372-1.139-.903-1.484-1.594-.345-.69-.518-1.496-.518-2.417 0-1.434.374-2.548 1.122-3.343.749-.796 1.8-1.193 3.156-1.193.842 0 1.585.183 2.229.549.643.366 1.138.892 1.483 1.578.345.685.518 1.488.518 2.409zm10.077 4.403h-2.393v-5.125c0-.633-.113-1.107-.338-1.421-.225-.319-.583-.478-1.075-.478-.67 0-1.154.225-1.452.675-.298.444-.448 1.185-.448 2.221v4.128h-2.393v-8.775h1.828l.322 1.123h.134c.266-.424.633-.743 1.098-.958.471-.22 1.005-.329 1.601-.329 1.021 0 1.795.277 2.324.832.528.549.792 1.344.792 2.385zm7.315-6.977h-2.072v6.977h-2.394v-6.977h-1.318v-1.154l1.318-.644v-.643c0-1 .246-1.729.738-2.19.492-.46 1.279-.691 2.362-.691.827 0 1.562.123 2.206.369l-.612 1.758c-.482-.151-.926-.227-1.335-.227-.34 0-.586.102-.737.306-.152.199-.228.455-.228.769v.549h2.072zm1.272-4.066c0-.779.434-1.169 1.302-1.169.869 0 1.303.39 1.303 1.169 0 .372-.11.662-.329.871-.215.204-.539.306-.974.306-.868 0-1.302-.392-1.302-1.177zm2.495 11.043h-2.393v-8.775h2.393zm7.409-8.939c.325 0 .594.023.809.07l-.181 2.245c-.193-.052-.429-.079-.706-.079-.764 0-1.361.197-1.79.589-.423.392-.635.942-.635 1.648v4.466h-2.394v-8.775h1.813l.353 1.476h.118c.272-.492.638-.887 1.099-1.185.465-.304.97-.455 1.514-.455zm10.258 8.939h-2.394v-5.125c0-.633-.107-1.107-.321-1.421-.21-.319-.542-.478-.997-.478-.612 0-1.057.225-1.334.675-.278.45-.416 1.19-.416 2.221v4.128h-2.394v-8.775h1.829l.321 1.123h.134c.235-.403.575-.717 1.02-.942.445-.23.955-.345 1.531-.345 1.313 0 2.202.429 2.668 1.287h.212c.235-.408.581-.725 1.036-.95.46-.225.978-.337 1.554-.337.994 0 1.745.256 2.252.769.513.507.77 1.324.77 2.448v5.722h-2.402v-5.125c0-.633-.107-1.107-.322-1.421-.209-.319-.541-.478-.997-.478-.586 0-1.025.209-1.318.628-.288.418-.432 1.083-.432 1.993z" fill="#fff"/><path d="m60 275h134v72h-134z" fill="#000"/><path d="m104.217 313.814c0 1.036-.374 1.852-1.122 2.448-.743.597-1.779.895-3.108.895-1.2243 0-2.3074-.23-3.2492-.691v-2.26c.7743.345 1.4284.589 1.9621.73.5389.141 1.0307.212 1.4751.212.534 0 .942-.102 1.225-.306.288-.204.431-.508.431-.911 0-.225-.062-.424-.188-.596-.126-.178-.311-.348-.557-.51-.241-.163-.735-.422-1.4836-.777-.7011-.33-1.2269-.647-1.5775-.95-.3506-.304-.6305-.657-.8398-1.06-.2093-.402-.3139-.873-.3139-1.412 0-1.015.3427-1.813 1.0281-2.394.6907-.581 1.643-.871 2.8567-.871.597 0 1.164.07 1.703.212.544.141 1.112.34 1.703.596l-.784 1.892c-.613-.252-1.12-.427-1.523-.526-.398-.1-.79-.149-1.177-.149-.461 0-.8139.107-1.0599.321-.2459.215-.3688.495-.3688.84 0 .215.0497.403.1491.565.0994.157.2564.312.4709.463.2197.147.7347.414 1.5457.801 1.073.513 1.808 1.028 2.206 1.546.398.513.596 1.143.596 1.892zm8.108 3.186-.322-1.122h-.126c-.256.408-.62.724-1.09.949-.471.22-1.008.33-1.609.33-1.031 0-1.808-.275-2.331-.824-.524-.555-.785-1.35-.785-2.386v-5.722h2.394v5.125c0 .634.112 1.11.337 1.429.225.314.583.471 1.075.471.67 0 1.154-.223 1.452-.667.298-.45.448-1.193.448-2.229v-4.129h2.393v8.775zm7.911.157c-2.731 0-4.097-1.499-4.097-4.497 0-1.491.372-2.629 1.115-3.414.743-.79 1.807-1.185 3.194-1.185 1.015 0 1.925.198 2.731.596l-.706 1.852c-.377-.151-.727-.274-1.052-.369-.324-.099-.649-.149-.973-.149-1.245 0-1.868.885-1.868 2.653 0 1.716.623 2.574 1.868 2.574.46 0 .887-.06 1.279-.18.393-.126.785-.319 1.178-.581v2.049c-.388.245-.78.416-1.178.51-.392.094-.889.141-1.491.141zm8.272 0c-2.731 0-4.097-1.499-4.097-4.497 0-1.491.372-2.629 1.115-3.414.743-.79 1.808-1.185 3.194-1.185 1.015 0 1.926.198 2.732.596l-.707 1.852c-.377-.151-.727-.274-1.052-.369-.324-.099-.648-.149-.973-.149-1.245 0-1.868.885-1.868 2.653 0 1.716.623 2.574 1.868 2.574.461 0 .887-.06 1.28-.18.392-.126.784-.319 1.177-.581v2.049c-.387.245-.78.416-1.177.51-.393.094-.89.141-1.492.141zm8.343-7.393c-.507 0-.905.162-1.193.486-.287.319-.452.775-.494 1.366h3.359c-.01-.591-.165-1.047-.463-1.366-.298-.324-.701-.486-1.209-.486zm.338 7.393c-1.413 0-2.517-.39-3.312-1.169-.796-.78-1.193-1.884-1.193-3.313 0-1.47.366-2.605 1.098-3.406.738-.806 1.756-1.208 3.054-1.208 1.24 0 2.205.353 2.896 1.059.69.707 1.036 1.682 1.036 2.928v1.161h-5.659c.026.68.227 1.211.604 1.593s.905.573 1.586.573c.528 0 1.028-.055 1.499-.164.471-.11.962-.286 1.475-.526v1.852c-.418.209-.866.364-1.342.463-.476.105-1.057.157-1.742.157zm11.647-2.763c0 .9-.314 1.586-.942 2.057-.623.471-1.557.706-2.802.706-.638 0-1.182-.045-1.632-.133-.45-.084-.872-.21-1.264-.377v-1.978c.445.209.944.385 1.499.526.56.141 1.052.212 1.476.212.868 0 1.302-.251 1.302-.754 0-.188-.057-.34-.172-.455-.115-.12-.314-.254-.597-.4-.282-.152-.659-.327-1.13-.526-.675-.283-1.172-.544-1.491-.785-.314-.241-.544-.515-.691-.824-.141-.314-.212-.698-.212-1.154 0-.779.301-1.381.903-1.805.607-.429 1.465-.643 2.574-.643 1.057 0 2.085.23 3.085.69l-.722 1.727c-.44-.188-.851-.343-1.233-.463s-.771-.181-1.169-.181c-.706 0-1.06.191-1.06.573 0 .215.113.401.338.558.23.157.73.389 1.499.698.685.277 1.188.536 1.507.777s.555.518.706.832c.152.314.228.688.228 1.122zm7.99 0c0 .9-.314 1.586-.942 2.057-.623.471-1.557.706-2.802.706-.638 0-1.183-.045-1.633-.133-.45-.084-.871-.21-1.263-.377v-1.978c.445.209.944.385 1.499.526.56.141 1.052.212 1.475.212.869 0 1.303-.251 1.303-.754 0-.188-.057-.34-.172-.455-.116-.12-.314-.254-.597-.4-.283-.152-.659-.327-1.13-.526-.675-.283-1.172-.544-1.491-.785-.314-.241-.545-.515-.691-.824-.141-.314-.212-.698-.212-1.154 0-.779.301-1.381.903-1.805.607-.429 1.465-.643 2.574-.643 1.057 0 2.085.23 3.084.69l-.722 1.727c-.439-.188-.85-.343-1.232-.463s-.772-.181-1.169-.181c-.707 0-1.06.191-1.06.573 0 .215.113.401.338.558.23.157.73.389 1.499.698.685.277 1.187.536 1.507.777.319.241.554.518.706.832s.228.688.228 1.122z" fill="#fff"/><path d="m586.027 88.1484h137.889v71.7394h-137.889z" fill="#000"/><path d="m611.689 126.831c0 1.036-.374 1.852-1.122 2.449-.743.596-1.779.895-3.108.895-1.225 0-2.308-.231-3.25-.691v-2.26c.775.345 1.429.588 1.963.729.538.142 1.03.212 1.475.212.534 0 .942-.102 1.224-.306.288-.204.432-.507.432-.91 0-.225-.063-.424-.188-.597-.126-.178-.312-.348-.558-.51-.24-.162-.735-.421-1.483-.777-.701-.329-1.227-.646-1.577-.949-.351-.304-.631-.657-.84-1.06s-.314-.874-.314-1.413c0-1.015.343-1.813 1.028-2.394.691-.58 1.643-.871 2.857-.871.596 0 1.164.071 1.703.212.544.141 1.112.34 1.703.597l-.785 1.891c-.612-.251-1.119-.426-1.522-.526-.398-.099-.79-.149-1.178-.149-.46 0-.813.107-1.059.322s-.369.494-.369.84c0 .214.05.403.149.565.099.157.256.311.471.463.22.146.735.413 1.546.8 1.073.513 1.808 1.029 2.206 1.547.397.512.596 1.143.596 1.891zm5.455 3.344c-2.732 0-4.097-1.5-4.097-4.498 0-1.491.371-2.629 1.114-3.414.743-.79 1.808-1.185 3.195-1.185 1.015 0 1.925.199 2.731.597l-.706 1.852c-.377-.152-.728-.275-1.052-.369-.325-.099-.649-.149-.973-.149-1.246 0-1.868.884-1.868 2.653 0 1.716.622 2.574 1.868 2.574.46 0 .886-.06 1.279-.181.392-.125.785-.319 1.177-.58v2.048c-.387.246-.779.416-1.177.51-.393.094-.89.142-1.491.142zm10.281-.157-.463-1.193h-.063c-.403.507-.819.86-1.248 1.059-.423.194-.978.291-1.663.291-.843 0-1.507-.241-1.994-.723-.481-.481-.722-1.166-.722-2.056 0-.931.324-1.617.973-2.056.654-.445 1.638-.691 2.951-.738l1.523-.047v-.385c0-.889-.455-1.334-1.366-1.334-.701 0-1.525.212-2.472.636l-.793-1.617c1.01-.528 2.13-.793 3.359-.793 1.178 0 2.08.257 2.708.77.628.512.942 1.292.942 2.338v5.848zm-.706-4.066-.926.031c-.696.021-1.214.147-1.554.377s-.51.581-.51 1.052c0 .675.387 1.012 1.161 1.012.555 0 .997-.159 1.327-.478.334-.32.502-.743.502-1.272zm12.95 4.066h-2.394v-5.125c0-.634-.112-1.107-.337-1.421-.225-.319-.584-.479-1.076-.479-.669 0-1.153.225-1.452.675-.298.445-.447 1.185-.447 2.221v4.129h-2.394v-8.775h1.829l.322 1.122h.133c.267-.423.633-.743 1.099-.957.471-.22 1.004-.33 1.601-.33 1.02 0 1.795.277 2.323.832.529.55.793 1.345.793 2.386zm11.702-9.615c-.916 0-1.625.346-2.127 1.036-.502.686-.754 1.643-.754 2.873 0 2.558.961 3.838 2.881 3.838.806 0 1.781-.202 2.927-.605v2.041c-.941.392-1.993.589-3.155.589-1.669 0-2.946-.505-3.83-1.515-.884-1.015-1.326-2.47-1.326-4.364 0-1.193.217-2.237.651-3.131.435-.9 1.057-1.588 1.868-2.065.816-.481 1.771-.722 2.865-.722 1.114 0 2.234.27 3.359.809l-.785 1.978c-.429-.205-.861-.382-1.295-.534s-.861-.228-1.279-.228zm13.287 9.615h-2.393v-5.125c0-1.267-.471-1.9-1.413-1.9-.67 0-1.154.228-1.452.683s-.448 1.193-.448 2.213v4.129h-2.393v-12.213h2.393v2.488c0 .194-.018.649-.054 1.366l-.055.706h.125c.534-.858 1.381-1.287 2.543-1.287 1.031 0 1.813.277 2.347.832.533.555.8 1.35.8 2.386zm6.099-7.237c-.508 0-.906.162-1.193.487-.288.319-.453.774-.495 1.366h3.359c-.01-.592-.165-1.047-.463-1.366-.298-.325-.701-.487-1.208-.487zm.337 7.394c-1.413 0-2.517-.39-3.312-1.17-.795-.779-1.193-1.884-1.193-3.312 0-1.47.366-2.606 1.099-3.406.738-.806 1.755-1.209 3.053-1.209 1.24 0 2.205.353 2.896 1.06.691.706 1.036 1.682 1.036 2.927v1.162h-5.659c.026.68.228 1.211.605 1.593.376.382.905.573 1.585.573.528 0 1.028-.055 1.499-.165s.963-.285 1.475-.526v1.853c-.418.209-.865.363-1.342.463-.476.104-1.057.157-1.742.157zm9.159-1.876c.607 0 1.052-.173 1.334-.518.283-.351.437-.96.463-1.829v-.29c0-.942-.146-1.617-.439-2.025-.288-.408-.753-.612-1.397-.612-1.125 0-1.687.884-1.687 2.652 0 .879.138 1.536.415 1.97.283.435.72.652 1.311.652zm-.855 1.876c-1.036 0-1.847-.398-2.433-1.193-.586-.801-.879-1.913-.879-3.336 0-1.434.298-2.553.894-3.359.602-.806 1.424-1.209 2.465-1.209.554 0 1.038.105 1.452.314.413.209.777.534 1.091.973h.062l.212-1.122h2.025v12.636h-2.401v-3.681c0-.319.034-.759.102-1.318h-.102c-.257.423-.597.745-1.021.965-.423.22-.913.33-1.467.33zm13.609-.157-.322-1.123h-.125c-.257.408-.62.725-1.091.95-.471.22-1.008.33-1.609.33-1.031 0-1.808-.275-2.331-.825-.524-.554-.785-1.349-.785-2.385v-5.722h2.394v5.125c0 .633.112 1.109.337 1.428.225.314.584.471 1.075.471.67 0 1.154-.222 1.452-.667.299-.45.448-1.193.448-2.229v-4.128h2.393v8.775zm7.982-7.237c-.508 0-.905.162-1.193.487-.288.319-.453.774-.495 1.366h3.36c-.011-.592-.165-1.047-.464-1.366-.298-.325-.701-.487-1.208-.487zm.337 7.394c-1.412 0-2.516-.39-3.312-1.17-.795-.779-1.193-1.884-1.193-3.312 0-1.47.367-2.606 1.099-3.406.738-.806 1.756-1.209 3.053-1.209 1.24 0 2.206.353 2.896 1.06.691.706 1.036 1.682 1.036 2.927v1.162h-5.659c.027.68.228 1.211.605 1.593s.905.573 1.585.573c.529 0 1.028-.055 1.499-.165s.963-.285 1.476-.526v1.853c-.419.209-.866.363-1.342.463-.476.104-1.057.157-1.743.157z" fill="#fff"/><path d="m1067.71 92.8086h175.156v71.7394h-175.156z" fill="#000"/><path d="m1084.23 134.678v-11.475h2.43v11.475zm13.23 0h-2.39v-5.125c0-.633-.11-1.107-.34-1.421-.22-.319-.58-.479-1.07-.479-.67 0-1.16.225-1.46.675-.29.445-.44 1.185-.44 2.221v4.129h-2.4v-8.775h1.83l.32 1.122h.14c.26-.423.63-.743 1.09-.957.48-.22 1.01-.33 1.61-.33 1.02 0 1.79.278 2.32.832.53.55.79 1.345.79 2.386zm7.29.157c-1.04 0-1.84-.374-2.43-1.123h-.13c.09.733.13 1.157.13 1.272v3.555h-2.39v-12.636h1.94l.34 1.138h.11c.56-.868 1.39-1.303 2.49-1.303 1.03 0 1.84.401 2.43 1.201.59.801.88 1.913.88 3.336 0 .936-.14 1.75-.42 2.441-.27.69-.66 1.216-1.17 1.577-.5.361-1.1.542-1.78.542zm-.71-7.182c-.59 0-1.02.183-1.3.55-.27.361-.41.96-.42 1.797v.259c0 .942.14 1.617.42 2.025s.72.612 1.33.612c1.07 0 1.61-.884 1.61-2.653 0-.863-.13-1.509-.4-1.938-.26-.434-.68-.652-1.24-.652zm12.27 7.025-.32-1.123h-.12c-.26.409-.62.725-1.09.95-.48.22-1.01.33-1.61.33-1.03 0-1.81-.275-2.33-.824-.53-.555-.79-1.35-.79-2.386v-5.722h2.39v5.125c0 .633.12 1.109.34 1.429.23.314.59.471 1.08.471.67 0 1.15-.223 1.45-.668.3-.45.45-1.193.45-2.229v-4.128h2.39v8.775zm8.05-1.75c.42 0 .92-.092 1.51-.275v1.781c-.6.267-1.33.401-2.2.401-.96 0-1.66-.241-2.1-.722-.43-.487-.65-1.214-.65-2.182v-4.231h-1.15v-1.012l1.32-.801.69-1.852h1.53v1.868h2.46v1.797h-2.46v4.231c0 .34.1.591.29.753s.44.244.76.244zm12.52-7.865c-.91 0-1.62.346-2.12 1.036-.5.686-.76 1.643-.76 2.873 0 2.559.96 3.838 2.88 3.838.81 0 1.79-.202 2.93-.605v2.041c-.94.392-1.99.589-3.15.589-1.67 0-2.95-.505-3.83-1.515-.89-1.015-1.33-2.47-1.33-4.364 0-1.193.22-2.237.65-3.131.44-.9 1.06-1.588 1.87-2.064.82-.482 1.77-.723 2.86-.723 1.12 0 2.24.27 3.36.809l-.78 1.978c-.43-.204-.86-.382-1.3-.534-.43-.152-.86-.228-1.28-.228zm13.29 9.615h-2.39v-5.125c0-1.267-.47-1.9-1.41-1.9-.67 0-1.16.228-1.46.683-.29.455-.44 1.193-.44 2.213v4.129h-2.4v-12.212h2.4v2.487c0 .194-.02.649-.06 1.366l-.05.706h.12c.54-.858 1.38-1.287 2.54-1.287 1.04 0 1.82.278 2.35.832.54.555.8 1.35.8 2.386zm6.1-7.237c-.51 0-.9.163-1.19.487-.29.319-.46.774-.5 1.366h3.36c-.01-.592-.16-1.047-.46-1.366-.3-.324-.7-.487-1.21-.487zm.34 7.394c-1.41 0-2.52-.39-3.31-1.17-.8-.779-1.2-1.883-1.2-3.312 0-1.47.37-2.605 1.1-3.406.74-.806 1.76-1.209 3.05-1.209 1.24 0 2.21.354 2.9 1.06s1.04 1.682 1.04 2.927v1.162h-5.66c.02.68.23 1.211.6 1.593.38.382.91.573 1.59.573.53 0 1.03-.055 1.5-.165s.96-.285 1.47-.526v1.853c-.42.209-.86.363-1.34.463-.48.104-1.06.157-1.74.157zm9.16-1.876c.6 0 1.05-.173 1.33-.518.28-.351.44-.96.46-1.829v-.29c0-.942-.14-1.617-.44-2.025-.28-.408-.75-.612-1.39-.612-1.13 0-1.69.884-1.69 2.653 0 .879.14 1.535.42 1.969.28.435.72.652 1.31.652zm-.86 1.876c-1.03 0-1.85-.398-2.43-1.193-.59-.801-.88-1.913-.88-3.336 0-1.434.3-2.553.89-3.359.61-.806 1.43-1.209 2.47-1.209.55 0 1.04.105 1.45.314.41.21.78.534 1.09.973h.06l.22-1.122h2.02v12.636h-2.4v-3.681c0-.319.03-.758.1-1.318h-.1c-.26.424-.6.745-1.02.965s-.91.33-1.47.33zm13.61-.157-.32-1.123h-.13c-.25.409-.62.725-1.09.95-.47.22-1 .33-1.61.33-1.03 0-1.8-.275-2.33-.824-.52-.555-.78-1.35-.78-2.386v-5.722h2.39v5.125c0 .633.11 1.109.34 1.429.22.314.58.471 1.07.471.67 0 1.16-.223 1.46-.668.29-.45.44-1.193.44-2.229v-4.128h2.4v8.775zm7.98-7.237c-.5 0-.9.163-1.19.487-.29.319-.45.774-.49 1.366h3.35c-.01-.592-.16-1.047-.46-1.366-.3-.324-.7-.487-1.21-.487zm.34 7.394c-1.41 0-2.52-.39-3.31-1.17-.8-.779-1.19-1.883-1.19-3.312 0-1.47.36-2.605 1.09-3.406.74-.806 1.76-1.209 3.06-1.209 1.24 0 2.2.354 2.89 1.06s1.04 1.682 1.04 2.927v1.162h-5.66c.03.68.23 1.211.6 1.593.38.382.91.573 1.59.573.53 0 1.03-.055 1.5-.165s.96-.285 1.47-.526v1.853c-.41.209-.86.363-1.34.463-.47.104-1.05.157-1.74.157zm9.6-11.2c0-.78.43-1.169 1.3-1.169s1.3.389 1.3 1.169c0 .371-.11.662-.33.871-.21.204-.53.306-.97.306-.87 0-1.3-.392-1.3-1.177zm2.49 11.043h-2.39v-8.775h2.39zm10.62 0h-2.39v-5.125c0-.633-.11-1.107-.34-1.421-.22-.319-.58-.479-1.07-.479-.67 0-1.16.225-1.45.675-.3.445-.45 1.185-.45 2.221v4.129h-2.4v-8.775h1.83l.32 1.122h.14c.26-.423.63-.743 1.1-.957.47-.22 1-.33 1.6-.33 1.02 0 1.79.278 2.32.832.53.55.79 1.345.79 2.386zm7.32-6.978h-2.07v6.978h-2.4v-6.978h-1.32v-1.153l1.32-.644v-.643c0-1 .25-1.73.74-2.19.49-.461 1.28-.691 2.36-.691.83 0 1.56.123 2.21.369l-.61 1.758c-.49-.152-.93-.227-1.34-.227-.34 0-.58.102-.74.306-.15.198-.22.455-.22.769v.549h2.07zm3.29 2.575c0 .868.14 1.525.42 1.97.29.444.75.667 1.4.667.64 0 1.09-.22 1.37-.659.28-.445.42-1.104.42-1.978 0-.869-.14-1.52-.42-1.955-.28-.434-.74-.651-1.39-.651-.64 0-1.1.217-1.38.651-.28.43-.42 1.081-.42 1.955zm6.06 0c0 1.428-.37 2.545-1.13 3.351-.75.806-1.8 1.209-3.14 1.209-.85 0-1.59-.183-2.23-.55-.65-.371-1.14-.902-1.49-1.593-.34-.691-.51-1.496-.51-2.417 0-1.434.37-2.548 1.12-3.344.75-.795 1.8-1.193 3.15-1.193.85 0 1.59.183 2.23.55.65.366 1.14.892 1.49 1.577.34.686.51 1.489.51 2.41z" fill="#fff"/><path d="m890.688 276.35h173.293v69.8761h-173.293z" stroke="#000" stroke-dasharray="5.59 5.59" stroke-width="1.86336"/><path d="m915.302 317.287-.831-2.731h-4.184l-.832 2.731h-2.621l4.05-11.521h2.974l4.066 11.521zm-1.412-4.772c-.769-2.475-1.204-3.874-1.303-4.199-.094-.324-.162-.58-.204-.769-.173.67-.667 2.326-1.484 4.968zm8.076 4.929c-1.031 0-1.842-.4-2.433-1.201-.586-.8-.879-1.91-.879-3.327 0-1.439.298-2.559.894-3.36.602-.805 1.429-1.208 2.481-1.208 1.104 0 1.946.429 2.527 1.287h.078c-.12-.654-.18-1.238-.18-1.75v-2.81h2.401v12.212h-1.836l-.463-1.138h-.102c-.544.863-1.374 1.295-2.488 1.295zm.84-1.907c.612 0 1.059-.178 1.342-.534.287-.356.444-.96.471-1.813v-.259c0-.942-.147-1.617-.44-2.025-.288-.408-.759-.612-1.413-.612-.533 0-.949.228-1.248.683-.293.45-.439 1.107-.439 1.97s.149 1.512.447 1.946c.299.429.725.644 1.28.644zm9.331 1.907c-1.03 0-1.841-.4-2.433-1.201-.586-.8-.879-1.91-.879-3.327 0-1.439.299-2.559.895-3.36.602-.805 1.429-1.208 2.48-1.208 1.104 0 1.947.429 2.527 1.287h.079c-.12-.654-.181-1.238-.181-1.75v-2.81h2.402v12.212h-1.837l-.463-1.138h-.102c-.544.863-1.373 1.295-2.488 1.295zm.84-1.907c.612 0 1.06-.178 1.342-.534.288-.356.445-.96.471-1.813v-.259c0-.942-.146-1.617-.439-2.025-.288-.408-.759-.612-1.413-.612-.534 0-.95.228-1.248.683-.293.45-.439 1.107-.439 1.97s.149 1.512.447 1.946c.298.429.725.644 1.279.644zm18.585 1.75h-2.393v-5.125c0-.633-.108-1.107-.322-1.421-.209-.319-.542-.478-.997-.478-.612 0-1.057.225-1.334.675-.278.45-.416 1.19-.416 2.221v4.128h-2.394v-8.774h1.829l.322 1.122h.133c.235-.403.576-.717 1.02-.942.445-.23.955-.345 1.531-.345 1.313 0 2.203.429 2.668 1.287h.212c.236-.408.581-.725 1.036-.95.461-.225.979-.337 1.554-.337.994 0 1.745.256 2.253.769.512.507.769 1.324.769 2.449v5.721h-2.402v-5.125c0-.633-.107-1.107-.322-1.421-.209-.319-.541-.478-.996-.478-.586 0-1.026.209-1.319.628-.288.418-.432 1.083-.432 1.993zm9.842-4.403c0 .869.142 1.525.424 1.97.288.445.754.667 1.397.667.639 0 1.096-.22 1.374-.659.282-.445.423-1.104.423-1.978 0-.868-.141-1.52-.423-1.954-.283-.434-.746-.652-1.39-.652-.638 0-1.098.218-1.381.652-.282.429-.424 1.08-.424 1.954zm6.067 0c0 1.429-.377 2.546-1.13 3.351-.753.806-1.803 1.209-3.147 1.209-.843 0-1.586-.183-2.229-.549-.644-.372-1.138-.903-1.484-1.594-.345-.69-.518-1.496-.518-2.417 0-1.434.375-2.548 1.123-3.343.748-.796 1.8-1.193 3.155-1.193.842 0 1.585.183 2.229.549.643.366 1.138.892 1.483 1.578.346.685.518 1.488.518 2.409zm6.875-4.536c.325 0 .594.023.809.07l-.181 2.245c-.193-.052-.429-.078-.706-.078-.764 0-1.36.196-1.789.588-.424.393-.636.942-.636 1.648v4.466h-2.394v-8.774h1.813l.353 1.475h.118c.272-.492.638-.887 1.099-1.185.465-.304.97-.455 1.514-.455zm6.036 1.703c-.508 0-.905.162-1.193.486-.288.32-.453.775-.494 1.366h3.359c-.011-.591-.165-1.046-.463-1.366-.299-.324-.702-.486-1.209-.486zm.337 7.393c-1.412 0-2.516-.39-3.312-1.169-.795-.78-1.193-1.884-1.193-3.312 0-1.471.367-2.606 1.099-3.407.738-.805 1.756-1.208 3.053-1.208 1.24 0 2.206.353 2.896 1.059.691.707 1.036 1.682 1.036 2.928v1.161h-5.658c.026.681.227 1.212.604 1.594.377.381.905.572 1.585.572.529 0 1.028-.054 1.499-.164s.963-.286 1.476-.526v1.852c-.419.209-.866.364-1.342.463-.476.105-1.057.157-1.743.157zm13.264 0c-2.731 0-4.097-1.499-4.097-4.497 0-1.491.372-2.629 1.115-3.414.743-.79 1.808-1.185 3.194-1.185 1.015 0 1.926.199 2.731.596l-.706 1.852c-.377-.151-.727-.274-1.052-.368-.324-.1-.648-.15-.973-.15-1.245 0-1.868.885-1.868 2.653 0 1.716.623 2.575 1.868 2.575.461 0 .887-.061 1.28-.181.392-.126.784-.319 1.177-.581v2.049c-.387.246-.78.416-1.177.51-.393.094-.89.141-1.492.141zm12.807-.157h-2.39v-5.125c0-1.266-.47-1.899-1.41-1.899-.67 0-1.16.227-1.46.683-.29.455-.44 1.193-.44 2.213v4.128h-2.398v-12.212h2.398v2.488c0 .193-.02.649-.06 1.365l-.05.707h.12c.54-.858 1.38-1.287 2.54-1.287 1.04 0 1.82.277 2.35.832.54.554.8 1.35.8 2.386zm6.1-7.236c-.51 0-.9.162-1.19.486-.29.32-.46.775-.5 1.366h3.36c-.01-.591-.16-1.046-.46-1.366-.3-.324-.7-.486-1.21-.486zm.34 7.393c-1.41 0-2.52-.39-3.31-1.169-.8-.78-1.2-1.884-1.2-3.312 0-1.471.37-2.606 1.1-3.407.74-.805 1.76-1.208 3.05-1.208 1.24 0 2.21.353 2.9 1.059.69.707 1.04 1.682 1.04 2.928v1.161h-5.66c.02.681.23 1.212.6 1.594.38.381.91.572 1.59.572.53 0 1.03-.054 1.5-.164s.96-.286 1.47-.526v1.852c-.42.209-.86.364-1.34.463-.48.105-1.06.157-1.74.157zm11.74-.157-.32-1.122h-.13c-.25.408-.62.724-1.09.949-.47.22-1.01.33-1.61.33-1.03 0-1.81-.275-2.33-.824-.52-.555-.78-1.35-.78-2.386v-5.721h2.39v5.125c0 .633.11 1.109.34 1.428.22.314.58.471 1.07.471.67 0 1.16-.222 1.45-.667.3-.45.45-1.193.45-2.229v-4.128h2.4v8.774zm7.98-1.719c.61 0 1.05-.172 1.34-.518.28-.35.43-.96.46-1.828v-.291c0-.942-.15-1.617-.44-2.025s-.75-.612-1.4-.612c-1.12 0-1.69.884-1.69 2.653 0 .879.14 1.536.42 1.97s.72.651 1.31.651zm-.85 1.876c-1.04 0-1.85-.398-2.44-1.193-.58-.8-.88-1.912-.88-3.335 0-1.434.3-2.554.9-3.36.6-.805 1.42-1.208 2.46-1.208.56 0 1.04.104 1.45.314.42.209.78.533 1.1.973h.06l.21-1.122h2.03v12.636h-2.41v-3.681c0-.32.04-.759.11-1.319h-.11c-.25.424-.59.746-1.02.965-.42.22-.91.33-1.46.33zm11.02-7.393c-.51 0-.9.162-1.19.486-.29.32-.45.775-.49 1.366h3.35c-.01-.591-.16-1.046-.46-1.366-.3-.324-.7-.486-1.21-.486zm.34 7.393c-1.41 0-2.52-.39-3.31-1.169-.8-.78-1.2-1.884-1.2-3.312 0-1.471.37-2.606 1.1-3.407.74-.805 1.76-1.208 3.06-1.208 1.24 0 2.2.353 2.89 1.059.69.707 1.04 1.682 1.04 2.928v1.161h-5.66c.03.681.23 1.212.6 1.594.38.381.91.572 1.59.572.53 0 1.03-.054 1.5-.164s.96-.286 1.47-.526v1.852c-.41.209-.86.364-1.34.463-.47.105-1.05.157-1.74.157z" fill="#000"/><path d="m293.525 131.099c-.175-.174-.175-.457 0-.632l73.177-73.2424c.174-.1745.457-.1745.631 0l73.177 73.2424c.174.175.174.458 0 .632l-73.177 73.243c-.174.174-.457.174-.631 0z" fill="#303c44" stroke="#17181a" stroke-width="3.57192"/><path d="m337.187 126.229-.935-2.656h-3.657l-.935 2.656h-1.655l3.558-9.602h1.74l3.552 9.602zm-1.341-4.003-.909-2.616c-.035-.114-.085-.273-.151-.478-.065-.209-.13-.421-.196-.634-.065-.218-.12-.401-.163-.55-.044.179-.098.38-.164.602-.061.218-.122.423-.183.615-.057.192-.1.34-.131.445l-.915 2.616zm6.584 4.133c-.684 0-1.277-.133-1.779-.399-.501-.266-.887-.673-1.157-1.223-.271-.549-.406-1.247-.406-2.093 0-.88.149-1.6.445-2.158.297-.558.706-.97 1.23-1.236.527-.266 1.131-.399 1.811-.399.432 0 .822.044 1.171.131.353.083.652.185.896.307l-.458 1.23c-.266-.109-.538-.201-.817-.275s-.547-.111-.805-.111c-.423 0-.776.094-1.059.281-.279.188-.489.467-.628.837-.135.371-.203.831-.203 1.38 0 .532.07.981.209 1.348.14.362.347.636.622.824.274.183.612.274 1.013.274.397 0 .753-.048 1.067-.143.314-.096.61-.221.889-.373v1.334c-.275.157-.569.272-.883.347-.314.078-.7.117-1.158.117zm6.212 0c-.684 0-1.277-.133-1.779-.399-.501-.266-.887-.673-1.158-1.223-.27-.549-.405-1.247-.405-2.093 0-.88.148-1.6.445-2.158.296-.558.706-.97 1.229-1.236.528-.266 1.132-.399 1.812-.399.432 0 .822.044 1.171.131.353.083.652.185.896.307l-.458 1.23c-.266-.109-.539-.201-.818-.275s-.547-.111-.804-.111c-.423 0-.776.094-1.06.281-.279.188-.488.467-.628.837-.135.371-.202.831-.202 1.38 0 .532.069.981.209 1.348.14.362.347.636.621.824.275.183.613.274 1.014.274.397 0 .752-.048 1.066-.143.314-.096.611-.221.89-.373v1.334c-.275.157-.569.272-.883.347-.314.078-.7.117-1.158.117zm9.704-3.767c0 .602-.078 1.136-.235 1.602-.157.467-.386.862-.687 1.184-.301.319-.663.563-1.086.733-.423.165-.9.248-1.432.248-.497 0-.953-.083-1.367-.248-.414-.17-.774-.414-1.079-.733-.301-.322-.534-.717-.7-1.184-.166-.466-.248-1-.248-1.602 0-.798.137-1.474.412-2.027.279-.559.675-.984 1.19-1.276.514-.292 1.127-.438 1.838-.438.667 0 1.256.146 1.766.438s.909.717 1.197 1.276c.287.558.431 1.233.431 2.027zm-5.252 0c0 .528.064.979.19 1.354.131.375.331.663.602.863.27.196.619.295 1.046.295s.776-.099 1.047-.295c.27-.2.468-.488.595-.863.126-.375.189-.826.189-1.354s-.063-.974-.189-1.341c-.127-.37-.325-.652-.595-.843-.271-.197-.622-.295-1.053-.295-.637 0-1.101.214-1.393.641-.293.428-.439 1.04-.439 1.838zm12.883-3.604v7.241h-1.21l-.209-.975h-.085c-.153.249-.347.456-.582.621-.236.162-.497.282-.785.36-.288.083-.591.124-.909.124-.545 0-1.012-.091-1.4-.274-.384-.188-.678-.476-.883-.864s-.307-.889-.307-1.504v-4.729h1.543v4.441c0 .563.114.983.34 1.263.232.279.589.418 1.073.418.467 0 .837-.096 1.112-.288s.469-.475.582-.85c.118-.375.177-.835.177-1.38v-3.604zm5.532-.137c.815 0 1.449.211 1.903.634.458.419.687 1.093.687 2.021v4.723h-1.537v-4.435c0-.562-.116-.983-.347-1.262-.231-.284-.589-.425-1.073-.425-.702 0-1.19.216-1.465.647-.27.432-.405 1.058-.405 1.877v3.598h-1.537v-7.241h1.197l.215.981h.086c.156-.253.351-.46.582-.621.235-.166.497-.29.784-.373.293-.083.596-.124.91-.124zm6.99 6.266c.2 0 .398-.018.595-.053.196-.039.375-.085.536-.137v1.164c-.17.074-.39.138-.661.19-.27.052-.551.078-.843.078-.41 0-.779-.067-1.106-.202-.327-.14-.586-.378-.778-.713-.192-.336-.288-.8-.288-1.393v-3.892h-.987v-.687l1.059-.543.504-1.55h.968v1.609h2.073v1.171h-2.073v3.872c0 .366.091.639.275.817.183.179.425.269.726.269zm6.726-9.065v2.557c0 .266-.009.525-.026.778-.013.253-.028.449-.046.589h.085c.153-.253.34-.46.563-.621.222-.166.471-.29.745-.373.279-.083.576-.124.89-.124.553 0 1.024.093 1.412.281.389.183.685.468.89.857.209.388.314.891.314 1.51v4.723h-1.537v-4.435c0-.562-.116-.983-.347-1.262-.231-.284-.588-.425-1.072-.425-.467 0-.838.098-1.112.294-.271.192-.465.477-.582.857-.118.375-.177.833-.177 1.373v3.598h-1.537v-10.177zm9.371 2.799c.915 0 1.606.203 2.073.608.471.406.706 1.038.706 1.897v4.873h-1.092l-.294-1.027h-.053c-.204.261-.416.477-.634.647s-.471.297-.759.38c-.283.087-.63.13-1.04.13-.431 0-.817-.078-1.157-.235-.34-.161-.608-.406-.805-.733-.196-.327-.294-.741-.294-1.242 0-.746.277-1.306.831-1.681.558-.375 1.399-.582 2.524-.622l1.256-.045v-.38c0-.501-.118-.859-.353-1.072-.231-.214-.558-.321-.981-.321-.362 0-.713.053-1.053.157-.34.105-.672.233-.994.386l-.497-1.086c.353-.187.754-.34 1.203-.457.453-.118.924-.177 1.413-.177zm1.255 3.918-.935.032c-.767.027-1.306.157-1.615.393-.31.235-.465.558-.465.968 0 .357.107.619.321.785.213.161.495.242.844.242.531 0 .972-.151 1.321-.452.353-.305.529-.752.529-1.34zm8.096 1.393c0 .475-.116.876-.347 1.203s-.569.576-1.014.746c-.44.165-.981.248-1.622.248-.505 0-.942-.037-1.308-.111-.362-.07-.704-.179-1.027-.327v-1.328c.345.162.731.301 1.158.419.432.118.839.177 1.223.177.506 0 .87-.079 1.092-.236.223-.161.334-.375.334-.641 0-.157-.046-.296-.137-.418-.088-.127-.253-.255-.498-.386-.239-.135-.593-.297-1.059-.484-.458-.183-.844-.367-1.158-.55s-.551-.403-.713-.66c-.161-.262-.242-.595-.242-1.001 0-.641.253-1.127.759-1.458.51-.336 1.184-.504 2.021-.504.445 0 .863.046 1.256.137.397.088.785.216 1.164.386l-.484 1.158c-.327-.144-.656-.262-.988-.353-.327-.096-.66-.144-1-.144-.397 0-.7.061-.909.183-.205.122-.308.296-.308.523 0 .17.05.314.151.432.1.118.272.235.516.353.249.118.593.264 1.034.438.431.166.804.34 1.118.523.318.179.563.399.733.661s.255.6.255 1.014zm-78.171 21.197c-.863 0-1.556-.314-2.079-.941-.519-.633-.779-1.564-.779-2.793 0-1.243.264-2.183.792-2.819.532-.637 1.231-.955 2.099-.955.366 0 .687.05.962.15.274.096.51.227.706.393.201.166.371.351.51.556h.072c-.022-.135-.048-.329-.078-.582-.027-.258-.04-.495-.04-.713v-2.603h1.544v10.177h-1.204l-.274-.988h-.066c-.13.209-.296.399-.497.569-.196.166-.431.299-.706.399-.27.1-.591.15-.962.15zm.432-1.249c.659 0 1.123-.19 1.393-.569.271-.379.41-.948.419-1.707v-.203c0-.811-.131-1.432-.393-1.864-.261-.436-.739-.654-1.432-.654-.554 0-.977.225-1.269.674-.288.445-.431 1.066-.431 1.864s.143 1.408.431 1.831c.292.419.72.628 1.282.628zm7.919-6.259c.645 0 1.199.133 1.661.399s.818.643 1.066 1.131c.249.489.373 1.073.373 1.753v.824h-4.833c.017.702.205 1.243.562 1.622.362.38.868.569 1.517.569.463 0 .877-.043 1.243-.13.371-.092.752-.225 1.145-.399v1.249c-.362.17-.731.294-1.106.373-.375.078-.824.117-1.347.117-.711 0-1.336-.137-1.877-.412-.536-.279-.957-.693-1.262-1.242-.301-.55-.452-1.232-.452-2.048 0-.811.138-1.499.412-2.066.275-.567.661-.999 1.158-1.295.497-.297 1.077-.445 1.74-.445zm0 1.158c-.484 0-.877.157-1.177.471-.297.313-.471.773-.524 1.38h3.297c-.005-.362-.066-.683-.183-.962-.114-.279-.288-.497-.524-.654-.231-.157-.527-.235-.889-.235zm8.102-1.158c.859 0 1.547.314 2.066.942.524.628.785 1.561.785 2.799 0 .82-.122 1.511-.366 2.073-.24.558-.578.981-1.014 1.269-.432.284-.935.425-1.511.425-.366 0-.684-.048-.955-.144-.27-.095-.501-.22-.693-.372-.192-.157-.353-.327-.484-.511h-.091c.021.175.041.369.058.583.022.209.033.401.033.575v2.95h-1.543v-10.452h1.255l.216 1.001h.072c.135-.205.299-.395.491-.569.196-.174.431-.312.706-.412.279-.105.604-.157.975-.157zm-.412 1.256c-.423 0-.764.085-1.021.255-.253.165-.438.416-.556.752-.113.336-.174.756-.183 1.262v.216c0 .536.055.992.164 1.367.113.371.298.654.556.85.261.192.614.288 1.059.288.375 0 .685-.102.929-.307.248-.205.434-.497.556-.877.122-.379.183-.826.183-1.341 0-.78-.14-1.386-.419-1.818-.274-.431-.697-.647-1.268-.647zm11.005 2.485c0 .602-.078 1.136-.235 1.602-.157.467-.386.862-.687 1.184-.301.319-.663.563-1.086.733-.423.165-.9.248-1.432.248-.497 0-.953-.083-1.367-.248-.414-.17-.774-.414-1.079-.733-.301-.322-.534-.717-.7-1.184-.166-.466-.248-1-.248-1.602 0-.798.137-1.474.412-2.027.279-.559.675-.984 1.19-1.276.514-.292 1.127-.438 1.838-.438.667 0 1.256.146 1.766.438s.909.717 1.197 1.276c.287.558.431 1.233.431 2.027zm-5.252 0c0 .528.064.979.19 1.354.131.375.331.663.602.863.27.196.619.295 1.046.295s.776-.099 1.047-.295c.27-.2.468-.488.595-.863.126-.375.189-.826.189-1.354s-.063-.974-.189-1.341c-.127-.37-.325-.652-.595-.843-.271-.197-.622-.295-1.053-.295-.637 0-1.101.214-1.393.641-.293.428-.439 1.04-.439 1.838zm11.438 1.57c0 .475-.116.876-.347 1.203s-.569.576-1.014.746c-.44.165-.981.248-1.622.248-.505 0-.942-.037-1.308-.111-.362-.07-.704-.179-1.027-.327v-1.328c.345.162.731.301 1.158.419.432.118.839.177 1.223.177.506 0 .87-.079 1.092-.236.223-.161.334-.375.334-.641 0-.157-.046-.296-.137-.418-.088-.127-.253-.255-.498-.386-.239-.135-.593-.297-1.059-.484-.458-.183-.844-.367-1.158-.55s-.551-.403-.713-.66c-.161-.262-.242-.595-.242-1.001 0-.641.253-1.127.759-1.458.51-.336 1.184-.504 2.021-.504.445 0 .863.046 1.256.137.397.088.785.216 1.164.386l-.484 1.158c-.327-.144-.656-.262-.988-.353-.327-.096-.66-.144-1-.144-.397 0-.7.061-.909.183-.205.122-.308.296-.308.523 0 .17.05.314.151.432.1.118.272.235.516.353.249.118.593.264 1.034.438.431.166.804.34 1.118.523.318.179.563.399.733.661s.255.6.255 1.014zm2.751-5.174v7.241h-1.537v-7.241zm-.758-2.773c.235 0 .438.063.608.19.174.126.262.344.262.654 0 .305-.088.523-.262.654-.17.126-.373.19-.608.19-.244 0-.451-.064-.622-.19-.165-.131-.248-.349-.248-.654 0-.31.083-.528.248-.654.171-.127.378-.19.622-.19zm5.211 8.902c.2 0 .399-.018.595-.053.196-.039.375-.085.536-.137v1.164c-.17.074-.39.138-.66.19-.271.052-.552.078-.844.078-.41 0-.778-.067-1.105-.202-.327-.14-.587-.378-.779-.713-.192-.336-.287-.8-.287-1.393v-3.892h-.988v-.687l1.059-.543.504-1.55h.968v1.609h2.073v1.171h-2.073v3.872c0 .366.092.639.275.817.183.179.425.269.726.269zm9.787 4.323v-3.074c0-.175.005-.364.013-.569.013-.205.033-.393.059-.563h-.078c-.197.319-.469.587-.818.805-.349.213-.804.32-1.367.32-.85 0-1.535-.314-2.054-.941-.518-.633-.778-1.566-.778-2.8 0-.82.12-1.508.36-2.067.24-.558.575-.981 1.007-1.268.436-.288.942-.432 1.517-.432.554 0 1.003.109 1.348.327.349.214.628.477.837.791h.052l.17-.981h1.276v10.452zm-1.733-4.317c.436 0 .785-.083 1.046-.248.262-.166.452-.417.569-.752.118-.341.181-.761.19-1.263v-.235c0-.82-.133-1.443-.399-1.871-.266-.427-.739-.641-1.419-.641-.576 0-1.003.225-1.282.674-.279.445-.419 1.064-.419 1.857 0 .803.14 1.417.419 1.845.283.423.715.634 1.295.634zm11.346-6.135v7.241h-1.21l-.209-.975h-.085c-.153.249-.347.456-.583.621-.235.162-.497.282-.784.36-.288.083-.591.124-.91.124-.545 0-1.011-.091-1.399-.274-.384-.188-.678-.476-.883-.864s-.308-.889-.308-1.504v-4.729h1.544v4.441c0 .563.113.983.34 1.263.231.279.589.418 1.073.418.466 0 .837-.096 1.112-.288.274-.192.468-.475.582-.85.117-.375.176-.835.176-1.38v-3.604zm8.167 3.604c0 .602-.078 1.136-.235 1.602-.157.467-.386.862-.687 1.184-.301.319-.663.563-1.086.733-.423.165-.9.248-1.432.248-.497 0-.953-.083-1.367-.248-.414-.17-.774-.414-1.079-.733-.301-.322-.534-.717-.7-1.184-.166-.466-.249-1-.249-1.602 0-.798.138-1.474.412-2.027.279-.559.676-.984 1.191-1.276.514-.292 1.127-.438 1.838-.438.667 0 1.255.146 1.765.438.511.292.91.717 1.197 1.276.288.558.432 1.233.432 2.027zm-5.252 0c0 .528.063.979.19 1.354.131.375.331.663.601.863.271.196.62.295 1.047.295s.776-.099 1.046-.295c.271-.2.469-.488.596-.863.126-.375.189-.826.189-1.354s-.063-.974-.189-1.341c-.127-.37-.325-.652-.596-.843-.27-.197-.621-.295-1.053-.295-.636 0-1.101.214-1.393.641-.292.428-.438 1.04-.438 1.838zm9.266 2.525c.201 0 .399-.018.595-.053.196-.039.375-.085.537-.137v1.164c-.17.074-.391.138-.661.19s-.552.078-.844.078c-.41 0-.778-.067-1.105-.202-.327-.14-.587-.378-.778-.713-.192-.336-.288-.8-.288-1.393v-3.892h-.988v-.687l1.06-.543.503-1.55h.968v1.609h2.074v1.171h-2.074v3.872c0 .366.092.639.275.817.183.179.425.269.726.269zm4.995-6.266c.916 0 1.607.203 2.073.608.471.406.707 1.038.707 1.897v4.873h-1.092l-.295-1.027h-.052c-.205.261-.416.477-.634.647s-.471.297-.759.38c-.284.087-.63.13-1.04.13-.432 0-.818-.078-1.158-.235-.34-.161-.608-.406-.804-.733s-.294-.741-.294-1.242c0-.746.276-1.306.83-1.681.558-.375 1.4-.582 2.525-.622l1.255-.045v-.38c0-.501-.117-.859-.353-1.072-.231-.214-.558-.321-.981-.321-.362 0-.713.053-1.053.157-.34.105-.671.233-.994.386l-.497-1.086c.353-.187.754-.34 1.203-.457.454-.118.925-.177 1.413-.177zm1.256 3.918-.935.032c-.768.027-1.306.157-1.616.393-.309.235-.464.558-.464.968 0 .357.107.619.32.785.214.161.495.242.844.242.532 0 .972-.151 1.321-.452.353-.305.53-.752.53-1.34zm3.975.543v-.413c0-.322.037-.603.111-.843s.198-.465.373-.674c.174-.214.41-.436.706-.667.305-.24.547-.447.726-.621.183-.175.314-.349.393-.524.082-.178.124-.385.124-.621 0-.371-.127-.652-.38-.844-.248-.196-.599-.294-1.053-.294-.401 0-.778.057-1.131.17s-.702.255-1.047.425l-.542-1.151c.396-.218.826-.392 1.288-.523.467-.135.979-.203 1.537-.203.89 0 1.576.216 2.06.648.489.431.733 1 .733 1.707 0 .388-.061.721-.183 1-.122.275-.303.53-.543.766-.236.231-.521.475-.857.732-.275.218-.486.408-.634.569-.144.157-.245.316-.301.478-.053.161-.079.355-.079.582v.301zm-.249 2.106c0-.358.092-.609.275-.753.187-.148.416-.222.687-.222.261 0 .486.074.673.222.188.144.282.395.282.753 0 .348-.094.601-.282.758-.187.153-.412.229-.673.229-.271 0-.5-.076-.687-.229-.183-.157-.275-.41-.275-.758z" fill="#f5f7f9"/><path d="m516.197 308.341c-.175-.174-.175-.457 0-.631l73.177-73.243c.174-.175.456-.175.631 0l73.177 73.243c.174.174.174.457 0 .631l-73.177 73.243c-.175.174-.457.174-.631 0z" fill="#303c44" stroke="#17181a" stroke-width="3.57192"/><path d="m562.436 303.471-.936-2.656h-3.656l-.935 2.656h-1.655l3.558-9.602h1.74l3.551 9.602zm-1.341-4.003-.909-2.616c-.035-.114-.085-.273-.151-.478-.065-.209-.131-.42-.196-.634-.065-.218-.12-.401-.163-.549-.044.178-.099.379-.164.601-.061.218-.122.423-.183.615-.057.192-.1.34-.131.445l-.916 2.616zm5.211 4.003h-1.544v-10.177h1.544zm3.294 0h-1.543v-10.177h1.543zm7.701.131c-.684 0-1.277-.133-1.779-.399-.501-.266-.887-.674-1.157-1.224-.271-.549-.406-1.247-.406-2.092 0-.881.149-1.601.445-2.159.297-.558.706-.97 1.23-1.236.527-.266 1.131-.399 1.811-.399.432 0 .822.044 1.171.131.353.083.652.185.896.307l-.458 1.23c-.266-.109-.538-.201-.817-.275s-.547-.111-.805-.111c-.423 0-.776.094-1.059.281-.279.188-.489.467-.628.837-.135.371-.203.831-.203 1.38 0 .532.07.982.209 1.348.14.362.347.636.622.824.274.183.612.275 1.013.275.397 0 .753-.048 1.067-.144s.61-.22.889-.373v1.334c-.275.157-.569.273-.883.347-.314.078-.7.118-1.158.118zm4.832-10.308v2.557c0 .266-.009.526-.026.778-.013.253-.028.45-.046.589h.085c.153-.253.34-.46.563-.621.222-.166.471-.29.745-.373.279-.083.576-.124.89-.124.553 0 1.024.093 1.412.281.388.183.685.469.89.857.209.388.314.891.314 1.511v4.722h-1.537v-4.435c0-.562-.116-.983-.347-1.262-.231-.283-.588-.425-1.072-.425-.467 0-.838.098-1.112.294-.271.192-.465.478-.582.857-.118.375-.177.833-.177 1.373v3.598h-1.537v-10.177zm9.416 2.799c.646 0 1.2.133 1.662.399s.817.643 1.066 1.132c.248.488.373 1.072.373 1.752v.825h-4.834c.018.702.205 1.242.563 1.622.362.379.867.569 1.517.569.462 0 .877-.044 1.243-.131.37-.092.752-.225 1.144-.399v1.249c-.362.17-.73.294-1.105.373-.375.078-.824.118-1.347.118-.711 0-1.337-.138-1.877-.413-.537-.279-.957-.693-1.263-1.242-.301-.55-.451-1.232-.451-2.047 0-.811.137-1.5.412-2.067s.661-.999 1.158-1.295c.497-.297 1.077-.445 1.739-.445zm0 1.158c-.484 0-.876.157-1.177.471-.296.314-.471.774-.523 1.38h3.296c-.004-.362-.065-.683-.183-.962-.113-.279-.288-.497-.523-.654-.231-.157-.528-.235-.89-.235zm8.985 9.431v-3.074c0-.174.005-.364.013-.569.013-.205.033-.392.059-.562h-.078c-.197.318-.469.586-.818.804-.349.214-.804.321-1.367.321-.85 0-1.535-.314-2.053-.942-.519-.633-.779-1.566-.779-2.8 0-.819.12-1.508.36-2.066s.575-.981 1.007-1.269c.436-.288.942-.432 1.518-.432.553 0 1.002.109 1.347.327.349.214.628.478.837.792h.052l.17-.982h1.276v10.452zm-1.733-4.317c.436 0 .785-.082 1.046-.248.262-.166.452-.417.569-.752.118-.34.181-.761.19-1.263v-.235c0-.82-.133-1.443-.399-1.871-.266-.427-.739-.641-1.419-.641-.576 0-1.003.225-1.282.674-.279.445-.419 1.064-.419 1.858 0 .802.14 1.417.419 1.844.283.423.715.634 1.295.634zm11.346-6.135v7.241h-1.21l-.209-.975h-.085c-.153.249-.347.456-.583.622-.235.161-.497.281-.784.359-.288.083-.591.125-.909.125-.546 0-1.012-.092-1.4-.275-.384-.188-.678-.475-.883-.864-.205-.388-.307-.889-.307-1.504v-4.729h1.543v4.441c0 .563.113.984.34 1.263.231.279.589.418 1.073.418.466 0 .837-.096 1.112-.287.274-.192.468-.476.582-.851.117-.375.176-.835.176-1.38v-3.604zm4.642-.137c.645 0 1.199.133 1.661.399s.818.643 1.066 1.132c.249.488.373 1.072.373 1.752v.825h-4.833c.017.702.205 1.242.562 1.622.362.379.868.569 1.517.569.463 0 .877-.044 1.243-.131.371-.092.752-.225 1.145-.399v1.249c-.362.17-.731.294-1.106.373-.375.078-.824.118-1.347.118-.711 0-1.336-.138-1.877-.413-.536-.279-.957-.693-1.262-1.242-.301-.55-.452-1.232-.452-2.047 0-.811.138-1.5.412-2.067.275-.567.661-.999 1.158-1.295.497-.297 1.077-.445 1.74-.445zm0 1.158c-.484 0-.877.157-1.177.471-.297.314-.471.774-.524 1.38h3.297c-.005-.362-.066-.683-.184-.962-.113-.279-.287-.497-.523-.654-.231-.157-.527-.235-.889-.235zm9.253 4.153c0 .475-.116.876-.347 1.203s-.569.576-1.014.746c-.44.166-.981.249-1.622.249-.506 0-.942-.038-1.308-.112-.362-.069-.704-.178-1.027-.327v-1.327c.345.161.731.3 1.158.418.432.118.839.177 1.223.177.506 0 .87-.079 1.092-.236.223-.161.334-.375.334-.641 0-.157-.046-.296-.138-.418-.087-.127-.252-.255-.497-.386-.239-.135-.593-.297-1.059-.484-.458-.183-.844-.366-1.158-.549-.314-.184-.551-.404-.713-.661-.161-.262-.242-.595-.242-1.001 0-.641.253-1.127.759-1.458.51-.336 1.184-.504 2.021-.504.445 0 .863.046 1.256.137.397.088.785.216 1.164.386l-.484 1.158c-.327-.144-.656-.262-.988-.353-.327-.096-.66-.144-1-.144-.397 0-.7.061-.909.183-.205.122-.308.297-.308.523 0 .17.05.314.151.432.1.118.272.235.516.353.249.118.593.264 1.034.438.431.166.804.34 1.118.524.318.178.563.399.733.66.17.262.255.6.255 1.014zm-48.667 21.067-2.754-7.241h1.629l1.491 4.252c.096.27.183.562.262.876.078.314.133.578.163.792h.052c.031-.223.09-.489.177-.798.087-.314.177-.604.268-.87l1.491-4.252h1.622l-2.753 7.241zm7.892-7.378c.916 0 1.607.203 2.073.608.471.406.707 1.038.707 1.897v4.873h-1.092l-.295-1.027h-.052c-.205.261-.416.477-.634.647s-.471.297-.759.38c-.284.087-.63.131-1.04.131-.432 0-.818-.079-1.158-.236-.34-.161-.608-.405-.804-.732s-.295-.742-.295-1.243c0-.746.277-1.306.831-1.681.558-.375 1.4-.582 2.525-.621l1.255-.046v-.379c0-.502-.117-.859-.353-1.073-.231-.214-.558-.321-.981-.321-.362 0-.713.053-1.053.157-.34.105-.671.234-.994.386l-.497-1.085c.353-.188.754-.341 1.203-.458.454-.118.925-.177 1.413-.177zm1.256 3.918-.935.033c-.768.026-1.306.157-1.616.392-.309.235-.464.558-.464.968 0 .357.107.619.32.785.214.161.495.242.844.242.532 0 .972-.151 1.321-.452.353-.305.53-.752.53-1.34zm4.773 3.46h-1.544v-10.177h1.544zm3.288-7.241v7.241h-1.537v-7.241zm-.759-2.773c.235 0 .438.064.608.19.175.126.262.345.262.654 0 .305-.087.523-.262.654-.17.127-.373.19-.608.19-.244 0-.451-.063-.621-.19-.166-.131-.249-.349-.249-.654 0-.309.083-.528.249-.654.17-.126.377-.19.621-.19zm4.949 10.145c-.863 0-1.556-.314-2.079-.942-.519-.633-.779-1.563-.779-2.793 0-1.243.264-2.182.792-2.819.532-.637 1.231-.955 2.099-.955.366 0 .687.05.962.151.274.096.51.226.706.392.2.166.37.351.51.556h.072c-.022-.135-.048-.329-.079-.582-.026-.257-.039-.495-.039-.713v-2.603h1.544v10.177h-1.204l-.274-.988h-.066c-.131.209-.296.399-.497.569-.196.166-.431.299-.706.399-.271.1-.591.151-.962.151zm.432-1.25c.658 0 1.123-.189 1.393-.569.27-.379.41-.948.419-1.707v-.203c0-.811-.131-1.432-.393-1.864-.261-.436-.739-.654-1.432-.654-.554 0-.977.225-1.269.674-.288.445-.432 1.066-.432 1.864s.144 1.408.432 1.831c.292.419.72.628 1.282.628zm5.78-1.798v-.412c0-.323.037-.604.111-.844s.199-.464.373-.674c.174-.213.41-.436.706-.667.306-.24.548-.447.726-.621.183-.175.314-.349.393-.523.083-.179.124-.386.124-.622 0-.37-.126-.652-.379-.843-.249-.197-.6-.295-1.053-.295-.401 0-.779.057-1.132.17-.353.114-.702.255-1.046.425l-.543-1.151c.397-.218.826-.392 1.288-.523.467-.135.979-.203 1.537-.203.89 0 1.577.216 2.061.648.488.431.732 1 .732 1.707 0 .388-.061.721-.183 1.001-.122.274-.303.529-.543.765-.235.231-.521.475-.857.732-.274.218-.486.408-.634.569-.144.157-.244.316-.301.478-.052.161-.078.355-.078.582v.301zm-.249 2.106c0-.358.092-.609.275-.752.188-.149.417-.223.687-.223.262 0 .486.074.674.223.187.143.281.394.281.752 0 .349-.094.601-.281.758-.188.153-.412.229-.674.229-.27 0-.499-.076-.687-.229-.183-.157-.275-.409-.275-.758z" fill="#f5f7f9"/><path d="m1206.57 307.412c-.17-.175-.17-.458 0-.632l73.18-73.243c.17-.174.46-.174.63 0l73.18 73.243c.17.174.17.457 0 .632l-73.18 73.242c-.17.175-.46.175-.63 0z" fill="#303c44" stroke="#17181a" stroke-width="3.57192"/><path d="m1244.77 292.979c1.24 0 2.14.253 2.7.759.57.505.85 1.214.85 2.125 0 .415-.06.809-.19 1.184-.13.371-.34.7-.63.988-.29.283-.68.508-1.16.673-.47.166-1.06.249-1.76.249h-1.02v3.584h-1.57v-9.562zm-.1 1.302h-1.11v3.368h.86c.49 0 .91-.057 1.26-.17.34-.118.6-.303.78-.556s.27-.587.27-1.001c0-.554-.17-.966-.51-1.236-.33-.27-.85-.405-1.55-.405zm7.8.882c.91 0 1.61.203 2.07.609.47.405.71 1.037.71 1.896v4.873h-1.09l-.3-1.027h-.05c-.21.262-.42.478-.63.648-.22.17-.48.296-.76.379-.29.087-.63.131-1.04.131-.44 0-.82-.079-1.16-.236-.34-.161-.61-.405-.81-.732-.19-.327-.29-.741-.29-1.243 0-.745.28-1.306.83-1.681.56-.375 1.4-.582 2.53-.621l1.25-.046v-.379c0-.502-.12-.859-.35-1.073-.23-.213-.56-.32-.98-.32-.37 0-.72.052-1.06.157-.34.104-.67.233-.99.386l-.5-1.086c.36-.188.76-.34 1.21-.458s.92-.177 1.41-.177zm1.25 3.918-.93.033c-.77.026-1.31.157-1.62.392-.31.236-.46.558-.46.968 0 .358.11.619.32.785.21.161.49.242.84.242.54 0 .98-.15 1.32-.451.36-.305.53-.752.53-1.341zm8.1 1.393c0 .476-.12.877-.35 1.204s-.57.575-1.01.745c-.44.166-.98.249-1.62.249-.51 0-.94-.037-1.31-.111-.36-.07-.7-.179-1.03-.327v-1.328c.35.161.73.301 1.16.419.43.117.84.176 1.22.176.51 0 .87-.078 1.1-.235.22-.162.33-.375.33-.641 0-.157-.05-.297-.14-.419-.09-.126-.25-.255-.5-.386-.24-.135-.59-.296-1.06-.484-.45-.183-.84-.366-1.15-.549-.32-.183-.55-.403-.72-.661-.16-.261-.24-.595-.24-1 0-.641.26-1.128.76-1.459.51-.336 1.18-.504 2.02-.504.45 0 .87.046 1.26.138.39.087.78.216 1.16.386l-.48 1.157c-.33-.144-.66-.261-.99-.353-.33-.096-.66-.144-1-.144-.4 0-.7.061-.91.183-.2.122-.31.297-.31.524 0 .17.05.314.15.431.1.118.28.236.52.353.25.118.59.264 1.03.439.44.165.81.34 1.12.523.32.179.56.399.73.66.17.262.26.6.26 1.014zm6.08 0c0 .476-.11.877-.35 1.204-.23.327-.57.575-1.01.745-.44.166-.98.249-1.62.249-.51 0-.94-.037-1.31-.111-.36-.07-.7-.179-1.03-.327v-1.328c.35.161.73.301 1.16.419.43.117.84.176 1.22.176.51 0 .87-.078 1.1-.235.22-.162.33-.375.33-.641 0-.157-.05-.297-.14-.419-.08-.126-.25-.255-.49-.386-.24-.135-.6-.296-1.06-.484-.46-.183-.85-.366-1.16-.549-.32-.183-.55-.403-.71-.661-.17-.261-.25-.595-.25-1 0-.641.26-1.128.76-1.459.51-.336 1.19-.504 2.02-.504.45 0 .87.046 1.26.138.4.087.78.216 1.16.386l-.48 1.157c-.33-.144-.66-.261-.99-.353-.33-.096-.66-.144-1-.144-.4 0-.7.061-.91.183-.2.122-.31.297-.31.524 0 .17.05.314.15.431.1.118.28.236.52.353.25.118.59.264 1.03.439.44.165.81.34 1.12.523.32.179.57.399.74.66.17.262.25.6.25 1.014zm7.09-5.311c.91 0 1.6.203 2.07.609.47.405.71 1.037.71 1.896v4.873h-1.1l-.29-1.027h-.05c-.21.262-.42.478-.64.648-.21.17-.47.296-.76.379-.28.087-.63.131-1.04.131-.43 0-.81-.079-1.15-.236-.34-.161-.61-.405-.81-.732-.19-.327-.29-.741-.29-1.243 0-.745.28-1.306.83-1.681.56-.375 1.4-.582 2.52-.621l1.26-.046v-.379c0-.502-.12-.859-.35-1.073-.24-.213-.56-.32-.99-.32-.36 0-.71.052-1.05.157-.34.104-.67.233-.99.386l-.5-1.086c.35-.188.76-.34 1.2-.458.46-.118.93-.177 1.42-.177zm1.25 3.918-.93.033c-.77.026-1.31.157-1.62.392-.31.236-.46.558-.46.968 0 .358.1.619.32.785.21.161.49.242.84.242.53 0 .97-.15 1.32-.451.36-.305.53-.752.53-1.341zm11.41-3.918c.81 0 1.43.21 1.84.628.41.419.62 1.09.62 2.015v4.735h-1.54v-4.461c0-.549-.11-.963-.32-1.242s-.54-.419-.98-.419c-.61 0-1.05.196-1.32.589-.26.388-.4.953-.4 1.694v3.839h-1.53v-4.461c0-.366-.05-.671-.15-.915-.09-.249-.23-.434-.42-.556-.19-.127-.44-.19-.73-.19-.42 0-.76.096-1.01.288s-.43.475-.54.85c-.11.371-.16.827-.16 1.367v3.617h-1.54v-7.24h1.2l.21.974h.09c.15-.253.33-.46.55-.621.22-.166.47-.288.74-.366.27-.083.55-.125.84-.125.54 0 1 .096 1.37.288.37.188.65.476.83.864h.12c.22-.393.54-.683.95-.87.4-.188.83-.282 1.28-.282zm10.56 3.742c0 .601-.07 1.135-.23 1.602s-.39.861-.69 1.184c-.3.318-.66.562-1.08.732-.43.166-.9.249-1.44.249-.49 0-.95-.083-1.36-.249-.42-.17-.78-.414-1.08-.732-.3-.323-.54-.717-.7-1.184-.17-.467-.25-1.001-.25-1.602 0-.798.14-1.474.41-2.028.28-.558.68-.983 1.19-1.275.52-.292 1.13-.439 1.84-.439.67 0 1.26.147 1.77.439s.91.717 1.19 1.275c.29.558.43 1.234.43 2.028zm-5.25 0c0 .527.07.978.19 1.353.13.375.33.663.6.864.27.196.62.294 1.05.294s.78-.098 1.05-.294c.27-.201.47-.489.59-.864.13-.375.19-.826.19-1.353 0-.528-.06-.975-.19-1.341-.12-.371-.32-.652-.59-.844-.27-.196-.62-.294-1.06-.294-.63 0-1.1.213-1.39.641-.29.427-.44 1.04-.44 1.838zm12.89-3.604v7.24h-1.21l-.21-.975h-.09c-.15.249-.35.456-.58.622-.24.161-.5.281-.79.36-.28.082-.59.124-.9.124-.55 0-1.02-.092-1.4-.275-.39-.187-.68-.475-.89-.863-.2-.388-.3-.89-.3-1.504v-4.729h1.54v4.441c0 .562.11.983.34 1.262s.59.419 1.07.419c.47 0 .84-.096 1.11-.288.28-.192.47-.475.59-.85.11-.375.17-.835.17-1.38v-3.604zm5.53-.138c.81 0 1.45.212 1.9.635.46.418.69 1.092.69 2.021v4.722h-1.54v-4.434c0-.563-.12-.984-.35-1.263-.23-.283-.59-.425-1.07-.425-.7 0-1.19.216-1.46.648-.27.431-.41 1.057-.41 1.877v3.597h-1.54v-7.24h1.2l.22.981h.08c.16-.253.35-.46.58-.621.24-.166.5-.29.79-.373s.59-.125.91-.125zm6.99 6.266c.2 0 .4-.017.59-.052.2-.039.38-.085.54-.138v1.165c-.17.074-.39.137-.66.189-.27.053-.55.079-.85.079-.41 0-.77-.068-1.1-.203-.33-.139-.59-.377-.78-.713s-.29-.8-.29-1.393v-3.891h-.98v-.687l1.05-.543.51-1.55h.97v1.609h2.07v1.171h-2.07v3.871c0 .367.09.639.27.818s.43.268.73.268zm-54.6 20.243c-.68 0-1.27-.133-1.77-.399-.51-.266-.89-.674-1.16-1.223-.27-.55-.41-1.247-.41-2.093 0-.881.15-1.6.45-2.158.29-.559.7-.971 1.23-1.237.52-.266 1.13-.399 1.81-.399.43 0 .82.044 1.17.131.35.083.65.186.9.308l-.46 1.229c-.27-.109-.54-.2-.82-.274-.28-.075-.55-.112-.8-.112-.43 0-.78.094-1.06.282-.28.187-.49.466-.63.837-.14.37-.2.83-.2 1.38 0 .532.06.981.2 1.347.14.362.35.637.63.824.27.183.61.275 1.01.275s.75-.048 1.07-.144c.31-.096.61-.22.89-.373v1.334c-.28.157-.57.273-.89.347-.31.079-.7.118-1.16.118zm4.84-10.308v2.557c0 .266-.01.526-.03.779-.01.253-.03.449-.05.588h.09c.15-.252.34-.46.56-.621.22-.166.47-.29.75-.373s.57-.124.89-.124c.55 0 1.02.094 1.41.281.39.183.68.469.89.857s.31.892.31 1.511v4.722h-1.53v-4.434c0-.563-.12-.984-.35-1.263-.23-.283-.59-.425-1.07-.425-.47 0-.84.098-1.12.295-.27.191-.46.477-.58.856-.12.375-.17.833-.17 1.374v3.597h-1.54v-10.177zm9.41 2.799c.65 0 1.2.133 1.66.399.47.266.82.644 1.07 1.132s.37 1.073.37 1.753v.824h-4.83c.02.702.2 1.242.56 1.622.36.379.87.569 1.52.569.46 0 .88-.044 1.24-.131.37-.092.75-.225 1.15-.399v1.249c-.37.17-.73.295-1.11.373-.37.079-.82.118-1.35.118-.71 0-1.33-.138-1.87-.412-.54-.279-.96-.694-1.27-1.243-.3-.549-.45-1.232-.45-2.047 0-.811.14-1.5.42-2.067.27-.567.66-.998 1.15-1.295.5-.296 1.08-.445 1.74-.445zm0 1.158c-.48 0-.87.157-1.17.471s-.48.774-.53 1.38h3.3c-.01-.362-.07-.682-.18-.961-.12-.279-.29-.497-.53-.654-.23-.157-.53-.236-.89-.236zm7.31 6.351c-.69 0-1.28-.133-1.78-.399s-.89-.674-1.16-1.223c-.27-.55-.41-1.247-.41-2.093 0-.881.15-1.6.45-2.158.3-.559.71-.971 1.23-1.237.53-.266 1.13-.399 1.81-.399.43 0 .82.044 1.17.131.35.083.65.186.9.308l-.46 1.229c-.27-.109-.54-.2-.82-.274-.28-.075-.55-.112-.8-.112-.43 0-.78.094-1.06.282-.28.187-.49.466-.63.837-.14.37-.2.83-.2 1.38 0 .532.07.981.21 1.347.14.362.34.637.62.824.27.183.61.275 1.01.275s.75-.048 1.07-.144c.31-.096.61-.22.89-.373v1.334c-.28.157-.57.273-.89.347-.31.079-.7.118-1.15.118zm4.83-10.308v4.919c0 .222-.01.466-.03.732-.02.262-.03.508-.05.739h.03c.12-.152.25-.331.41-.536s.31-.384.46-.536l2.21-2.381h1.76l-2.9 3.113 3.09 4.127h-1.8l-2.32-3.179-.86.739v2.44h-1.54v-10.177zm6.44 7.26v-.412c0-.323.04-.604.11-.844s.2-.464.37-.673c.18-.214.41-.436.71-.668.3-.239.55-.446.72-.621.19-.174.32-.349.4-.523.08-.179.12-.386.12-.621 0-.371-.12-.652-.38-.844-.25-.196-.6-.294-1.05-.294-.4 0-.78.056-1.13.17-.36.113-.7.255-1.05.425l-.54-1.151c.4-.218.82-.393 1.29-.524.46-.135.98-.202 1.53-.202.89 0 1.58.215 2.06.647.49.432.74 1.001.74 1.707 0 .388-.06.722-.19 1.001-.12.275-.3.53-.54.765-.23.231-.52.475-.86.733-.27.218-.48.407-.63.569-.14.157-.24.316-.3.477-.05.161-.08.355-.08.582v.301zm-.25 2.106c0-.358.09-.608.27-.752.19-.148.42-.223.69-.223.26 0 .49.075.68.223.18.144.28.394.28.752 0 .349-.1.602-.28.759-.19.152-.42.229-.68.229-.27 0-.5-.077-.69-.229-.18-.157-.27-.41-.27-.759z" fill="#f5f7f9"/><path d="m778.93 131.099c-.174-.174-.174-.457 0-.632l73.177-73.2424c.174-.1745.457-.1745.631 0l73.177 73.2424c.174.175.174.458 0 .632l-73.177 73.243c-.174.174-.457.174-.631 0z" fill="#303c44" stroke="#17181a" stroke-width="3.57192"/><path d="m838.855 126.229-.935-2.656h-3.656l-.935 2.656h-1.655l3.558-9.602h1.74l3.551 9.602zm-1.34-4.003-.909-2.616c-.035-.114-.086-.273-.151-.478-.065-.209-.131-.421-.196-.634-.066-.218-.12-.401-.164-.55-.043.179-.098.38-.163.602-.061.218-.122.423-.183.615-.057.192-.101.34-.131.445l-.916 2.616zm5.211 4.003h-1.544v-10.177h1.544zm3.294 0h-1.543v-10.177h1.543zm6.321-7.241v7.241h-1.537v-7.241zm-.758-2.773c.235 0 .438.063.608.19.174.126.261.344.261.654 0 .305-.087.523-.261.654-.17.126-.373.19-.608.19-.245 0-.452-.064-.622-.19-.165-.131-.248-.349-.248-.654 0-.31.083-.528.248-.654.17-.127.377-.19.622-.19zm6.29 2.636c.815 0 1.449.211 1.903.634.458.419.687 1.093.687 2.021v4.723h-1.537v-4.435c0-.562-.116-.983-.347-1.262-.231-.284-.589-.425-1.073-.425-.702 0-1.19.216-1.465.647-.27.432-.405 1.058-.405 1.877v3.598h-1.537v-7.241h1.197l.216.981h.085c.157-.253.351-.46.582-.621.235-.166.497-.29.785-.373.292-.083.595-.124.909-.124zm7.912 1.308h-1.76v6.07h-1.537v-6.07h-1.183v-.739l1.183-.451v-.504c0-.615.096-1.103.288-1.465.196-.362.475-.621.837-.778.367-.162.803-.242 1.308-.242.332 0 .635.028.91.085.274.052.505.113.693.183l-.399 1.164c-.148-.048-.314-.091-.497-.131-.183-.043-.38-.065-.589-.065-.349 0-.606.109-.772.327-.161.218-.242.536-.242.955v.49h1.76zm7.199 2.433c0 .602-.078 1.136-.235 1.602-.157.467-.386.862-.687 1.184-.301.319-.663.563-1.086.733-.423.165-.9.248-1.432.248-.497 0-.953-.083-1.367-.248-.414-.17-.774-.414-1.079-.733-.301-.322-.534-.717-.7-1.184-.166-.466-.249-1-.249-1.602 0-.798.138-1.474.412-2.027.279-.559.676-.984 1.191-1.276.514-.292 1.127-.438 1.838-.438.667 0 1.255.146 1.765.438.511.292.91.717 1.197 1.276.288.558.432 1.233.432 2.027zm-5.252 0c0 .528.063.979.19 1.354.131.375.331.663.601.863.271.196.62.295 1.047.295s.776-.099 1.046-.295c.271-.2.469-.488.596-.863.126-.375.189-.826.189-1.354s-.063-.974-.189-1.341c-.127-.37-.325-.652-.596-.843-.27-.197-.621-.295-1.053-.295-.636 0-1.101.214-1.393.641-.292.428-.438 1.04-.438 1.838zm-40.158 15.259c.122 0 .255.007.399.02s.268.03.373.052l-.144 1.439c-.092-.026-.205-.046-.34-.059-.131-.013-.249-.02-.353-.02-.275 0-.537.046-.785.138-.249.087-.469.222-.661.405-.192.179-.342.403-.451.674-.109.27-.164.584-.164.942v3.787h-1.543v-7.241h1.203l.21 1.276h.072c.144-.258.322-.493.536-.707.214-.213.458-.383.732-.51.28-.131.585-.196.916-.196zm4.55 0c.646 0 1.2.133 1.662.399s.817.643 1.066 1.131c.248.489.373 1.073.373 1.753v.824h-4.834c.018.702.205 1.243.563 1.622.362.38.867.569 1.517.569.462 0 .877-.043 1.243-.13.37-.092.752-.225 1.144-.399v1.249c-.362.17-.73.294-1.105.373-.375.078-.824.117-1.347.117-.711 0-1.337-.137-1.877-.412-.537-.279-.957-.693-1.263-1.242-.301-.55-.451-1.232-.451-2.048 0-.811.137-1.499.412-2.066s.661-.999 1.158-1.295c.497-.297 1.077-.445 1.739-.445zm0 1.158c-.484 0-.876.157-1.177.471-.296.313-.471.773-.523 1.38h3.296c-.004-.362-.065-.683-.183-.962-.113-.279-.288-.497-.523-.654-.231-.157-.528-.235-.89-.235zm7.226-1.158c.916 0 1.607.203 2.073.608.471.406.707 1.038.707 1.897v4.873h-1.093l-.294-1.027h-.052c-.205.261-.417.477-.635.647s-.471.297-.758.38c-.284.087-.631.13-1.04.13-.432 0-.818-.078-1.158-.235-.34-.161-.608-.406-.804-.733-.197-.327-.295-.741-.295-1.242 0-.746.277-1.306.831-1.681.558-.375 1.399-.582 2.524-.622l1.256-.045v-.38c0-.501-.118-.859-.353-1.072-.231-.214-.558-.321-.981-.321-.362 0-.713.053-1.053.157-.34.105-.672.233-.994.386l-.497-1.086c.353-.187.754-.34 1.203-.457.454-.118.925-.177 1.413-.177zm1.256 3.918-.936.032c-.767.027-1.306.157-1.615.393-.31.235-.464.558-.464.968 0 .357.106.619.32.785.214.161.495.242.844.242.532 0 .972-.151 1.321-.452.353-.305.53-.752.53-1.34zm5.662 3.59c-.863 0-1.557-.314-2.08-.941-.519-.633-.778-1.564-.778-2.793 0-1.243.263-2.183.791-2.819.532-.637 1.232-.955 2.1-.955.366 0 .686.05.961.15.275.096.51.227.706.393.201.166.371.351.51.556h.072c-.021-.135-.048-.329-.078-.582-.026-.258-.039-.495-.039-.713v-2.603h1.543v10.177h-1.203l-.275-.988h-.065c-.131.209-.297.399-.497.569-.197.166-.432.299-.707.399-.27.1-.591.15-.961.15zm.432-1.249c.658 0 1.122-.19 1.393-.569.27-.379.409-.948.418-1.707v-.203c0-.811-.131-1.432-.392-1.864-.262-.436-.739-.654-1.433-.654-.553 0-.976.225-1.268.674-.288.445-.432 1.066-.432 1.864s.144 1.408.432 1.831c.292.419.719.628 1.282.628zm7.872-6.259c.916 0 1.607.203 2.074.608.471.406.706 1.038.706 1.897v4.873h-1.092l-.295-1.027h-.052c-.205.261-.416.477-.634.647s-.471.297-.759.38c-.283.087-.63.13-1.04.13-.432 0-.817-.078-1.158-.235-.34-.161-.608-.406-.804-.733s-.294-.741-.294-1.242c0-.746.277-1.306.83-1.681.558-.375 1.4-.582 2.525-.622l1.256-.045v-.38c0-.501-.118-.859-.353-1.072-.232-.214-.559-.321-.982-.321-.361 0-.712.053-1.053.157-.34.105-.671.233-.994.386l-.497-1.086c.353-.187.755-.34 1.204-.457.453-.118.924-.177 1.412-.177zm1.256 3.918-.935.032c-.768.027-1.306.157-1.616.393-.309.235-.464.558-.464.968 0 .357.107.619.321.785.213.161.494.242.843.242.532 0 .973-.151 1.321-.452.354-.305.53-.752.53-1.34zm4.766-6.717v2.452c0 .284-.008.563-.026.837-.013.271-.026.482-.039.635h.065c.197-.314.469-.578.818-.791.353-.218.804-.327 1.354-.327.859 0 1.55.316 2.073.948.523.628.785 1.559.785 2.793 0 .819-.12 1.508-.36 2.066s-.578.981-1.014 1.269c-.431.284-.939.425-1.523.425-.55 0-.995-.1-1.335-.301-.335-.204-.599-.442-.791-.712h-.111l-.282.883h-1.151v-10.177zm1.766 4.055c-.436 0-.782.087-1.04.261-.253.175-.436.436-.549.785-.113.345-.172.783-.177 1.315v.137c0 .807.127 1.424.38 1.851.257.427.723.641 1.399.641.537 0 .949-.216 1.236-.647.288-.436.432-1.06.432-1.871 0-.82-.144-1.437-.432-1.851-.283-.414-.699-.621-1.249-.621zm6.14 6.122h-1.544v-10.177h1.544zm4.635-7.378c.646 0 1.199.133 1.662.399.462.266.817.643 1.066 1.131.248.489.372 1.073.372 1.753v.824h-4.833c.018.702.205 1.243.563 1.622.361.38.867.569 1.517.569.462 0 .876-.043 1.243-.13.37-.092.752-.225 1.144-.399v1.249c-.362.17-.73.294-1.105.373-.375.078-.824.117-1.347.117-.711 0-1.337-.137-1.878-.412-.536-.279-.957-.693-1.262-1.242-.301-.55-.451-1.232-.451-2.048 0-.811.137-1.499.412-2.066s.661-.999 1.158-1.295c.497-.297 1.077-.445 1.739-.445zm0 1.158c-.484 0-.876.157-1.177.471-.296.313-.471.773-.523 1.38h3.296c-.004-.362-.065-.683-.183-.962-.113-.279-.288-.497-.523-.654-.231-.157-.528-.235-.89-.235zm5.133 3.303v-.413c0-.322.037-.603.111-.843s.198-.465.373-.674c.174-.214.41-.436.706-.667.305-.24.547-.447.726-.621.183-.175.314-.349.393-.524.082-.178.124-.385.124-.621 0-.371-.127-.652-.38-.844-.248-.196-.599-.294-1.053-.294-.401 0-.778.057-1.131.17s-.702.255-1.046.425l-.543-1.151c.396-.218.826-.392 1.288-.523.467-.135.979-.203 1.537-.203.89 0 1.576.216 2.06.648.489.431.733 1 .733 1.707 0 .388-.061.721-.183 1-.122.275-.303.53-.543.766-.236.231-.521.475-.857.732-.275.218-.486.408-.634.569-.144.157-.245.316-.301.478-.053.161-.079.355-.079.582v.301zm-.249 2.106c0-.358.092-.609.275-.753.187-.148.416-.222.687-.222.261 0 .486.074.673.222.188.144.282.395.282.753 0 .348-.094.601-.282.758-.187.153-.412.229-.673.229-.271 0-.5-.076-.687-.229-.183-.157-.275-.41-.275-.758z" fill="#f5f7f9"/><path d="m582.932 131.637c.349-.348.349-.914 0-1.263l-5.683-5.682c-.348-.349-.914-.349-1.263 0-.348.348-.348.914 0 1.262l5.052 5.052-5.052 5.051c-.348.349-.348.914 0 1.263.349.349.915.349 1.263 0zm-139.452.262h138.821v-1.786h-138.821z" fill="#000"/><rect fill="#fff" height="38.0949" rx="6.69735" width="49.6824" x="482.126" y="111.98"/><rect height="38.0949" rx="6.69735" stroke="#000" stroke-width=".892981" width="49.6824" x="482.126" y="111.98"/><path d="m500.292 131.328 2.269-4.363h1.694l-3.178 5.847v3.715h-1.564v-3.656l-3.185-5.906h1.707zm7.5-2.178c.645 0 1.199.133 1.661.399s.818.643 1.066 1.131c.249.489.373 1.073.373 1.753v.824h-4.833c.017.702.205 1.243.562 1.622.362.38.868.569 1.518.569.462 0 .876-.043 1.242-.131.371-.091.752-.224 1.145-.399v1.25c-.362.17-.731.294-1.106.372-.375.079-.824.118-1.347.118-.711 0-1.336-.137-1.877-.412-.536-.279-.957-.693-1.262-1.243-.301-.549-.452-1.231-.452-2.047 0-.811.138-1.5.412-2.066.275-.567.661-.999 1.158-1.295.497-.297 1.077-.445 1.74-.445zm0 1.157c-.484 0-.877.157-1.177.471-.297.314-.471.774-.524 1.38h3.297c-.005-.362-.066-.682-.183-.961-.114-.279-.288-.497-.524-.654-.231-.157-.527-.236-.889-.236zm9.253 4.154c0 .475-.116.876-.347 1.203s-.569.576-1.014.746c-.44.165-.981.248-1.622.248-.505 0-.941-.037-1.308-.111-.362-.07-.704-.179-1.027-.327v-1.328c.345.162.731.301 1.158.419.432.118.839.176 1.223.176.506 0 .87-.078 1.092-.235.223-.161.334-.375.334-.641 0-.157-.046-.296-.137-.419-.088-.126-.253-.255-.497-.385-.24-.136-.593-.297-1.06-.484-.458-.184-.844-.367-1.158-.55s-.551-.403-.713-.66c-.161-.262-.242-.596-.242-1.001 0-.641.253-1.127.759-1.459.51-.335 1.184-.503 2.021-.503.445 0 .863.046 1.256.137.397.087.785.216 1.164.386l-.484 1.158c-.327-.144-.656-.262-.988-.354-.327-.095-.66-.143-1-.143-.397 0-.7.061-.909.183-.205.122-.308.296-.308.523 0 .17.05.314.151.432.1.117.272.235.516.353.249.118.593.264 1.034.438.431.166.804.34 1.118.523.318.179.563.399.733.661.17.261.255.599.255 1.014z" fill="#000"/><path d="m1280.13 129.144h.89v-.893h-.89zm-.63 102.185c.35.348.91.348 1.26 0l5.68-5.683c.35-.349.35-.914 0-1.263-.34-.349-.91-.349-1.26 0l-5.05 5.051-5.05-5.051c-.35-.349-.92-.349-1.26 0-.35.349-.35.914 0 1.263zm-.26-102.185v101.553h1.78v-101.553zm.89-.893h-35.4v1.786h35.4z" fill="#000"/><path d="m1068.34 131.637c.35-.348.35-.914 0-1.263l-5.68-5.682c-.35-.349-.92-.349-1.27 0-.35.348-.35.914 0 1.262l5.05 5.052-5.05 5.051c-.35.349-.35.914 0 1.263s.92.349 1.27 0zm-139.453.262h138.823v-1.786h-138.823z" fill="#000"/><rect fill="#fff" height="38.0949" rx="6.69735" width="49.6824" x="955.42" y="111.98"/><rect height="38.0949" rx="6.69735" stroke="#000" stroke-width=".892981" width="49.6824" x="955.42" y="111.98"/><path d="m973.586 131.328 2.269-4.363h1.694l-3.178 5.847v3.715h-1.564v-3.656l-3.185-5.906h1.707zm7.5-2.178c.645 0 1.199.133 1.661.399s.818.643 1.066 1.131c.249.489.373 1.073.373 1.753v.824h-4.833c.017.702.205 1.243.562 1.622.362.38.868.569 1.517.569.463 0 .877-.043 1.243-.131.371-.091.752-.224 1.145-.399v1.25c-.362.17-.731.294-1.106.372-.375.079-.824.118-1.347.118-.711 0-1.336-.137-1.877-.412-.536-.279-.957-.693-1.262-1.243-.301-.549-.452-1.231-.452-2.047 0-.811.138-1.5.412-2.066.275-.567.661-.999 1.158-1.295.497-.297 1.077-.445 1.74-.445zm0 1.157c-.484 0-.877.157-1.177.471-.297.314-.471.774-.524 1.38h3.297c-.005-.362-.066-.682-.183-.961-.114-.279-.288-.497-.524-.654-.231-.157-.527-.236-.889-.236zm9.253 4.154c0 .475-.116.876-.347 1.203s-.569.576-1.014.746c-.44.165-.981.248-1.622.248-.505 0-.942-.037-1.308-.111-.362-.07-.704-.179-1.027-.327v-1.328c.345.162.731.301 1.158.419.432.118.839.176 1.223.176.506 0 .87-.078 1.092-.235.223-.161.334-.375.334-.641 0-.157-.046-.296-.137-.419-.088-.126-.253-.255-.498-.385-.239-.136-.593-.297-1.059-.484-.458-.184-.844-.367-1.158-.55s-.551-.403-.713-.66c-.161-.262-.242-.596-.242-1.001 0-.641.253-1.127.759-1.459.51-.335 1.184-.503 2.021-.503.445 0 .863.046 1.256.137.397.087.785.216 1.164.386l-.484 1.158c-.327-.144-.656-.262-.988-.354-.327-.095-.66-.143-1-.143-.397 0-.7.061-.909.183-.205.122-.308.296-.308.523 0 .17.05.314.151.432.1.117.272.235.516.353.249.118.593.264 1.034.438.431.166.804.34 1.118.523.318.179.563.399.733.661.17.261.255.599.255 1.014z" fill="#000"/><path d="m1064.28 310.428c-.35-.348-.35-.914 0-1.263l5.68-5.682c.35-.349.92-.349 1.27 0 .34.348.34.914 0 1.262l-5.06 5.052 5.06 5.051c.34.349.34.914 0 1.263-.35.349-.92.349-1.27 0zm139.45.262h-138.82v-1.786h138.82z" fill="#000"/><rect fill="#fff" height="38.0949" rx="6.69735" width="49.6824" x="1111.01" y="290.771"/><rect height="38.0949" rx="6.69735" stroke="#000" stroke-width=".892981" width="49.6824" x="1111.01" y="290.771"/><path d="m1129.18 310.119 2.27-4.363h1.69l-3.18 5.847v3.715h-1.56v-3.656l-3.19-5.906h1.71zm7.5-2.178c.64 0 1.19.133 1.66.399.46.266.81.643 1.06 1.131.25.489.38 1.073.38 1.753v.824h-4.84c.02.702.21 1.243.56 1.622.37.38.87.569 1.52.569.46 0 .88-.043 1.24-.131.38-.091.76-.224 1.15-.399v1.25c-.36.17-.73.294-1.11.372-.37.079-.82.118-1.34.118-.71 0-1.34-.137-1.88-.412-.54-.279-.96-.693-1.26-1.243-.3-.549-.45-1.231-.45-2.047 0-.811.13-1.5.41-2.066.27-.567.66-.999 1.16-1.295.49-.297 1.07-.445 1.74-.445zm0 1.157c-.49 0-.88.157-1.18.471s-.47.774-.52 1.38h3.29c0-.362-.06-.682-.18-.961-.11-.279-.29-.497-.52-.654-.24-.157-.53-.236-.89-.236zm9.25 4.154c0 .475-.12.876-.35 1.203s-.57.576-1.01.746c-.44.165-.98.248-1.62.248-.51 0-.95-.037-1.31-.111-.36-.07-.71-.179-1.03-.327v-1.328c.35.162.73.301 1.16.419s.84.176 1.22.176c.51 0 .87-.078 1.09-.235.23-.161.34-.375.34-.641 0-.157-.05-.296-.14-.419-.09-.126-.25-.255-.5-.385-.24-.136-.59-.297-1.06-.484-.45-.184-.84-.367-1.15-.55-.32-.183-.56-.403-.72-.66-.16-.262-.24-.596-.24-1.001 0-.641.25-1.127.76-1.459.51-.335 1.18-.503 2.02-.503.45 0 .86.046 1.26.137.39.087.78.216 1.16.386l-.48 1.158c-.33-.144-.66-.262-.99-.353-.33-.096-.66-.144-1-.144-.4 0-.7.061-.91.183s-.31.296-.31.523c0 .17.05.314.15.432.1.117.27.235.52.353s.59.264 1.03.438c.43.166.81.34 1.12.523.32.179.56.399.73.661.17.261.26.599.26 1.014z" fill="#000"/><path d="m373.904 310.428c-.349-.348-.349-.914 0-1.263l5.683-5.682c.348-.349.914-.349 1.262 0 .349.348.349.914 0 1.262l-5.051 5.052 5.051 5.051c.349.349.349.914 0 1.263-.348.349-.914.349-1.262 0zm139.452.262h-138.821v-1.786h138.821z" fill="#000"/><rect fill="#fff" height="38.0949" rx="6.69735" width="49.6824" x="420.634" y="290.771"/><rect height="38.0949" rx="6.69735" stroke="#000" stroke-width=".892981" width="49.6824" x="420.634" y="290.771"/><g fill="#000"><path d="m438.8 310.119 2.269-4.363h1.694l-3.179 5.847v3.715h-1.563v-3.656l-3.185-5.906h1.707zm7.5-2.178c.645 0 1.199.133 1.661.399s.817.643 1.066 1.131c.249.489.373 1.073.373 1.753v.824h-4.834c.018.702.205 1.243.563 1.622.362.38.868.569 1.517.569.463 0 .877-.043 1.243-.131.371-.091.752-.224 1.145-.399v1.25c-.362.17-.731.294-1.106.372-.375.079-.824.118-1.347.118-.711 0-1.337-.137-1.877-.412-.536-.279-.957-.693-1.262-1.243-.301-.549-.452-1.231-.452-2.047 0-.811.138-1.5.412-2.066.275-.567.661-.999 1.158-1.295.497-.297 1.077-.445 1.74-.445zm0 1.157c-.484 0-.877.157-1.178.471-.296.314-.471.774-.523 1.38h3.297c-.005-.362-.066-.682-.184-.961-.113-.279-.287-.497-.523-.654-.231-.157-.527-.236-.889-.236zm9.253 4.154c0 .475-.116.876-.347 1.203s-.569.576-1.014.746c-.44.165-.981.248-1.622.248-.506 0-.942-.037-1.308-.111-.362-.07-.704-.179-1.027-.327v-1.328c.345.162.731.301 1.158.419.432.118.839.176 1.223.176.506 0 .87-.078 1.092-.235.223-.161.334-.375.334-.641 0-.157-.046-.296-.138-.419-.087-.126-.252-.255-.497-.385-.239-.136-.593-.297-1.059-.484-.458-.184-.844-.367-1.158-.55s-.551-.403-.713-.66c-.161-.262-.242-.596-.242-1.001 0-.641.253-1.127.759-1.459.51-.335 1.184-.503 2.021-.503.445 0 .863.046 1.256.137.396.087.785.216 1.164.386l-.484 1.158c-.327-.144-.656-.262-.988-.353-.327-.096-.66-.144-1-.144-.397 0-.7.061-.91.183-.204.122-.307.296-.307.523 0 .17.05.314.151.432.1.117.272.235.516.353.249.118.593.264 1.034.438.431.166.804.34 1.118.523.318.179.562.399.733.661.17.261.255.599.255 1.014z"/><path d="m834.155 309.257c-.349.349-.349.914 0 1.263l5.683 5.683c.348.349.914.349 1.262 0 .349-.349.349-.914 0-1.263l-5.051-5.051 5.051-5.052c.349-.349.349-.914 0-1.263-.348-.348-.914-.348-1.262 0zm52.805-.261h-52.174v1.786h52.174z"/><path d="m666.453 309.257c-.349.349-.349.914 0 1.263l5.682 5.683c.349.349.915.349 1.263 0 .349-.349.349-.914 0-1.263l-5.051-5.051 5.051-5.052c.349-.349.349-.914 0-1.263-.348-.348-.914-.348-1.263 0zm52.805-.261h-52.174v1.786h52.174z"/><path d="m194.369 309.369c-.349.348-.349.914 0 1.262l5.682 5.683c.349.349.915.349 1.263 0 .349-.348.349-.914 0-1.263l-5.051-5.051 5.051-5.051c.349-.349.349-.915 0-1.263-.348-.349-.914-.349-1.263 0zm44.631-.262h-44v1.786h44z"/><path d="m291.316 131.637c.349-.348.349-.914 0-1.263l-5.683-5.682c-.349-.349-.914-.349-1.263 0-.348.348-.348.914 0 1.262l5.052 5.052-5.052 5.051c-.348.349-.348.914 0 1.263.349.349.914.349 1.263 0zm-52.806.262h52.175v-1.786h-52.175z"/><path d="m776.722 131.637c.349-.348.349-.914 0-1.263l-5.683-5.682c-.348-.349-.914-.349-1.263 0-.348.348-.348.914 0 1.262l5.052 5.052-5.052 5.051c-.348.349-.348.914 0 1.263.349.349.915.349 1.263 0zm-52.805.262h52.174v-1.786h-52.174z"/><path d="m334.422 32.2334c-1.026 0-1.82.3867-2.382 1.1602-.563.7675-.844 1.8398-.844 3.2168 0 2.8652 1.075 4.2978 3.226 4.2978.902 0 1.995-.2256 3.278-.6768v2.2852c-1.055.4395-2.232.6592-3.533.6592-1.869 0-3.299-.5654-4.289-1.6963-.99-1.1367-1.486-2.7656-1.486-4.8867 0-1.336.244-2.5049.73-3.5069.486-1.0078 1.183-1.7783 2.092-2.3115.914-.539 1.983-.8086 3.208-.8086 1.248 0 2.502.3018 3.761.9053l-.878 2.2148c-.481-.2285-.964-.4277-1.451-.5976-.486-.1699-.964-.2549-1.432-.2549zm14.433 10.7666h-2.681v-5.7393c0-1.4179-.527-2.1269-1.582-2.1269-.75 0-1.292.2549-1.626.7646-.334.5098-.501 1.336-.501 2.4786v4.623h-2.68v-13.6758h2.68v2.7862c0 .2167-.02.7265-.061 1.5292l-.062.7911h.141c.598-.961 1.547-1.4414 2.848-1.4414 1.154 0 2.03.3105 2.628.9316.597.6211.896 1.5117.896 2.6719zm6.383-8.1035c-.569 0-1.014.1816-1.336.5449-.322.3574-.507.8672-.554 1.5293h3.762c-.012-.6621-.185-1.1719-.519-1.5293-.334-.3633-.785-.5449-1.353-.5449zm.378 8.2793c-1.582 0-2.819-.4365-3.709-1.3096-.891-.873-1.336-2.1094-1.336-3.709 0-1.6465.41-2.9179 1.23-3.8144.826-.9024 1.966-1.3535 3.419-1.3535 1.389 0 2.47.3955 3.243 1.1865.774.791 1.16 1.8838 1.16 3.2783v1.3008h-6.336c.029.7617.254 1.3564.676 1.7842.422.4277 1.014.6416 1.776.6416.591 0 1.151-.0616 1.678-.1846.528-.1231 1.079-.3193 1.653-.5889v2.0742c-.469.2344-.97.4073-1.503.5186-.533.1172-1.184.1758-1.951.1758zm9.731 0c-3.059 0-4.588-1.6787-4.588-5.0362 0-1.6699.416-2.9443 1.248-3.8232.832-.8848 2.024-1.3271 3.577-1.3271 1.137 0 2.156.2226 3.059.6679l-.791 2.0742c-.422-.1699-.815-.3076-1.178-.413-.363-.1114-.727-.167-1.09-.167-1.394 0-2.092.9902-2.092 2.9707 0 1.9218.698 2.8828 2.092 2.8828.516 0 .993-.0674 1.433-.2022.439-.1406.879-.3574 1.318-.6504v2.294c-.433.2754-.873.4658-1.318.5713-.44.1054-.996.1582-1.67.1582zm7.402-5.5196 1.169-1.4941 2.751-2.9883h3.023l-3.902 4.2627 4.14 5.5635h-3.094l-2.83-3.9814-1.152.9228v3.0586h-2.68v-13.6758h2.68v6.0996l-.14 2.2324zm8.026-7.0224c0-.8731.487-1.3096 1.459-1.3096.973 0 1.459.4365 1.459 1.3096 0 .416-.123.7412-.369.9756-.24.2285-.603.3427-1.09.3427-.972 0-1.459-.4394-1.459-1.3183zm2.795 12.3662h-2.681v-9.8262h2.681zm11.445 0h-2.68v-5.7393c0-.7089-.126-1.2392-.378-1.5908-.252-.3574-.654-.5361-1.204-.5361-.75 0-1.292.2519-1.626.7558-.334.4981-.501 1.3272-.501 2.4874v4.623h-2.681v-9.8262h2.048l.36 1.2569h.15c.298-.4746.709-.8321 1.23-1.0723.527-.2461 1.125-.3691 1.793-.3691 1.143 0 2.01.3105 2.602.9316.591.6152.887 1.5059.887 2.6719zm10.865-9.8262v1.3623l-1.538.3955c.281.4395.422.9317.422 1.4766 0 1.0547-.369 1.8779-1.107 2.4697-.733.586-1.752.8789-3.059.8789l-.483-.0263-.396-.044c-.275.211-.413.4453-.413.7031 0 .3868.492.5801 1.477.5801h1.67c1.078 0 1.898.2315 2.46.6944.569.4629.853 1.1425.853 2.039 0 1.1485-.48 2.0391-1.441 2.6719-.955.6328-2.33.9492-4.122.9492-1.372 0-2.42-.2402-3.147-.7207-.721-.4746-1.081-1.1426-1.081-2.0039 0-.5918.185-1.0869.554-1.4853.369-.3985.911-.6827 1.626-.8526-.276-.1172-.516-.3076-.721-.5713-.205-.2695-.308-.5537-.308-.8525 0-.375.109-.6856.326-.9317.216-.2519.53-.498.94-.7382-.516-.2227-.926-.5801-1.231-1.0723-.298-.4922-.448-1.0723-.448-1.7402 0-1.0723.349-1.9014 1.046-2.4873.697-.586 1.694-.8789 2.988-.8789.276 0 .601.0263.976.0791.381.0468.624.082.73.1054zm-7.585 11.2149c0 .3691.176.6592.528.8701.357.2109.855.3164 1.494.3164.961 0 1.714-.1318 2.259-.3955.544-.2637.817-.624.817-1.0811 0-.3691-.161-.624-.483-.7646-.323-.1406-.821-.211-1.495-.211h-1.388c-.492 0-.906.1143-1.24.3428-.328.2344-.492.542-.492.9229zm.976-7.9981c0 .5332.12.9551.36 1.2656.246.3106.618.4659 1.116.4659.504 0 .873-.1553 1.108-.4659.234-.3105.351-.7324.351-1.2656 0-1.1836-.486-1.7754-1.459-1.7754-.984 0-1.476.5918-1.476 1.7754z"/><path d="m819.422 32.2334c-1.026 0-1.82.3867-2.382 1.1602-.563.7675-.844 1.8398-.844 3.2168 0 2.8652 1.075 4.2978 3.226 4.2978.902 0 1.995-.2256 3.278-.6768v2.2852c-1.055.4395-2.232.6592-3.533.6592-1.869 0-3.299-.5654-4.289-1.6963-.99-1.1367-1.486-2.7656-1.486-4.8867 0-1.336.244-2.5049.73-3.5069.486-1.0078 1.183-1.7783 2.092-2.3115.914-.539 1.983-.8086 3.208-.8086 1.248 0 2.502.3018 3.761.9053l-.878 2.2148c-.481-.2285-.964-.4277-1.451-.5976-.486-.1699-.964-.2549-1.432-.2549zm14.433 10.7666h-2.681v-5.7393c0-1.4179-.527-2.1269-1.582-2.1269-.75 0-1.292.2549-1.626.7646-.334.5098-.501 1.336-.501 2.4786v4.623h-2.68v-13.6758h2.68v2.7862c0 .2167-.02.7265-.061 1.5292l-.062.7911h.141c.598-.961 1.547-1.4414 2.848-1.4414 1.154 0 2.03.3105 2.628.9316.597.6211.896 1.5117.896 2.6719zm6.383-8.1035c-.569 0-1.014.1816-1.336.5449-.322.3574-.507.8672-.554 1.5293h3.762c-.012-.6621-.185-1.1719-.519-1.5293-.334-.3633-.785-.5449-1.353-.5449zm.378 8.2793c-1.582 0-2.819-.4365-3.709-1.3096-.891-.873-1.336-2.1094-1.336-3.709 0-1.6465.41-2.9179 1.23-3.8144.826-.9024 1.966-1.3535 3.419-1.3535 1.389 0 2.47.3955 3.243 1.1865.774.791 1.16 1.8838 1.16 3.2783v1.3008h-6.336c.029.7617.254 1.3564.676 1.7842.422.4277 1.014.6416 1.776.6416.591 0 1.151-.0616 1.678-.1846.528-.1231 1.079-.3193 1.653-.5889v2.0742c-.469.2344-.97.4073-1.503.5186-.533.1172-1.184.1758-1.951.1758zm9.731 0c-3.059 0-4.588-1.6787-4.588-5.0362 0-1.6699.416-2.9443 1.248-3.8232.832-.8848 2.024-1.3271 3.577-1.3271 1.137 0 2.156.2226 3.059.6679l-.791 2.0742c-.422-.1699-.815-.3076-1.178-.413-.363-.1114-.727-.167-1.09-.167-1.394 0-2.092.9902-2.092 2.9707 0 1.9218.698 2.8828 2.092 2.8828.516 0 .993-.0674 1.433-.2022.439-.1406.879-.3574 1.318-.6504v2.294c-.433.2754-.873.4658-1.318.5713-.44.1054-.996.1582-1.67.1582zm7.402-5.5196 1.169-1.4941 2.751-2.9883h3.023l-3.902 4.2627 4.14 5.5635h-3.094l-2.83-3.9814-1.152.9228v3.0586h-2.68v-13.6758h2.68v6.0996l-.14 2.2324zm8.026-7.0224c0-.8731.487-1.3096 1.459-1.3096.973 0 1.459.4365 1.459 1.3096 0 .416-.123.7412-.369.9756-.24.2285-.603.3427-1.09.3427-.972 0-1.459-.4394-1.459-1.3183zm2.795 12.3662h-2.681v-9.8262h2.681zm11.445 0h-2.68v-5.7393c0-.7089-.126-1.2392-.378-1.5908-.252-.3574-.654-.5361-1.204-.5361-.75 0-1.292.2519-1.626.7558-.334.4981-.501 1.3272-.501 2.4874v4.623h-2.681v-9.8262h2.048l.36 1.2569h.15c.298-.4746.709-.8321 1.23-1.0723.527-.2461 1.125-.3691 1.793-.3691 1.143 0 2.01.3105 2.602.9316.591.6152.887 1.5059.887 2.6719zm10.865-9.8262v1.3623l-1.538.3955c.281.4395.422.9317.422 1.4766 0 1.0547-.369 1.8779-1.107 2.4697-.733.586-1.752.8789-3.059.8789l-.483-.0263-.396-.044c-.275.211-.413.4453-.413.7031 0 .3868.492.5801 1.477.5801h1.67c1.078 0 1.898.2315 2.46.6944.569.4629.853 1.1425.853 2.039 0 1.1485-.48 2.0391-1.441 2.6719-.955.6328-2.33.9492-4.122.9492-1.372 0-2.42-.2402-3.147-.7207-.721-.4746-1.081-1.1426-1.081-2.0039 0-.5918.185-1.0869.554-1.4853.369-.3985.911-.6827 1.626-.8526-.276-.1172-.516-.3076-.721-.5713-.205-.2695-.308-.5537-.308-.8525 0-.375.109-.6856.326-.9317.216-.2519.53-.498.94-.7382-.516-.2227-.926-.5801-1.231-1.0723-.298-.4922-.448-1.0723-.448-1.7402 0-1.0723.349-1.9014 1.046-2.4873.697-.586 1.694-.8789 2.988-.8789.276 0 .601.0263.976.0791.381.0468.624.082.73.1054zm-7.585 11.2149c0 .3691.176.6592.528.8701.357.2109.855.3164 1.494.3164.961 0 1.714-.1318 2.259-.3955.544-.2637.817-.624.817-1.0811 0-.3691-.161-.624-.483-.7646-.323-.1406-.821-.211-1.495-.211h-1.388c-.492 0-.906.1143-1.24.3428-.328.2344-.492.542-.492.9229zm.976-7.9981c0 .5332.12.9551.36 1.2656.246.3106.618.4659 1.116.4659.504 0 .873-.1553 1.108-.4659.234-.3105.351-.7324.351-1.2656 0-1.1836-.486-1.7754-1.459-1.7754-.984 0-1.476.5918-1.476 1.7754z"/><path d="m553.422 210.233c-1.026 0-1.82.387-2.382 1.161-.563.767-.844 1.839-.844 3.216 0 2.866 1.075 4.298 3.226 4.298.902 0 1.995-.225 3.278-.677v2.286c-1.055.439-2.232.659-3.533.659-1.869 0-3.299-.566-4.289-1.697-.99-1.136-1.486-2.765-1.486-4.886 0-1.336.244-2.505.73-3.507.486-1.008 1.183-1.778 2.092-2.312.914-.539 1.983-.808 3.208-.808 1.248 0 2.502.302 3.761.905l-.878 2.215c-.481-.229-.964-.428-1.451-.598-.486-.17-.964-.255-1.432-.255zm14.433 10.767h-2.681v-5.739c0-1.418-.527-2.127-1.582-2.127-.75 0-1.292.255-1.626.764-.334.51-.501 1.336-.501 2.479v4.623h-2.68v-13.676h2.68v2.786c0 .217-.02.727-.061 1.53l-.062.791h.141c.598-.961 1.547-1.442 2.848-1.442 1.154 0 2.03.311 2.628.932.597.621.896 1.512.896 2.672zm6.383-8.104c-.569 0-1.014.182-1.336.545-.322.358-.507.868-.554 1.53h3.762c-.012-.662-.185-1.172-.519-1.53-.334-.363-.785-.545-1.353-.545zm.378 8.28c-1.582 0-2.819-.437-3.709-1.31-.891-.873-1.336-2.109-1.336-3.709 0-1.646.41-2.918 1.23-3.814.826-.903 1.966-1.354 3.419-1.354 1.389 0 2.47.396 3.243 1.187.774.791 1.16 1.884 1.16 3.278v1.301h-6.336c.029.762.254 1.356.676 1.784s1.014.642 1.776.642c.591 0 1.151-.062 1.678-.185.528-.123 1.079-.319 1.653-.589v2.074c-.469.235-.97.408-1.503.519-.533.117-1.184.176-1.951.176zm9.731 0c-3.059 0-4.588-1.679-4.588-5.036 0-1.67.416-2.945 1.248-3.824.832-.884 2.024-1.327 3.577-1.327 1.137 0 2.156.223 3.059.668l-.791 2.074c-.422-.169-.815-.307-1.178-.413-.363-.111-.727-.167-1.09-.167-1.394 0-2.092.991-2.092 2.971 0 1.922.698 2.883 2.092 2.883.516 0 .993-.067 1.433-.202.439-.141.879-.358 1.318-.651v2.294c-.433.276-.873.466-1.318.572-.44.105-.996.158-1.67.158zm7.402-5.52 1.169-1.494 2.751-2.988h3.023l-3.902 4.263 4.14 5.563h-3.094l-2.83-3.981-1.152.922v3.059h-2.68v-13.676h2.68v6.1l-.14 2.232zm8.026-7.022c0-.873.487-1.31 1.459-1.31.973 0 1.459.437 1.459 1.31 0 .416-.123.741-.369.975-.24.229-.603.343-1.09.343-.972 0-1.459-.439-1.459-1.318zm2.795 12.366h-2.681v-9.826h2.681zm11.445 0h-2.68v-5.739c0-.709-.126-1.24-.378-1.591-.252-.358-.654-.536-1.204-.536-.75 0-1.292.252-1.626.756-.334.498-.501 1.327-.501 2.487v4.623h-2.681v-9.826h2.048l.36 1.257h.15c.298-.475.709-.832 1.23-1.073.527-.246 1.125-.369 1.793-.369 1.143 0 2.01.311 2.602.932.591.615.887 1.506.887 2.672zm10.865-9.826v1.362l-1.538.396c.281.439.422.931.422 1.476 0 1.055-.369 1.878-1.107 2.47-.733.586-1.752.879-3.059.879l-.483-.027-.396-.043c-.275.21-.413.445-.413.703 0 .386.492.58 1.477.58h1.67c1.078 0 1.898.231 2.46.694.569.463.853 1.143.853 2.039 0 1.149-.48 2.039-1.441 2.672-.955.633-2.33.949-4.122.949-1.372 0-2.42-.24-3.147-.72-.721-.475-1.081-1.143-1.081-2.004 0-.592.185-1.087.554-1.486.369-.398.911-.682 1.626-.852-.276-.117-.516-.308-.721-.572-.205-.269-.308-.553-.308-.852 0-.375.109-.686.326-.932.216-.252.53-.498.94-.738-.516-.223-.926-.58-1.231-1.072-.298-.492-.448-1.073-.448-1.741 0-1.072.349-1.901 1.046-2.487s1.694-.879 2.988-.879c.276 0 .601.027.976.079.381.047.624.082.73.106zm-7.585 11.215c0 .369.176.659.528.87.357.211.855.316 1.494.316.961 0 1.714-.132 2.259-.395.544-.264.817-.624.817-1.081 0-.37-.161-.624-.483-.765-.323-.141-.821-.211-1.495-.211h-1.388c-.492 0-.906.114-1.24.343-.328.234-.492.542-.492.923zm.976-7.998c0 .533.12.955.36 1.265.246.311.618.466 1.116.466.504 0 .873-.155 1.108-.466.234-.31.351-.732.351-1.265 0-1.184-.486-1.776-1.459-1.776-.984 0-1.476.592-1.476 1.776z"/></g><path d="m1228 178h99v40h-99z" fill="#ffe81e"/><path d="m1245.42 194.233c-1.02 0-1.82.387-2.38 1.161-.56.767-.84 1.839-.84 3.216 0 2.866 1.07 4.298 3.22 4.298.9 0 2-.225 3.28-.677v2.286c-1.05.439-2.23.659-3.53.659-1.87 0-3.3-.566-4.29-1.697-.99-1.136-1.49-2.765-1.49-4.886 0-1.336.25-2.505.73-3.507.49-1.008 1.19-1.778 2.09-2.312.92-.539 1.99-.808 3.21-.808 1.25 0 2.5.302 3.76.905l-.88 2.215c-.48-.229-.96-.428-1.45-.598-.48-.17-.96-.255-1.43-.255zm14.44 10.767h-2.69v-5.739c0-1.418-.52-2.127-1.58-2.127-.75 0-1.29.255-1.62.764-.34.51-.5 1.336-.5 2.479v4.623h-2.69v-13.676h2.69v2.786c0 .217-.03.727-.07 1.53l-.06.791h.14c.6-.961 1.55-1.442 2.85-1.442 1.15 0 2.03.311 2.63.932s.9 1.512.9 2.672zm6.38-8.104c-.57 0-1.02.182-1.34.545-.32.358-.51.868-.55 1.53h3.76c-.01-.662-.18-1.172-.52-1.53-.33-.363-.78-.545-1.35-.545zm.38 8.28c-1.59 0-2.82-.437-3.71-1.31s-1.34-2.109-1.34-3.709c0-1.646.41-2.918 1.23-3.814.83-.903 1.97-1.354 3.42-1.354 1.39 0 2.47.396 3.24 1.187.78.791 1.16 1.884 1.16 3.278v1.301h-6.33c.03.762.25 1.356.67 1.784.43.428 1.02.642 1.78.642.59 0 1.15-.062 1.68-.185.52-.123 1.08-.319 1.65-.589v2.074c-.47.235-.97.408-1.5.519-.54.117-1.19.176-1.95.176zm9.73 0c-3.06 0-4.59-1.679-4.59-5.036 0-1.67.42-2.945 1.25-3.824.83-.884 2.02-1.327 3.57-1.327 1.14 0 2.16.223 3.06.668l-.79 2.074c-.42-.169-.81-.307-1.18-.413-.36-.111-.72-.167-1.09-.167-1.39 0-2.09.991-2.09 2.971 0 1.922.7 2.883 2.09 2.883.52 0 1-.067 1.44-.202.44-.141.88-.358 1.32-.651v2.294c-.44.276-.88.466-1.32.572-.44.105-1 .158-1.67.158zm7.4-5.52 1.17-1.494 2.75-2.988h3.02l-3.9 4.263 4.14 5.563h-3.09l-2.83-3.981-1.16.922v3.059h-2.68v-13.676h2.68v6.1l-.14 2.232zm8.03-7.022c0-.873.48-1.31 1.45-1.31.98 0 1.46.437 1.46 1.31 0 .416-.12.741-.37.975-.24.229-.6.343-1.09.343-.97 0-1.45-.439-1.45-1.318zm2.79 12.366h-2.68v-9.826h2.68zm11.45 0h-2.69v-5.739c0-.709-.12-1.24-.37-1.591-.26-.358-.66-.536-1.21-.536-.75 0-1.29.252-1.62.756-.34.498-.5 1.327-.5 2.487v4.623h-2.69v-9.826h2.05l.36 1.257h.15c.3-.475.71-.832 1.23-1.073.53-.246 1.13-.369 1.8-.369 1.14 0 2.01.311 2.6.932.59.615.89 1.506.89 2.672zm10.86-9.826v1.362l-1.54.396c.28.439.42.931.42 1.476 0 1.055-.37 1.878-1.1 2.47-.74.586-1.76.879-3.06.879l-.49-.027-.39-.043c-.28.21-.41.445-.41.703 0 .386.49.58 1.47.58h1.67c1.08 0 1.9.231 2.46.694.57.463.86 1.143.86 2.039 0 1.149-.48 2.039-1.45 2.672-.95.633-2.32.949-4.12.949-1.37 0-2.42-.24-3.14-.72-.72-.475-1.09-1.143-1.09-2.004 0-.592.19-1.087.56-1.486.37-.398.91-.682 1.62-.852-.27-.117-.51-.308-.72-.572-.2-.269-.3-.553-.3-.852 0-.375.1-.686.32-.932.22-.252.53-.498.94-.738-.51-.223-.92-.58-1.23-1.072-.3-.492-.45-1.073-.45-1.741 0-1.072.35-1.901 1.05-2.487s1.69-.879 2.99-.879c.27 0 .6.027.97.079.38.047.63.082.73.106zm-7.58 11.215c0 .369.17.659.52.87.36.211.86.316 1.5.316.96 0 1.71-.132 2.26-.395.54-.264.81-.624.81-1.081 0-.37-.16-.624-.48-.765s-.82-.211-1.49-.211h-1.39c-.5 0-.91.114-1.24.343-.33.234-.49.542-.49.923zm.97-7.998c0 .533.12.955.36 1.265.25.311.62.466 1.12.466s.87-.155 1.1-.466c.24-.31.36-.732.36-1.265 0-1.184-.49-1.776-1.46-1.776-.99 0-1.48.592-1.48 1.776z" fill="#000"/></svg>