<svg width="24" height="24" viewBox="0 0 24 24" fill="none" xmlns="http://www.w3.org/2000/svg">
<path fill-rule="evenodd" clip-rule="evenodd" d="M6 2C3.79086 2 2 3.79086 2 6V18C2 20.2091 3.79086 22 6 22H18C20.2091 22 22 20.2091 22 18V6C22 3.79086 20.2091 2 18 2H6ZM4 6C4 4.89543 4.89543 4 6 4H18C19.1046 4 20 4.89543 20 6V18C20 19.1046 19.1046 20 18 20H6C4.89543 20 4 19.1046 4 18V6ZM8.01344 17C7.38344 17 7 16.58 7 15.95V10.01C7 9.38 7.38344 9 8.01344 9C8.64344 9 9.01344 9.38 9.01344 10.01V16C9.01344 16.63 8.64344 17 8.01344 17ZM7.01172 7C7.01172 6.44772 7.45943 6 8.01172 6C8.564 6 9.01172 6.44772 9.01172 7C9.01172 7.55228 8.564 8 8.01172 8C7.45943 8 7.01172 7.55228 7.01172 7ZM11.0117 17C10.3817 17 10.0312 16.58 10.0312 15.95V10.01C10.0312 9.38 10.3817 9 11.0117 9C11.6417 9 12.0117 9.37 12.0117 10C12.5367 9.325 12.8567 9 14.0117 9C15.5117 9 17.0117 10.155 17.0117 12V16C17.0117 16.63 16.6417 17 16.0117 17C15.3817 17 15.0117 16.58 15.0117 15.95V12.5C15.0117 11.42 14.2291 11 13.5117 11C12.6417 11 12.0117 11.42 12.0117 12.5V15.935C12.0117 16.565 11.6417 17 11.0117 17Z" fill="black"/>
</svg>
