<svg width="24" height="24" viewBox="0 0 24 24" fill="none" xmlns="http://www.w3.org/2000/svg">
<g clip-path="url(#clip0_522_465)">
<path d="M22.235 19.0455L20.444 20.1305C20.1375 20.3157 19.7354 20.2174 19.5492 19.9107C19.3632 19.6035 19.462 19.2015 19.7691 19.0155L21.5602 17.9305C22.1234 17.5898 22.5197 17.0532 22.6759 16.4191C22.822 15.8245 22.7457 15.2034 22.4611 14.6707C22.1624 14.1114 21.6405 13.7054 20.992 13.5273C20.968 13.5209 20.9443 13.5146 20.9202 13.5087C20.2194 13.3366 19.4705 13.4491 18.8551 13.8214L17.2224 14.8101C16.9152 14.9961 16.5138 14.897 16.3272 14.5902C16.2375 14.4413 16.2105 14.266 16.252 14.0971C16.2935 13.9282 16.3987 13.7853 16.5471 13.695L18.1798 12.7062C19.1198 12.1374 20.275 11.9816 21.3359 12.2704C22.3332 12.5445 23.1406 13.178 23.6099 14.055C24.0463 14.8716 24.1636 15.822 23.9407 16.7293C23.7018 17.7018 23.0964 18.5235 22.235 19.0455Z" fill="black"/>
<path d="M17.272 22.049L15.6287 23.0445C14.6916 23.612 13.5541 23.7717 12.4811 23.4785C11.486 23.2049 10.6806 22.5714 10.2133 21.6944C9.77822 20.8786 9.66139 19.9302 9.88439 19.0225C10.1142 18.0488 10.718 17.2237 11.5849 16.6991L13.3758 15.6146C13.5248 15.5244 13.6996 15.4978 13.8685 15.5393C14.0374 15.5808 14.1803 15.6859 14.2706 15.8344C14.3603 15.9832 14.3873 16.1586 14.3458 16.3275C14.3043 16.4964 14.1991 16.6393 14.0507 16.7296L12.2598 17.8141C11.6947 18.1563 11.301 18.6946 11.1514 19.3273C11.0043 19.9262 11.0796 20.5495 11.3634 21.0815C11.6609 21.6396 12.1811 22.0446 12.8267 22.222C13.5381 22.409 14.321 22.3128 14.9545 21.9291L16.5976 20.9341C16.9037 20.7483 17.3059 20.8466 17.4923 21.1539C17.6778 21.4614 17.5791 21.863 17.272 22.049Z" fill="black"/>
<path d="M13.6116 19.1112L19.5384 15.5221C19.692 15.4291 19.869 15.4074 20.0309 15.4472C20.1928 15.487 20.3395 15.5886 20.4327 15.7418C20.6187 16.0489 20.5199 16.451 20.2127 16.637L14.2864 20.2262C13.9885 20.4066 13.5721 20.3043 13.3917 20.0064C13.3019 19.8576 13.275 19.6822 13.3165 19.5133C13.358 19.3444 13.4631 19.2015 13.6116 19.1112Z" fill="black"/>
<path fill-rule="evenodd" clip-rule="evenodd" d="M2.54927 2.22656L11.2151 7.6399L19.881 2.22656H2.54927ZM21.5283 3.55568L11.2151 9.99805L0.90625 3.55836V17.9386H8.27677C8.71018 16.8662 9.50911 15.9169 10.6059 15.3018L18.9052 10.6474C19.7458 10.1759 20.6515 9.96242 21.5283 9.98169V3.55568Z" fill="black"/>
</g>
<defs>
<clipPath id="clip0_522_465">
<rect width="24" height="24" fill="white"/>
</clipPath>
</defs>
</svg>
