<svg width="24" height="24" viewBox="0 0 24 24" fill="none" xmlns="http://www.w3.org/2000/svg">
<path d="M19.2848 2.95129H4.71366C4.54986 2.94903 4.38723 2.97886 4.23503 3.03908C4.08284 3.09931 3.94407 3.18874 3.82666 3.30227C3.70924 3.41581 3.61547 3.55122 3.55071 3.70078C3.48595 3.85034 3.45146 4.01112 3.44922 4.17392V18.8284C3.45146 18.9912 3.48595 19.152 3.55071 19.3016C3.61547 19.4511 3.70924 19.5865 3.82666 19.7001C3.94407 19.8136 4.08284 19.903 4.23503 19.9633C4.38723 20.0235 4.54986 20.0533 4.71366 20.0511H19.2848C19.4486 20.0533 19.6112 20.0235 19.7634 19.9633C19.9156 19.903 20.0544 19.8136 20.1718 19.7001C20.2892 19.5865 20.383 19.4511 20.4477 19.3016C20.5125 19.152 20.547 18.9912 20.5492 18.8284V4.17392C20.547 4.01112 20.5125 3.85034 20.4477 3.70078C20.383 3.55122 20.2892 3.41581 20.1718 3.30227C20.0544 3.18874 19.9156 3.09931 19.7634 3.03908C19.6112 2.97886 19.4486 2.94903 19.2848 2.95129ZM8.63599 17.2638H6.05551V9.5689H8.63599V17.2638ZM7.34575 8.49161C6.98987 8.49161 6.64856 8.35109 6.39692 8.10096C6.14527 7.85083 6.0039 7.51157 6.0039 7.15783C6.0039 6.80409 6.14527 6.46484 6.39692 6.21471C6.64856 5.96457 6.98987 5.82405 7.34575 5.82405C7.53472 5.80275 7.72609 5.82136 7.90733 5.87867C8.08856 5.93598 8.25557 6.03069 8.39743 6.15661C8.53929 6.28252 8.65278 6.4368 8.7305 6.60934C8.80821 6.78188 8.84838 6.96879 8.84838 7.15783C8.84838 7.34687 8.80821 7.53378 8.7305 7.70632C8.65278 7.87886 8.53929 8.03314 8.39743 8.15906C8.25557 8.28497 8.08856 8.37969 7.90733 8.43699C7.72609 8.4943 7.53472 8.51292 7.34575 8.49161ZM17.9429 17.2638H15.3624V13.1342C15.3624 12.0997 14.9926 11.4242 14.055 11.4242C13.7648 11.4263 13.4823 11.5168 13.2455 11.6834C13.0086 11.8501 12.8288 12.0849 12.7304 12.3562C12.663 12.5571 12.6339 12.7688 12.6443 12.9803V17.2552H10.0639C10.0639 17.2552 10.0639 10.2614 10.0639 9.56035H12.6443V10.6462C12.8788 10.2419 13.2197 9.90877 13.6305 9.68279C14.0412 9.4568 14.5062 9.34648 14.9754 9.3637C16.6957 9.3637 17.9429 10.4666 17.9429 12.835V17.2638Z" fill="black"/>
<path fill-rule="evenodd" clip-rule="evenodd" d="M21.5 2H2.5V21H21.5V2ZM19.6037 3.9H4.40371V17.2H19.6037V3.9Z" fill="black"/>
</svg>
